<?xml version="1.0" encoding="utf-8"?>
<!-- Generator: Adobe Illustrator 24.2.0, SVG Export Plug-In . SVG Version: 6.00 Build 0)  -->
<svg version="1.1" id="Layer_1" xmlns="http://www.w3.org/2000/svg" xmlns:xlink="http://www.w3.org/1999/xlink" x="0px" y="0px"
	 viewBox="0 0 96 96" style="enable-background:new 0 0 96 96;" xml:space="preserve">
<style type="text/css">
	.st0{fill:#ED2290;}
</style>
<path class="st0" d="M84,45.6v4.9c0,1.4-1.2,2.6-2.6,2.6H53v28.4c0,1.4-1.2,2.6-2.6,2.6h-4.9c-1.4,0-2.6-1.2-2.6-2.6V53H14.6
	c-1.4,0-2.6-1.2-2.6-2.6v-4.9c0-1.4,1.2-2.6,2.6-2.6H43V14.6c0-1.4,1.2-2.6,2.6-2.6h4.9c1.4,0,2.6,1.2,2.6,2.6V43h28.4
	C82.8,43,84,44.2,84,45.6z"/>
</svg>
