<?xml version="1.0" encoding="utf-8"?>
<!-- Generator: Adobe Illustrator 24.2.0, SVG Export Plug-In . SVG Version: 6.00 Build 0)  -->
<svg version="1.1" id="Layer_1" xmlns="http://www.w3.org/2000/svg" xmlns:xlink="http://www.w3.org/1999/xlink" x="0px" y="0px"
	 viewBox="0 0 1200 1200" style="enable-background:new 0 0 1200 1200;" xml:space="preserve">
<style type="text/css">
	.st0{fill:#FFFFFF;}
</style>
<g>
	<path class="st0" d="M727.7,727.3c-20.4,7.9-54.4,17-91.8,26.1c-12.5,21.5-37.4,39.6-74.8,47.6c-7.9,1.1-18.1,2.3-29.5,2.3
		c-26.1,1.1-57.8-1.1-91.8-4.5h-6.8c-7.9-1.1-15.9-6.8-15.9-14.7c-1.1-10.2,7.9-19.3,18.1-18.1c2.3,0,5.7,0,7.9,1.1
		c44.2,3.4,86.1,6.8,112.1,2.3c48.7-9.1,62.3-39.6,58.9-64.6c-2.3-20.4-18.1-39.6-41.9-37.4c-34,2.3-74.8,0-113.3-2.3
		c-45.3-2.3-90.6-3.4-123.5,0c-36.2,4.5-109.9,31.7-175.6,77c-31.7,21.5-66.8,47.6-88.4,63.4c-11.3,7.9-12.5,23.8-4.5,34l96.3,122.3
		c7.9,10.2,23.8,12.5,34,4.5l35.1-27.2c7.9-6.8,19.3-7.9,29.5-5.7c63.4,19.3,132.5,32.9,176.7,35.1
		c97.4,4.5,283.2-112.1,336.4-149.5C826.3,779.4,787.8,704.7,727.7,727.3L727.7,727.3z"/>
	<path class="st0" d="M1023.4,722.8c-63.4,0-114.4,51-114.4,114.4s51,114.4,114.4,114.4c63.4,0,114.4-51,114.4-114.4
		S1086.8,722.8,1023.4,722.8z"/>
	<path class="st0" d="M361.8,265.1c0,20-16.2,36.2-36.2,36.2c-20,0-36.3-16.2-36.3-36.2c0-20,16.2-36.2,36.3-36.2
		C345.6,228.9,361.8,245.1,361.8,265.1"/>
	<path class="st0" d="M458.2,242.7c19.7,3.5,32.9,22.3,29.4,42c-3.5,19.7-22.3,32.9-42,29.4c-19.7-3.5-32.9-22.3-29.4-42
		C419.7,252.4,438.5,239.3,458.2,242.7"/>
	<path class="st0" d="M585.8,280.5c18.8,6.8,28.5,27.6,21.7,46.5s-27.6,28.5-46.5,21.7c-18.8-6.8-28.5-27.6-21.7-46.5
		C546.2,283.4,567,273.7,585.8,280.5"/>
	<path class="st0" d="M706.1,339.1c17.3,10,23.3,32.2,13.3,49.5c-10,17.3-32.2,23.3-49.5,13.3c-17.3-10-23.3-32.2-13.3-49.5
		C666.6,335,688.8,329,706.1,339.1"/>
	<path class="st0" d="M813.2,418c15.3,12.9,17.3,35.7,4.5,51.1c-12.9,15.3-35.7,17.3-51.1,4.5c-15.3-12.9-17.3-35.7-4.5-51.1
		C775,407.1,797.9,405.1,813.2,418"/>
	<path class="st0" d="M906,513.9c12.9,15.3,10.9,38.2-4.5,51.1c-15.3,12.9-38.2,10.9-51.1-4.5c-12.9-15.3-10.9-38.2,4.5-51.1
		S893.1,498.5,906,513.9"/>
	<path class="st0" d="M980.3,625.5c10,17.3,4.1,39.5-13.3,49.5c-17.3,10-39.5,4.1-49.5-13.3c-10-17.3-4.1-39.5,13.3-49.5
		C948.2,602.2,970.3,608.2,980.3,625.5"/>
</g>
</svg>
