<?xml version="1.0" encoding="utf-8"?>
<!-- Generator: Adobe Illustrator 24.2.0, SVG Export Plug-In . SVG Version: 6.00 Build 0)  -->
<svg version="1.1" id="Layer_1" xmlns="http://www.w3.org/2000/svg" xmlns:xlink="http://www.w3.org/1999/xlink" x="0px" y="0px"
	 viewBox="0 0 1200 1200" style="enable-background:new 0 0 1200 1200;" xml:space="preserve">
<style type="text/css">
	.st0{fill:#FFFFFF;}
</style>
<g>
	<path class="st0" d="M606.4,762.7c-90.2,0-163.5-73.3-163.5-163.5c0-43.6,17-84.6,47.9-115.5c30.9-30.9,72-47.9,115.6-47.9
		c0,0,0,0,0,0c71.3,0,134.7,47.1,155.8,115.1l322.3,0c26.7,0,48.4,21.7,48.4,48.4v105.9c0,26.7-21.7,48.4-48.4,48.4
		c-26.7,0-48.4-21.7-48.4-48.4v-57.4h-27.8v57.4c0,26.7-21.6,48.4-48.2,48.4c-26.7,0-48.4-21.7-48.4-48.4v-57.4H762.3
		C741.1,715.6,677.7,762.7,606.4,762.7z M606.4,532.6c-36.7,0-66.6,29.9-66.6,66.6c0,36.7,29.9,66.6,66.6,66.6
		c36.7,0,66.6-29.9,66.6-66.6C673.1,562.5,643.2,532.6,606.4,532.6z"/>
	<path class="st0" d="M606.4,441.7c72,0,132.8,48.8,151.3,115.1h326.8l0,0c23.4,0,42.4,19,42.4,42.4v105.9c0,23.4-19,42.4-42.4,42.4
		c-23.4,0-42.4-19-42.4-42.4v-63.4h-39.8v63.4c0,23.4-19,42.4-42.2,42.4c-23.4,0-42.4-19-42.4-42.4v-63.4H757.8
		c-18.6,66.3-79.4,115.1-151.3,115.1c-86.8,0-157.5-70.7-157.5-157.5C448.9,512.4,519.6,441.7,606.4,441.7 M606.4,671.8
		c40,0,72.6-32.6,72.6-72.6c0-40-32.6-72.6-72.6-72.6c-40.1,0-72.6,32.6-72.6,72.6C533.8,639.2,566.4,671.8,606.4,671.8
		 M606.4,429.7C606.4,429.7,606.4,429.7,606.4,429.7c-22.8,0-45,4.5-65.9,13.3c-20.2,8.5-38.3,20.8-53.9,36.3
		c-15.6,15.6-27.8,33.7-36.3,53.9c-8.9,20.9-13.3,43.1-13.3,65.9c0,93.5,76,169.5,169.5,169.5c18.9,0,37.6-3.1,55.3-9.3
		c17.2-6,33.2-14.7,47.7-25.9c14.3-11.1,26.7-24.2,36.9-39.2c8.6-12.7,15.4-26.3,20.3-40.7h139.1v51.4c0,30,24.4,54.4,54.4,54.4
		c29.9,0,54.2-24.4,54.2-54.4v-51.4h15.8v51.4c0,30,24.4,54.4,54.4,54.4c30,0,54.4-24.4,54.4-54.4V599.2c0-30-24.4-54.4-54.4-54.4
		h-73.9l0,0h-244c-4.9-14.4-11.7-28-20.3-40.7c-10.2-15-22.6-28.1-36.9-39.2C695,453.7,678.9,445,661.8,439
		C644,432.9,625.4,429.7,606.4,429.7L606.4,429.7L606.4,429.7z M606.4,659.8c-33.4,0-60.6-27.2-60.6-60.6
		c0-33.4,27.2-60.6,60.6-60.6c33.4,0,60.6,27.2,60.6,60.6C667.1,632.6,639.9,659.8,606.4,659.8L606.4,659.8z"/>
</g>
</svg>
