<?xml version="1.0" encoding="utf-8"?>
<!-- Generator: Adobe Illustrator 24.2.0, SVG Export Plug-In . SVG Version: 6.00 Build 0)  -->
<svg version="1.1" id="Layer_1" xmlns="http://www.w3.org/2000/svg" xmlns:xlink="http://www.w3.org/1999/xlink" x="0px" y="0px"
	 viewBox="0 0 1200 1200" style="enable-background:new 0 0 1200 1200;" xml:space="preserve">
<style type="text/css">
	.st0{fill:#FFFFFF;}
</style>
<g>
	<path class="st0" d="M660.7,181.9c-158.4,0-296.5,88.8-368.2,218.9h8.1c29.3,0,58.5,10.1,81.7,29.3
		c57.5-93.8,160.4-156.3,278.4-156.3c180.5,0,326.8,146.3,326.8,326.8S840.2,927.3,660.7,927.3c-68.6,0-132.1-21.2-185.6-57.5
		l-43.4,80.7c65.6,42.4,144.2,67.6,229,67.6c231,0,418.6-187.6,418.6-418.6C1079.3,369.5,891.7,181.9,660.7,181.9L660.7,181.9z"/>
	<path class="st0" d="M660.7,366.5c-25.2,0-45.4,20.2-45.4,45.4v188.6c0,25.2,20.2,45.4,45.4,45.4H811c25.2,0,45.4-20.2,45.4-45.4
		c0-25.2-20.2-45.4-45.4-45.4H706.1V411.9C706.1,386.7,685.9,366.5,660.7,366.5z"/>
	<path class="st0" d="M414.6,672.1L350,682.2c-7.1,1-14.1-5-14.1-12.1V527.9c0-36.3-49.4-49.4-66.6-17.1L125.1,782.1
		c-14.1,25.2,8.1,55.5,36.3,51.4l64.6-10.1c7.1-1,14.1,5,14.1,12.1v142.2c0,36.3,49.4,49.4,66.6,17.1l145.2-271.3
		C465,697.3,443.8,667.1,414.6,672.1L414.6,672.1z"/>
</g>
</svg>
