<?xml version="1.0" encoding="utf-8"?>
<!-- Generator: Adobe Illustrator 24.0.1, SVG Export Plug-In . SVG Version: 6.00 Build 0)  -->
<svg version="1.1" id="Layer_1" xmlns="http://www.w3.org/2000/svg" xmlns:xlink="http://www.w3.org/1999/xlink" x="0px" y="0px"
	 viewBox="0 0 1024 1024" style="enable-background:new 0 0 1024 1024;" xml:space="preserve">
<style type="text/css">
	.st0{fill:#FFFFFF;}
</style>
<g>
	<path class="st0" d="M644.2,504.2l-57.6,65.1l-3,66.7l98-110.9C667.3,522.2,654.5,515,644.2,504.2z"/>
	<path class="st0" d="M795.1,903.6c95.3,0,172.8-77.5,172.8-172.9c0-90.3-69.6-164.5-158-172l12.5,44.1
		C881.5,615.4,926,668,926,730.7c0,72.2-58.7,130.9-130.9,130.9c-72.2,0-130.9-58.7-130.9-130.9c0-52.3,31-97.5,75.5-118.4
		l35.2,124.1c3.3,11.3,14.5,17.6,25.9,14.4c15.9-4.4,16.7-17.9,14.4-25.9l-57.4-202.2l-42.7,3l13,45.7
		c-62.1,26.2-105.8,87.7-105.8,159.2C622.3,826,699.8,903.6,795.1,903.6z"/>
	<path class="st0" d="M401.7,730.7c0-46.3-18.4-88.3-48.2-119.4l35.1-42.8c-7.9-9.8-16.9-21.3-26.5-33.8L211.5,718.3
		c-7.4,8.9-6,22.2,2.9,29.5c3.9,3.2,8.6,4.8,13.3,4.8c6.1,0,12.1-2.6,16.2-7.7L326.7,644c20.5,23.1,33.1,53.4,33.1,86.7
		c0,72.2-58.7,130.9-130.9,130.9C156.7,861.6,98,802.9,98,730.7c0-72.2,58.7-130.9,130.9-130.9c8.9,0,17.6,0.9,26,2.6l28.2-35.7
		c-17-5.7-35.2-8.8-54.1-8.8c-95.3,0-172.8,77.5-172.8,172.8c0,95.3,77.5,172.9,172.8,172.9C324.2,903.6,401.7,826,401.7,730.7z"/>
	<path class="st0" d="M870.9,406.4l-134.3-2.5c0,0-35.6-109.6-48.4-142.6c-12.5-32-47.3-48.1-79.2-48.1
		c-93.6,0-219.9,68.4-261,102.3c-30.4,25-34.7,58.7-24.3,84.8c20.4,50.9,121.2,170.8,121.2,170.8l8.1,186.6
		c0.1,1.8,2.4,42.1,39,42.1c30.6,0,37.1-19.9,39.7-40.3c4.3-35.4,11.3-137.1,13.4-180.5c0.7-13.9-3.3-26.8-9.6-38.8l-71.8-137.3
		l155.6-42.9l46.1,101c6.3,15.6,16.5,24,33.2,24l178.2-12.4c4.4-0.2,25.5-7.8,25.2-33.4C901.7,421.5,890.2,406.5,870.9,406.4z"/>
	<path class="st0" d="M789.1,120.4c-49.8,0-90.1,40.3-90.1,90.1c0,49.8,40.3,90.1,90.1,90.1c49.7,0,90-40.3,90-90.1
		C879.2,160.7,838.9,120.4,789.1,120.4z"/>
</g>
</svg>
