<?xml version="1.0" encoding="utf-8"?>
<!-- Generator: Adobe Illustrator 24.0.1, SVG Export Plug-In . SVG Version: 6.00 Build 0)  -->
<svg version="1.1" id="Layer_1" xmlns="http://www.w3.org/2000/svg" xmlns:xlink="http://www.w3.org/1999/xlink" x="0px" y="0px"
	 viewBox="0 0 1024 1024" style="enable-background:new 0 0 1024 1024;" xml:space="preserve">
<style type="text/css">
	.st0{fill:#FFFFFF;}
</style>
<g>
	<path class="st0" d="M567.5,213.2c31.2,0,59.4,13.2,79.5,34.2h213.4V54.8H164.6v192.6H488C508,226.4,536.2,213.2,567.5,213.2z
		 M538.2,133.1h246.6v36H538.2V133.1z M441.8,174.5l-7.7,8.7c-0.7,0.8-1.8,1.3-2.8,1.3h-4c-1.8,12.2-12.4,21.6-25.1,21.6
		c-12.7,0-23.3-9.4-25.1-21.6h-64.7c-1.8,12.2-12.4,21.6-25.1,21.6c-12.7,0-23.3-9.4-25.1-21.6h-5.8c-1,0-2-0.4-2.7-1.1l-11.4-11.7
		c-0.7-0.7-1.1-1.6-1.1-2.6v-27.5c0-5.6,4.2-10.8,9.7-11.6l10-1.8c4-3.9,21.9-21,32.8-27.9c4.2-2.6,7.4-4.8,15.4-4.8h39.1
		c10.7,0,15.7,2.6,24.9,10.3c7.2,6,29.7,24.5,29.7,24.5l30.7,9.6c5.3,1.1,9.3,6.2,9.3,11.7V172C442.8,172.9,442.4,173.8,441.8,174.5
		z"/>
	<path class="st0" d="M488.1,323.1c0,43.6,35.3,78.9,78.9,78.9c43.6,0,78.9-35.3,78.9-78.9c0-43.6-35.3-78.9-78.9-78.9
		C523.4,244.2,488.1,279.5,488.1,323.1z"/>
	<g>
		<path class="st0" d="M519.5,420.4C520.4,420.2,518.7,420.5,519.5,420.4L519.5,420.4z"/>
		<path class="st0" d="M614.7,420.8L567.3,456l-47.4-35.2c-17.2,3.5-35.2,9.9-48.3,18v102.9h235.8v-19.2
			C707.3,462.7,670,431.9,614.7,420.8z M646.8,521h-40c-3.1,0-5.7-2.6-5.7-5.7v-21.1c0-3.1,2.5-5.7,5.7-5.7h40
			c3.1,0,5.7,2.5,5.7,5.7v21.1C652.5,518.5,649.9,521,646.8,521z"/>
	</g>
	<path class="st0" d="M425.5,429l-160,8.8c-5,0.3-9.1,5.7-9.1,12.1v92.9c3.4-0.7,6.8-1.2,10.4-1.2h169.6V441.6
		C436.5,434.5,431.6,429,425.5,429z"/>
	<path class="st0" d="M217.8,593.7c0-4,0.5-7.8,1.3-11.5h-32.3c-11.7,0-21.3,9.4-21.3,21.1v303.4c0,11.7,9.5,21.1,21.3,21.1h31.6
		c-0.4-2.6-0.6-5.2-0.6-7.9V593.7z"/>
	<path class="st0" d="M806.3,919.9c0,2.7-0.3,5.3-0.7,7.9h31.7c11.7,0,21.1-9.5,21.1-21.1V603.3c0-11.7-9.4-21.1-21.1-21.1H805
		c0.8,3.7,1.3,7.6,1.3,11.5V919.9z"/>
	<path class="st0" d="M267.2,575.9c-8.4,0-15.3,7.8-15.3,17.5v326c0,8.3,5.2,15.3,12.2,17.2c84.5,23.1,158.9,32.6,247.9,32.6
		c89,0,168.9-10.9,247.9-32.6c7.1-1.9,12.2-8.8,12.2-17.2v-326c0-9.7-6.8-17.5-15.3-17.5H267.2z M512.1,857.1
		c-65.3,0-118.2-39.9-118.2-89c0-49.1,52.9-89,118.2-89c65.2,0,118.1,39.9,118.1,89C630.2,817.2,577.3,857.1,512.1,857.1z"/>
</g>
</svg>
