<?xml version="1.0" encoding="utf-8"?>
<!-- Generator: Adobe Illustrator 24.0.1, SVG Export Plug-In . SVG Version: 6.00 Build 0)  -->
<svg version="1.1" id="Layer_1" xmlns="http://www.w3.org/2000/svg" xmlns:xlink="http://www.w3.org/1999/xlink" x="0px" y="0px"
	 viewBox="0 0 1024 1024" style="enable-background:new 0 0 1024 1024;" xml:space="preserve">
<style type="text/css">
	.st0{fill:#FFFFFF;}
</style>
<g>
	<path class="st0" d="M258,731.4c-8.6,42.4-26.3,52.9-45.6,54.5c-37.8,3.2-64.9,14.5-67.6,32.3c-4,26.4,46.6,55.9,112.9,66
		c15.1,2.3,29.7,3.4,43.4,3.4c46.2,0,80.9-12.5,84-32.9c2.7-17.9-18.4-36.6-55-50.9c-23.2-9.1-31.9-30.2-28.1-65.7
		c1.8-17.4,5.9-39.5,10.5-69.1c4.4-28.4,28.4-47.5,44.2-56.1c63.5-34.9,113.3-122.4,130.4-235c7.1-46.8,7.2-96.2,1.4-136.2
		c-4.4-23.3-49.2-52.4-123.5-63.4c-68.2-10.1-125.8,0.5-137,24.9c-16.9,36.2-32,83.9-39,129.5c-17.3,114,7.1,217.3,56.5,265
		c8.2,8.9,27.7,33.7,23,64.7C264.1,691.1,261.5,714.3,258,731.4z M262.6,208.9c7.4-2.6,23.9-7.1,52-7.1c14.8,0,30.3,1.2,46.3,3.7
		c46.1,7,78.1,21.3,92.7,32.3c1,0.7,1.4,1.9,1.3,3.1c-0.2,1.2-1,2.2-2.1,2.6c-7.3,2.6-23.9,7.1-51.9,7.1c-14.8,0-30.4-1.2-46.2-3.6
		c-46.1-7-78.2-21.3-92.8-32.3c-1-0.7-1.5-1.9-1.3-3.1C260.7,210.3,261.5,209.3,262.6,208.9z M212,379.1c-0.4-0.6-0.6-1.2-0.5-1.9
		c1.4-31.8,10.3-84,31.3-135.1c0.4-0.9,1.2-1.6,2.1-1.9c1-0.3,2-0.1,2.8,0.5c22.1,16.2,60.3,29.6,102.2,36
		c41.6,6.3,82.8,4.8,108.5-4.1c0.9-0.3,1.9-0.2,2.8,0.3c0.8,0.5,1.4,1.3,1.6,2.3c4.6,29.2-0.3,90.5-4.6,108.3
		c-0.1,0.6-0.4,1.1-0.9,1.6c-19.1,18.9-66.2,31.1-120.2,31.1C277.5,416.1,226.1,400.9,212,379.1z"/>
	<path class="st0" d="M828.5,413.9c-7.7-46.7-23.2-93.8-41.1-130.1c-14.1-26-77.4-31.4-136.9-21.9c-59.2,9.4-117.7,38.2-122.5,65.3
		c-5.2,40.2-4.6,89.3,3.1,136c18.6,112.3,72.6,202,133.4,233.3c19.9,15.5,39.5,25.1,45,55.5c7.6,42.3,8.9,51.6,11.4,68.9
		c4.9,33.1-5.9,57.1-27.2,66.1c-34.9,14.8-57.3,33.8-54.3,51.7c3.3,19.8,36.6,31.8,81.1,31.8c14.6,0,30.3-1.3,46.6-4
		c66.2-11,116.4-41.2,112.1-67.5c-3-17.8-30.3-28.2-68.1-31.4c-28.2-2.4-41.1-26.3-46.2-54c-3.2-17.2-6.3-38.2-11.4-68.9
		c-5.1-30.9,13.9-55.9,22.1-65C824.3,631.3,847.3,527.7,828.5,413.9z M562.7,322.5c14.4-11.2,46.3-25.9,92.3-33.5
		c17.2-2.8,33.8-4.3,49.6-4.3c26.1,0,41.6,4,48.6,6.4c1.1,0.4,2,1.4,2.2,2.6c0.2,1.2-0.3,2.4-1.2,3.1
		c-14.5,11.2-46.3,25.9-92.3,33.5c-17.1,2.8-33.8,4.3-49.6,4.3c-26,0-41.6-4-48.6-6.4c-1.1-0.4-2-1.4-2.2-2.6
		C561.3,324.5,561.8,323.3,562.7,322.5z M683.8,505.5c-58.1,0-107.8-14.1-123.7-35.1c-0.3-0.4-0.5-0.9-0.6-1.3
		c-5.3-26.6-9.4-81.9-6.4-110.7c0.1-1,0.6-1.9,1.5-2.4c0.8-0.5,1.9-0.7,2.8-0.4c25.9,8.5,66.9,9.5,108.5,2.7
		c41.9-6.9,80-21,101.9-37.5c0.8-0.6,1.8-0.8,2.7-0.6c1,0.2,1.8,0.9,2.2,1.8c17.7,36.5,33.7,121.8,34.1,148.2c0,0.8-0.3,1.6-0.8,2.2
		C788.4,492.2,739.3,505.5,683.8,505.5z"/>
	<path class="st0" d="M613,78.1c-5.1-4.3-12.5-4.7-18-0.9l-62.4,43.3L522,65.6c-1.3-6.5-6.7-11.4-13.3-11.9
		c-6.7-0.6-12.8,3.4-15.1,9.7l-36.9,101.1c-2.8,7.7,1.1,16.2,8.8,19c7.7,2.8,16.1-1.1,19-8.8l18.6-51l4.8,24.9c1,4.9,4.3,9,8.9,10.9
		c4.6,1.9,9.9,1.3,14-1.5l35.4-24.6l-22.5,47.5c-2,4.2-1.9,9.2,0.3,13.3c2.2,4.1,6.3,7,10.9,7.6l35.6,5.1l-72.1,46.9
		c-6.8,4.5-8.8,13.6-4.3,20.5c2.8,4.3,7.6,6.7,12.4,6.7c2.8,0,5.6-0.8,8.1-2.4l105-68.3c5.2-3.4,7.7-9.6,6.4-15.6
		c-1.3-6-6.2-10.6-12.3-11.5l-54.7-7.8l37.7-79.5C619.7,89.7,618.1,82.4,613,78.1z"/>
	<path class="st0" d="M239.8,367.2c10.4,8,44.2,21,98.3,21c54.1,0,87.9-13,98.3-21c-10.4-8-44.2-21-98.3-21
		C284,346.3,250.2,359.3,239.8,367.2z"/>
	<path class="st0" d="M585.5,458.4c10.4,8,44.2,21,98.3,21s87.9-13,98.3-21c-10.4-8-44.2-21-98.3-21
		C629.7,437.4,595.9,450.4,585.5,458.4z"/>
</g>
</svg>
