<?xml version="1.0" encoding="utf-8"?>
<!-- Generator: Adobe Illustrator 24.0.1, SVG Export Plug-In . SVG Version: 6.00 Build 0)  -->
<svg version="1.1" id="Layer_1" xmlns="http://www.w3.org/2000/svg" xmlns:xlink="http://www.w3.org/1999/xlink" x="0px" y="0px"
	 viewBox="0 0 1024 1024" style="enable-background:new 0 0 1024 1024;" xml:space="preserve">
<style type="text/css">
	.st0{fill:#FFFFFF;}
</style>
<g>
	<path class="st0" d="M926.8,445L823,428.9c-9.4-1.4-18.4,5-19.9,14.6c-1.5,9.5,5,18.4,14.6,19.9l103.8,16.1
		c0.9,0.1,1.8,0.2,2.7,0.2c8.4,0,15.9-6.2,17.2-14.8C942.8,455.4,936.3,446.5,926.8,445z"/>
	<path class="st0" d="M807.7,506.7c-7.6-5.9-18.6-4.4-24.4,3.2c-5.9,7.6-4.4,18.6,3.2,24.4l72.2,55.3c3.2,2.4,6.9,3.6,10.6,3.6
		c5.2,0,10.4-2.4,13.9-6.8c5.9-7.6,4.4-18.6-3.2-24.4L807.7,506.7z"/>
	<path class="st0" d="M819.5,388.8c1.8,0,3.7-0.3,5.5-0.9l85.9-28.6c9.1-3,14.1-12.9,11-22c-3-9.1-12.9-14.1-22-11L814,354.8
		c-9.1,3-14.1,12.9-11,22C805.4,384.2,812.2,388.8,819.5,388.8z"/>
	<path class="st0" d="M707.9,545.8c15.2-19.6,19.4-46.4,9.7-70.3l21-16.7c29.1-22.9,33.9-65.6,10.7-95.1
		c-7.6-9.6-16.8-16.3-26.6-20.4l9.8-7.7c14.9-11.7,24.3-28.5,26.6-47.4c2.1-18.6-3.4-37.8-15.2-52.8c-9.6-12.2-22.3-20.6-36.7-24.5
		c13-24.2,11.3-54.8-6.7-77.7c-11.9-15-28.7-24.5-47.4-26.7c-16.3-1.9-32.9,1.8-46.4,10.2c-1.5-12.8-6.6-24.9-14.7-35.3
		c-11.8-14.9-28.4-24.3-46.9-26.5c-18.9-2.3-38.2,3.1-52.8,14.7L359.6,174.2c3.8-39.9-11-67-22.4-81.5c-22.8-28.9-60.2-43.5-87.2-34
		c-24.3,8.5-27.9,32.4-31.8,57.8c-4.4,29.3-11.8,78.5-48.4,141.9c-57,98.3-79.1,175.8-24,275.8C67.8,640,64.6,720.9,129,838.8
		C174.6,922.2,246.9,970,327.6,970c33.9,0,67.4-8.6,97.1-24.8l272.7-149.8c32.5-17.8,44.4-59,26.4-92c-5.6-10.3-13.5-18.6-22.8-24.5
		l11-6c16.6-9.1,28.7-24.1,34.1-42.3c5.2-18,3-37.8-6.2-54.6C732.5,562.4,721.3,552,707.9,545.8z M318.7,234.3
		c6.8,4,15.1,4.7,21.3-0.2L514.1,96.9c7.3-5.8,17.4-8.5,27.1-7.4c6.5,0.8,15.9,3.7,23.6,13.4c6,7.6,8.6,17,7.5,26.6
		c-1.1,9.6-5.9,18.1-13.5,24.1L424.3,259.7c-7.6,6-8.9,16.9-2.9,24.5c6,7.6,16.9,8.9,24.5,2.9l176.6-138.8
		c7.2-5.7,17.3-8.4,26.9-7.2c6.7,0.8,16.3,3.8,24,13.6c12.3,15.7,9.6,38.4-6,50.8l-117.3,93.2l0,0c-7.5,6-8.8,17-2.8,24.5
		c6,7.5,17,8.8,24.5,2.8l96.4-76.6c6.6-4.4,15.1-6.6,23.3-6c7,0.5,17.1,3.3,25.3,13.6c6.1,7.8,9,17.7,7.9,27.1
		c-1.2,9.6-6,18.1-13.6,24.1l-76.6,60.3v0c-7.6,6-8.9,16.9-2.9,24.5c6,7.6,16.9,8.9,24.5,2.9l20.4-16c10.3-8.1,31.9-11.9,45.6,5.4
		c11.1,14.1,8.8,35.3-5,46.2l-19.8,15.8c-12.5-10.4-28.3-16.3-45.5-16.3c-9.4,0-18.6,1.8-27,5.2c0.6-12.8-2.3-25.6-8.6-37.2
		c-12.6-23.1-35.9-36.9-62.2-36.9c-12.1,0-23.9,3-34.1,8.6l-148.4,81c10.4-38.7,0.4-68-8.6-84.2c-19.1-34.5-53.8-53.1-80.3-48
		c-25.3,4.8-33,27.3-41,51.7c-9.2,28.2-25.4,76.3-72.1,132.6c-38.2-79.7-18.4-143.3,30.6-228c40-69.2,48.3-124.4,52.7-154.1
		c2.7-17.7,4.6-28.6,8.8-30.1c11.3-4,33.9,4.4,48.3,22.6c10.9,13.9,26.1,44.8,4.7,95.9C307.9,223.7,315.5,232.4,318.7,234.3z
		 M712.7,620.8c-2.8,9.3-8.9,16.9-17.4,21.6L494.4,752.1c-8.4,4.6-11.6,15.2-6.9,23.7c4.6,8.4,15.2,11.6,23.7,6.9L650,706.8
		c4.4-2.2,9.5-3.4,14.7-3.4c5.8,0,20.2,1.6,28.5,16.7c8.6,15.8,2.8,36.2-12.6,44.6L408,914.6c-24.5,13.4-52.4,20.5-80.4,20.5
		c-39.7,0-114.3-14.7-168-113.1c-63.6-116.5-55-185.8,37.2-296.8c50.9-61.4,67.7-112.6,77.7-143.2c5.6-17,9.3-27.7,13.7-28.2
		c15.2-1.7,33.5,10.8,43.8,30.4c8.2,15.7,18.2,48.6-11.3,95.4l-2,3.2c-4.3,6.7-3.4,15.5,2,21.3c5.4,5.8,14.1,7.2,21.1,3.4
		l194.6-106.2c5-2.8,11.2-4.3,17.4-4.3c6.4,0,22.4,1.8,31.6,18.7c4.6,8.5,5.7,18.3,3,27.5c-2.7,9.3-8.9,16.9-17.4,21.5l-150.3,82.1
		l-0.1,0c-8.4,4.6-11.6,15.2-6.9,23.6c4.6,8.5,15.2,11.6,23.6,7L634.5,470c5-2.7,10.9-4.2,17.1-4.2c6.5,0,22.8,1.9,32.1,18.9
		c9.5,17.5,3.1,39.5-14.3,49l-210.7,115c-8.5,4.6-11.6,15.2-6.9,23.6c4.6,8.5,15.2,11.6,23.6,6.9l185.4-101.3c5-2.6,10.9-4,17-4
		c6.4,0,22.4,1.8,31.6,18.7C714.1,601.5,715.3,611.8,712.7,620.8z"/>
</g>
</svg>
