<?xml version="1.0" encoding="utf-8"?>
<!-- Generator: Adobe Illustrator 24.0.1, SVG Export Plug-In . SVG Version: 6.00 Build 0)  -->
<svg version="1.1" id="Layer_1" xmlns="http://www.w3.org/2000/svg" xmlns:xlink="http://www.w3.org/1999/xlink" x="0px" y="0px"
	 viewBox="0 0 1024 1024" style="enable-background:new 0 0 1024 1024;" xml:space="preserve">
<style type="text/css">
	.st0{fill:#FFFFFF;}
</style>
<g>
	<path class="st0" d="M613.7,178.4l-45.4,1.3l-30.2,36.8c23.4-3,48.7-4.7,75.6-4.7c141.3,0,239.8,46.6,239.8,88.3
		c0,41.8-98.5,88.3-239.8,88.3c-83.2,0-150.5-15.4-193.5-37.9c-9.4-4.9-26.8-17-39.9-31.5c-17.1-19-41.6-1.2-40.6,16.5l42,528.4h0.1
		c1.6,60.3,100.7,105.5,231.9,105.5c131.2,0,230.3-45.2,231.9-104.6h0.1L888.4,316C901.6,268,837.6,178.4,613.7,178.4z M836.6,531.4
		c-6.1,73-113.5,109.5-222.9,109.5c-109.4,0-222.9-37.6-223-109.5l-14.2-165.1c13.1,10.2,33.2,19.2,38,21.2
		c50.1,22.2,120.6,35.6,199.1,35.6c100.5,0,187.9-21.9,236.2-56.2L836.6,531.4z"/>
	<path class="st0" d="M425.1,531.4c0,43,84.4,77.9,188.6,77.9c104.1,0,188.6-34.9,188.6-77.9c0-43.1-84.4-78-188.6-78
		C509.6,453.5,425.1,488.4,425.1,531.4z"/>
	<path class="st0" d="M529.7,175.1l-115,115l-42.8-159.8C428.1,122.5,488.2,136.8,529.7,175.1z"/>
	<path class="st0" d="M337.6,138.7l42.6,159.1L220.1,255C234.2,211.7,277.9,157.2,337.6,138.7z"/>
	<path class="st0" d="M255.5,449.2l64.2-64.2l-5.4-68.3l-103.4-27.7C199.8,352.2,221.9,410.8,255.5,449.2z"/>
	<path class="st0" d="M451.3,97.8c-36.7-9.7-136.8-15.6-211.6,61.5c-126,129.8-37.2,290-8.9,315.6l-26.3,26.3
		c-95.4-104.7-92.6-267.4,8.6-368.5c52.1-52,120.4-78.1,188.7-78.1c64.5,0,129,23.2,179.8,69.5l-26.2,26.3
		C529.2,125.6,491.7,108.4,451.3,97.8z"/>
</g>
</svg>
