<?xml version="1.0" encoding="utf-8"?>
<!-- Generator: Adobe Illustrator 24.0.1, SVG Export Plug-In . SVG Version: 6.00 Build 0)  -->
<svg version="1.1" id="Layer_1" xmlns="http://www.w3.org/2000/svg" xmlns:xlink="http://www.w3.org/1999/xlink" x="0px" y="0px"
	 viewBox="0 0 1024 1024" style="enable-background:new 0 0 1024 1024;" xml:space="preserve">
<style type="text/css">
	.st0{fill:#FFFFFF;}
</style>
<g>
	<path class="st0" d="M687.4,571.5c-3.6-5.2-9.8-7.5-15.6-6.4c-0.9-2.4-1.9-4.8-3.5-7l-19.5-28.4c2-14.3-0.9-29.4-9.7-42.2
		c-12.7-18.6-33.3-26.3-54.3-24.4c-21.4-37.2-53.6-59.2-85.2-57.6c-16,0.9-45.6,8.9-63.8,53.2c-7.1,17.4-9.8,35.5-11,54.5
		c0,0,0,0.1,0,0.1l29.6-17.6c1.4-9.3,3.6-18.2,6.9-26.5c6.5-15.8,18.7-34.9,39.6-36c18.9-1.1,40.5,13.7,56.3,38l-118.7,69.7
		l58.2,116.8l112.3-77l8.4,12.2c1.5,2.2,3.2,4.1,5.1,5.8c-3.3,5.1-3.4,11.8,0.3,17c3,4.4,7.8,6.7,12.7,6.7c3,0,6-0.9,8.7-2.7
		l39.2-26.8C690.4,588.1,692.2,578.5,687.4,571.5z"/>
	<path class="st0" d="M927.2,865.7H898c0.8-1.2,1.7-2.3,2.5-3.5c4.3-6.2,105.4-153.6,55.6-188c-4.8-3.3-10.5-5-16.9-5
		c-11.2,0-24.4,5.6-38.5,15.1c-2.2-3.9-5-7.4-8.9-10.1c-4.8-3.3-10.5-5-16.9-5c-8.4,0-17.9,3.3-28,8.8c-3.9,2.1-7.8,4.5-11.9,7.3
		c-2.2-4.4-5.2-8.1-9.4-11c-4.8-3.3-10.5-5-16.9-5c-23.7,0-56.5,25.1-88.1,59.2c6.1,7.6,10.8,16.3,13.9,26.1
		c34.6-38.9,63.1-57.4,75.2-57.4c6.4,6.9-3.1,63.2-62.6,149.3c-4.7,6.8-9.3,13.2-14,19.3H592.7c-8.1,0-14,7-14,14
		c0,6.1,4.1,13.9,14,13.9h334.8c8.8,0,16.4-8.9,13.2-18.5C938.7,869.4,933.2,865.7,927.2,865.7z M904.2,716.8
		c15.8-12.5,28.1-18.7,35.1-18.7c6.4,6.8-3,62.8-62.3,148.4c-4.7,6.8-9.3,13.1-13.9,19.2h-29.7c0.8-1.1,1.6-2.3,2.4-3.4
		C839.2,857.6,897.3,772.7,904.2,716.8z M875.3,698.1c6.4,6.8-3,62.8-62.2,148.4c-4.7,6.8-9.3,13.1-13.9,19.2h-31.7
		c0.8-1.1,1.6-2.3,2.4-3.4c3.2-4.6,60.2-87.8,68.1-143.7C854.9,704.8,868,698.1,875.3,698.1z"/>
	<path class="st0" d="M349.8,849.1c0,0-16.4-16.6-26.4-35.8c-19.8-38.2-76.5-154.1-76.5-154.1l42-13.3
		c33.4,62.6,55.1,108.3,77.4,147.1c16.8,29.3,38.2,47.4,68.7,47.4h209.5c40.6,0,64.3-19.8,64.3-56.5c0-29.3-15.3-50.1-48-55
		l-171.4-17.7l-92.9-186.5c-30.2-74.2-83.1-106.3-140.6-106.3c-78.9,0-134.1,51.3-155.1,151.5c-13.4,63.7-49.8,309.2-49.8,309.2
		h298.8L349.8,849.1z"/>
	<path class="st0" d="M674.4,646.8c0,8.2-6.6,14.8-14.8,14.8c-8.2,0-14.8-6.6-14.8-14.8c0-8.2,6.6-14.8,14.8-14.8
		C667.8,632,674.4,638.6,674.4,646.8z"/>
	<path class="st0" d="M717.8,617.4c0,8.2-6.6,14.8-14.8,14.8c-8.2,0-14.8-6.6-14.8-14.8c0-8.2,6.6-14.8,14.8-14.8
		C711.1,602.5,717.8,609.2,717.8,617.4z"/>
	<path class="st0" d="M681.5,695.1c0,8.2-6.6,14.8-14.8,14.8c-8.2,0-14.8-6.6-14.8-14.8c0-8.2,6.6-14.8,14.8-14.8
		C674.8,680.3,681.5,687,681.5,695.1z"/>
	<path class="st0" d="M720.8,668.4c0,8.2-6.6,14.8-14.8,14.8c-8.2,0-14.8-6.6-14.8-14.8c0-8.2,6.6-14.8,14.8-14.8
		C714.1,653.6,720.8,660.3,720.8,668.4z"/>
	<path class="st0" d="M760.1,641.8c0,8.2-6.6,14.8-14.8,14.8c-8.2,0-14.8-6.6-14.8-14.8c0-8.2,6.6-14.8,14.8-14.8
		C753.4,626.9,760.1,633.6,760.1,641.8z"/>
	<path class="st0" d="M489.4,270c0,76.9-62.3,139.2-139.3,139.2C273.3,409.2,211,346.9,211,270c0-76.9,62.3-139.3,139.2-139.3
		C427.1,130.7,489.4,193.1,489.4,270z"/>
</g>
</svg>
