<?xml version="1.0" encoding="utf-8"?>
<!-- Generator: Adobe Illustrator 24.0.1, SVG Export Plug-In . SVG Version: 6.00 Build 0)  -->
<svg version="1.1" id="Layer_1" xmlns="http://www.w3.org/2000/svg" xmlns:xlink="http://www.w3.org/1999/xlink" x="0px" y="0px"
	 viewBox="0 0 1024 1024" style="enable-background:new 0 0 1024 1024;" xml:space="preserve">
<style type="text/css">
	.st0{fill:#FFFFFF;}
</style>
<g>
	<path class="st0" d="M1005.9,730.8L963,716.7c-0.2,12-4.4,23-11.3,31.8l32.3,10.6l0,3.4l-498,72.6L40,768.8v-6L65.5,752
		c-8.2-8.5-13.5-19.6-14.6-31.8l-35.2,15C9.2,737.9,5,744.2,5,751.2v32.5c0,8.5,6.3,15.8,14.7,17.1l463.1,68.9
		c0.8,0.1,1.7,0.2,2.5,0.2c0.8,0,1.7-0.1,2.5-0.2l515.3-75.2c8.6-1.3,14.9-8.7,14.8-17.3l-0.5-30.5
		C1017.4,739.4,1012.8,733,1005.9,730.8z"/>
	<path class="st0" d="M911.7,279.5l-42.2-6.4C868,216.6,808,164,729,155.8c-11.1-1.1-21.6-1.7-31.4-1.7
		c-90.6,0-130.3,45.1-141.8,71.6l-49.3-7.4c-3.6-1-6.5-1.4-9.3-1.4c-4.2,0-8.1,0.8-13.4,1.7c-96,15.4-383.8,62.1-383.8,62.1
		c-8.6,1.4-15,8.8-15,17.5v417.3c0,8.9,6.6,16.5,15.5,17.6l381.8,48.9c7.2,1.1,11.8,1.7,16.4,1.7c3.7,0,7.4-0.3,12.3-0.9l400.7-48.4
		c9.3-1.1,16.3-9.2,16.3-18.9V298.3C928,288.6,921,280.5,911.7,279.5z M478,747.1l-359-45.9V312.3l359-57.5V747.1z M599.8,221.6
		c25.9-26.3,72.9-38.6,124.5-32.2c61.4,7.7,110.2,44.9,111,84.8c0.8,38.7-45.9,71.7-106.5,75.2c-3.8,0.2-7.6,0.3-11.4,0.3
		c-73.2,0-135.6-39.8-136.2-86.8C581.1,248.6,587.7,233.9,599.8,221.6z M702,712l-152,16.1V480.8l152,8.1V712z M864,694.5L737,708
		V491.1l127,6.8V694.5z M873,465.9l-313.5-16.7L533,421.7v-44.8l311.8,24.9L873,437V465.9z"/>
	<polygon class="st0" points="158,672.5 265,685.9 265,491 158,497 	"/>
	<polygon class="st0" points="300,690.3 425,705.9 425.6,482 300,489.1 	"/>
	<path class="st0" d="M762.4,622.9c6.6,0,11.9-5.3,11.9-11.9c0-6.5-5.3-11.9-11.9-11.9c-6.5,0-11.9,5.3-11.9,11.9
		C750.5,617.6,755.8,622.9,762.4,622.9z"/>
	<path class="st0" d="M677.7,627.3c6.5,0,11.8-5.3,11.8-11.9s-5.3-11.8-11.8-11.8c-6.6,0-11.9,5.3-11.9,11.8
		S671.2,627.3,677.7,627.3z"/>
	<polygon class="st0" points="144,437.9 144,466.7 412.5,450.5 439,423.1 439,378.3 172.2,402.7 	"/>
</g>
</svg>
