<?xml version="1.0" encoding="utf-8"?>
<!-- Generator: Adobe Illustrator 24.0.1, SVG Export Plug-In . SVG Version: 6.00 Build 0)  -->
<svg version="1.1" id="Layer_1" xmlns="http://www.w3.org/2000/svg" xmlns:xlink="http://www.w3.org/1999/xlink" x="0px" y="0px"
	 viewBox="0 0 1024 1024" style="enable-background:new 0 0 1024 1024;" xml:space="preserve">
<style type="text/css">
	.st0{fill:#FFFFFF;}
</style>
<g>
	<path class="st0" d="M599.9,422.9c-26.5-9.4-51.7-20.6-75-33L449.1,602c-2.5,6.9-9,11.2-15.9,11.2c-2.4,0-4.8-0.5-7.2-1.6
		c-8-3.7-11.6-13.1-8.6-21.3l77.7-217.5c-13.4-8.5-25.7-17.4-37-26.5l-84,236.8c-4.8,13.4-2.7,35.4,34.1,63.5
		c19.8,15.1,46.5,29.6,76.5,41.7c-15.4,30.3-35.1,53.4-54.4,70.6L422,706c-1-6.4-5.6-11.6-11.7-13.5c-6.2-1.9-12.9-0.1-17.3,4.6
		l-45.7,49.1L281,735.8c-6.4-1.1-12.8,1.7-16.5,7c-3.7,5.3-4.1,12.2-0.9,17.9l32.6,58.6l-30.5,59.8c-2.9,5.7-2.3,12.7,1.6,17.8
		c3.9,5.1,10.3,7.6,16.7,6.4l65.9-12.9l47.5,47.4c3.2,3.2,7.5,4.9,11.9,4.9c1.8,0,3.7-0.3,5.5-0.9c6.1-2.1,10.5-7.5,11.2-13.9
		l8.1-66.6l59.8-30.5c5.8-2.9,9.3-8.9,9.2-15.3c-0.1-6.5-3.9-12.3-9.8-15l-38.7-18c22.3-20.2,45-47.4,62.3-82.9
		c27.9,8.9,54.7,14.6,78.3,16.5L487.1,1020h35.8l108.3-304c28.2-3.8,39.1-16.1,42.9-26.7L758,452.5c-0.3,0-0.5,0-0.7,0
		C709.1,452.6,654.7,442.3,599.9,422.9z M352.2,855.8l-40.7,7.9l18.8-37c2.5-5,2.4-11-0.3-15.9L310,774.8l40.9,6.5
		c5.6,0.9,11.2-1.1,15-5.2l28.2-30.3l6.5,41c0.9,5.6,4.5,10.3,9.6,12.7l37.5,17.4l-36.9,18.8c-5,2.5-8.4,7.4-9.1,13l-5,41.1
		l-29.3-29.3C363.7,856.8,357.9,854.4,352.2,855.8z"/>
	<path class="st0" d="M758.3,15.8c-1.6-5-5.5-8.9-10.4-10.7C743,3.4,737.5,4,733.1,6.9L434.3,200.4c-3.1,2-5.5,5-6.7,8.5
		c-10.5,29.7,4.8,65.1,43.1,99.9c34.6,31.3,84.9,59.6,141.6,79.7c50.1,17.7,101.6,27.5,145,27.5c0,0,0,0,0,0
		c60.3,0,99.9-18.1,111.5-50.9c1.2-3.5,1.3-7.3,0.1-10.9L758.3,15.8z M757.2,381.9c-39.6,0-87.1-9.1-133.7-25.6
		c-52.6-18.6-98.9-44.5-130.2-72.9c-24.1-21.8-36.8-43.3-35.1-58.7L733,46.8L834.7,358C825.2,372.9,796.4,381.9,757.2,381.9z"/>
	<path class="st0" d="M722.5,125.9c7.6-5.4,9.4-15.9,4-23.5c-5.4-7.6-15.9-9.4-23.5-4L507.9,236.2c-7.6,5.4-9.4,15.9-4,23.5
		c3.3,4.6,8.5,7.1,13.8,7.1c3.4,0,6.8-1,9.7-3.1L722.5,125.9z"/>
	<path class="st0" d="M330.9,726.3c1.3,0,2.6-0.2,3.9-0.6c7.1-2.2,11.2-9.7,9-16.8l-17.2-56.7c-2.2-7.1-9.7-11.2-16.8-9
		c-7.1,2.2-11.2,9.7-9,16.8l17.2,56.7C319.8,722.5,325.1,726.3,330.9,726.3z"/>
	<path class="st0" d="M256.7,807.5l-89.8,6.1c-7.4,0.5-13.1,6.9-12.6,14.4c0.5,7.1,6.4,12.6,13.5,12.6l90.8-6.1
		c7.4-0.5,13.1-6.9,12.6-14.4C270.6,812.6,264.5,807.3,256.7,807.5z"/>
	<path class="st0" d="M342.3,913.4c-7.1-2.4-14.7,1.3-17.2,8.3L301,991.5c-2.4,7.1,1.3,14.7,8.3,17.2c1.5,0.5,3,0.7,4.4,0.7
		c5.6,0,10.8-3.5,12.8-9.1l24.1-69.8C353.1,923.5,349.3,915.8,342.3,913.4z"/>
</g>
</svg>
