<?xml version="1.0" encoding="utf-8"?>
<!-- Generator: Adobe Illustrator 24.0.1, SVG Export Plug-In . SVG Version: 6.00 Build 0)  -->
<svg version="1.1" id="Layer_1" xmlns="http://www.w3.org/2000/svg" xmlns:xlink="http://www.w3.org/1999/xlink" x="0px" y="0px"
	 viewBox="0 0 1024 1024" style="enable-background:new 0 0 1024 1024;" xml:space="preserve">
<style type="text/css">
	.st0{fill:#FFFFFF;}
</style>
<g>
	<path class="st0" d="M647.2,926.3L882,964.9c7.5,1.3,10.3,0,15.1-3.2l57.8-38.7c4.8-3.2,7.4-8.9,6.7-14.6l-30.3-252.9l-0.3,0
		c-0.8-6.7-5.6-12.3-12.5-13.4l-46.5-7.6c-1.5,9.6-5,19.5-11.2,29.4l38.5,6.3l-26.1,262.1l-206.6-33.9l24.3-243.8
		c-9.6-5.1-19.5-10.4-29.4-15.7l-27,270.9C633.6,917.7,639.2,925,647.2,926.3z M917.4,798.3l12.5,104.2L905.4,919L917.4,798.3z"/>
	<path class="st0" d="M791.3,740.7c-36.6-5.9-69.9,12.4-74.6,40.9c-4.6,28.6,21.2,56.5,57.8,62.5c36.6,5.9,69.9-12.4,74.5-41
		C853.7,774.6,827.8,746.6,791.3,740.7z"/>
	<path class="st0" d="M102.4,826.9c64.4,0,248.8-5.4,248.8-5.4c11.2,0.1,23.7-8.3,29.7-17.8c6.8-10.9,18.2-28.1,18.2-28.1l-88-120.7
		l-25.4,58.3c0,0-144.3,13.1-191.9,21.2c-17,2.9-32.9,21.5-31.6,46.7C64.2,818.1,90.2,826.9,102.4,826.9z"/>
	<path class="st0" d="M584.4,540.4c0.9,7.7,4.5,18,12.1,22.6c50.1,30.7,188.2,102,188.2,102c14.3,6.8,36.4-2.5,46.8-18.9
		c15.8-24.8,6.3-43.3-3.2-50.7C792.8,567.9,691,488.5,691,488.5s-0.5-106.7-1.8-148.6c-1.7-51.5-63.2-100.9-104.5-101.5
		c-59.6-0.8-238.4-6.1-238.4-6.1c-18.1,0-29,12-39.7,24.8c0,0-80.7,97.4-105,131.8c-8,11.3-11.9,33.3,13.7,53.5
		c22.1,17.4,42.1,9.1,49.2,1.8C292,415.9,374,331.5,374,331.5l95.3,24.2L362.9,496.2c-14.7,24.9-43.5,73.6-19.8,114.3l123.4,169.5
		c0,0-39.7,141.6-52.2,192.9c-3.3,13.5,4.9,34.5,33.7,44.1c20.8,7,49.1,2.5,55.7-15.5c22.7-61.9,90.6-247.7,90.6-247.7
		c4.1-10.4,1.7-25.8-5.4-34.4l-89.5-129.9l81.1-95.2L584.4,540.4z"/>
	<path class="st0" d="M744.7,277.5c59.5,0,108-46.2,112.1-104.6l62,8.9c7.8,1.2,16.6-5.3,17.4-13.1c0.9-8.5-4.6-16.2-13.1-17.4
		l-61.9-8.9c2.7-28.6-1.3-54.2-11.9-74.5c-11-21-28.9-36.1-52.4-44.4c-2.4-9.6-9-17.3-22.3-19.2c-13.7-2-24.4,3.4-30.8,12
		c-24.6,1.5-47,9.8-65.8,24.9c-22.1,17.7-37,43.3-42.6,72.3c-4,2.3-7.1,6.1-7.8,11.1c-0.9,6.4,2.3,12.4,7.6,15.5
		c-1.8,8-2.9,16.4-2.9,25C632.3,227.1,682.6,277.5,744.7,277.5z M697.3,65.2C716.4,49.9,740.9,44,768.3,48
		c25.7,3.8,43.8,15.3,53.6,34.2c7.6,14.6,10.3,33.8,8.4,55.8L667,114.6C671.9,94.8,682.2,77.4,697.3,65.2z"/>
</g>
</svg>
