<?xml version="1.0" encoding="utf-8"?>
<!-- Generator: Adobe Illustrator 24.0.1, SVG Export Plug-In . SVG Version: 6.00 Build 0)  -->
<svg version="1.1" id="Layer_1" xmlns="http://www.w3.org/2000/svg" xmlns:xlink="http://www.w3.org/1999/xlink" x="0px" y="0px"
	 viewBox="0 0 1024 1024" style="enable-background:new 0 0 1024 1024;" xml:space="preserve">
<style type="text/css">
	.st0{fill:#FFFFFF;}
</style>
<g>
	<path class="st0" d="M891.3,584.2c18.5,40.2-6.4,89.9-6.4,89.9c-35.5-96-85.8-157-85.8-157c17.1,99.7-23.8,167.5-23.8,167.5
		s-23-27.1-7.7-74.6c-61.8,49.7-84,106.7-67,176.1H896c14.9-20.1,25.4-44.7,29-76.7c12.1,30,12.2,55.6,5.3,76.7h30.2
		C984.9,725.9,971.8,654,891.3,584.2z"/>
	<path class="st0" d="M340.9,402.8c84.9,0,153.7-68.8,153.7-153.7c0-84.9-68.8-153.7-153.7-153.7c-84.9,0-153.7,68.8-153.7,153.7
		C187.3,334,256.1,402.8,340.9,402.8z"/>
	<path class="st0" d="M616.5,853h47.8c17,36.5,55.3,66.5,85.9,76h175.6c48.7-10.3,81.8-58.6,89.3-101c0.3-2-0.2-4-1.5-5.6
		c-1.3-1.6-3.2-2.4-5.3-2.4H610.7c-4.7-10.3-13-19.1-27.1-23.9l-167.9-49.7l-41.5-199.7c-12.1-82.9-81.3-124.3-150.3-124.3
		c-103.4,0-177.4,71.1-186.2,158.9L10.5,919H301l-0.1-20.3c-23.7-12.4-45.4-39.1-58.4-77.5c-15.9-47.1-41.6-125-55.2-173.3
		l39.7-11.4c16.9,47.8,47.9,137.1,64.9,182.4c11,29.2,30.3,50.7,60.9,56.2l195.8,26.2C579.9,906.4,612.1,896.2,616.5,853z"/>
</g>
</svg>
