<svg xmlns="http://www.w3.org/2000/svg" viewBox="0 0 996.31 212.18"><title>glowstik_logo_final_bubble_pico</title><path d="M127.84,148.93q0,26.5-18.62,44.88t-45.3,18.37H43.29a20.81,20.81,0,0,1-15.23-6.11A21.26,21.26,0,0,1,28.21,176a20.75,20.75,0,0,1,15.16-6.24H64.09a20.27,20.27,0,0,0,14.78-6.14A19.87,19.87,0,0,0,85.06,149V106.15a20.85,20.85,0,0,0-21-21A20.67,20.67,0,0,0,49,91.24a20.1,20.1,0,0,0-6.2,14.85q0,5.23,5.41,14t5.41,14a20.36,20.36,0,0,1-6.29,15,20.68,20.68,0,0,1-15.1,6.24q-14.59,0-24.16-18a65,65,0,0,1-8-31.2Q0,79.63,18.62,61.16t45.3-18.47q26.67,0,45.3,18.5t18.62,45Z" style="fill:#ed2290"/><path d="M179.94,148.28a20.33,20.33,0,0,1-6.29,15,21.37,21.37,0,0,1-30.2,0,20.31,20.31,0,0,1-6.3-15V21.22a20.34,20.34,0,0,1,6.3-15,21.39,21.39,0,0,1,30.2,0,20.37,20.37,0,0,1,6.29,15Z" style="fill:#ed2290"/><path d="M317.59,106q0,26.5-18.49,45T253.92,169.5q-26.67,0-45.3-18.51T190,106q0-26.52,18.62-44.9t45.3-18.38q26.67,0,45.18,18.38T317.59,106Zm-42.78,0a21.05,21.05,0,0,0-20.89-20.85,20.61,20.61,0,0,0-15,6A19.89,19.89,0,0,0,232.78,106a21,21,0,0,0,21.14,21.09,20,20,0,0,0,14.85-6.15A20.55,20.55,0,0,0,274.81,106Z" style="fill:#ed2290"/><path d="M537.8,106.09q0,26.46-18.63,44.93t-45.3,18.48a62.31,62.31,0,0,1-42.53-16.23,61.38,61.38,0,0,1-42.28,16.23q-26.67,0-45.3-18.48t-18.62-44.93V63.9a20.4,20.4,0,0,1,6.17-15.1,22,22,0,0,1,30.45,0,20.43,20.43,0,0,1,6.16,15.1v42.19a20.07,20.07,0,0,0,6.2,14.85,20.67,20.67,0,0,0,15.07,6.12,20.81,20.81,0,0,0,21-21V64.15a21.42,21.42,0,0,1,36.53-15.22,20.4,20.4,0,0,1,6.26,15v42.19a20.31,20.31,0,0,0,6,14.85,20,20,0,0,0,14.84,6.12,20.5,20.5,0,0,0,15-6.12A20.11,20.11,0,0,0,495,106.09V63.9a20.35,20.35,0,0,1,6.29-15,21.39,21.39,0,0,1,30.2,0,20.32,20.32,0,0,1,6.3,15Z" style="fill:#ed2290"/><path d="M676.46,63.9a20.36,20.36,0,0,1-6.29,15,20.69,20.69,0,0,1-15.1,6.24h-45.8q-9.82,0-15.61,7.24-4.27,6.74-8.55,13.23-5.8,7.25-15.86,7.24a20.68,20.68,0,0,1-15.1-6.24,20.36,20.36,0,0,1-6.29-15,22.67,22.67,0,0,1,1.26-7.24q6.28-18.47,23.28-30.08a64.08,64.08,0,0,1,36.87-11.6h45.8a20.69,20.69,0,0,1,15.1,6.24A20.35,20.35,0,0,1,676.46,63.9Zm-.25,56.67a22.67,22.67,0,0,1-1.26,7.24q-6.3,18.47-23.15,30.08a63.49,63.49,0,0,1-36.75,11.61h-45.8a20.65,20.65,0,0,1-15.1-6.25,21,21,0,0,1,0-29.95,20.68,20.68,0,0,1,15.1-6.24h45.8q10.07,0,15.35-7.24,1-1.5,8.81-13.23,5.79-7.23,15.61-7.24A20.75,20.75,0,0,1,670,105.47,20.44,20.44,0,0,1,676.21,120.57Z" style="fill:#ed2290"/><path d="M811.6,148.28a20.33,20.33,0,0,1-6.29,15,20.66,20.66,0,0,1-15.1,6.25H747.93q-26.68,0-45.3-18.5T684,106V21.25a20.31,20.31,0,0,1,6.25-15.12A21,21,0,0,1,705.52,0a20.4,20.4,0,0,1,15,6.28,20.57,20.57,0,0,1,6.26,15.06V42.69h63.36a20.78,20.78,0,0,1,15.14,6.24,20.95,20.95,0,0,1,0,29.95,20.69,20.69,0,0,1-15.1,6.24H726.79v21A20.08,20.08,0,0,0,733,120.94a20.43,20.43,0,0,0,15,6.12h42.28a20.69,20.69,0,0,1,15.1,6.24A20.36,20.36,0,0,1,811.6,148.28Z" style="fill:#ed2290"/><path d="M860.42,21.22a20.36,20.36,0,0,1-6.29,15,21.39,21.39,0,0,1-30.2,0,20.32,20.32,0,0,1-6.29-15,20.33,20.33,0,0,1,6.29-15,21.39,21.39,0,0,1,30.2,0A20.37,20.37,0,0,1,860.42,21.22Zm0,127.06a20.33,20.33,0,0,1-6.29,15,21.37,21.37,0,0,1-30.2,0,20.3,20.3,0,0,1-6.29-15V79.38a20.33,20.33,0,0,1,6.29-15,21.39,21.39,0,0,1,30.2,0,20.37,20.37,0,0,1,6.29,15Z" style="fill:#ed2290"/><path d="M996.31,64.45q0,28-21.34,47l17.51,24.37A21.41,21.41,0,0,1,990,163.22a20.64,20.64,0,0,1-15.1,6.28q-11.07,0-17.61-9.3l-22.9-32.64h-21.9v20.72a20.33,20.33,0,0,1-6.29,15,21.37,21.37,0,0,1-30.2,0,20.38,20.38,0,0,1-6.29-15v-127a20.38,20.38,0,0,1,6.29-15,21.35,21.35,0,0,1,30.2,0,20.44,20.44,0,0,1,6.29,15V85.12h19.88q13.33,0,18.12-11,3-10,6.29-20.22,4.79-10.72,18.12-10.73A20.65,20.65,0,0,1,990,49.44,20.38,20.38,0,0,1,996.31,64.45Z" style="fill:#ed2290"/></svg>