<?xml version="1.0" encoding="utf-8"?>
<!-- Generator: Adobe Illustrator 24.0.1, SVG Export Plug-In . SVG Version: 6.00 Build 0)  -->
<svg version="1.1" id="Layer_1" xmlns="http://www.w3.org/2000/svg" xmlns:xlink="http://www.w3.org/1999/xlink" x="0px" y="0px"
	 viewBox="0 0 1024 1024" style="enable-background:new 0 0 1024 1024;" xml:space="preserve">
<style type="text/css">
	.st0{fill:#FFFFFF;}
</style>
<g>
	<path class="st0" d="M461.6,705.1c-22.9-1.3-44.9-3.3-65.5-6.2c-8.2-1.1-15.8,4.6-16.9,12.8c-1.1,8.2,4.6,15.7,12.8,16.9
		c21.4,3,45.1,5.2,68.8,6.5c7.9,0,14.5-6.2,14.9-14.1C476.2,712.6,469.8,705.5,461.6,705.1z"/>
	<path class="st0" d="M710.4,680.2c-41.5,14.6-104.7,24-173.2,25.8c-8.3,0.2-14.8,7.1-14.5,15.4c0.2,8.1,6.9,14.6,14.9,14.6
		c71.5-1.9,138.4-12,182.7-27.5c41.5-14.6,62.5-33.3,62.5-55.8c0-25.7-28.2-45.2-71-58.8v31.7c26.9,9.5,41.1,19.7,41.1,27.1
		C752.9,657,744,668.4,710.4,680.2z"/>
	<path class="st0" d="M321.1,683c-41.6-13.1-50.8-26.3-50.8-30.3c0-7.4,14.1-17.5,40.9-27.1v-31.7c-42.7,13.7-70.9,33.1-70.9,58.8
		c0,24.1,24.1,43.9,71.7,58.8c7.9,2.4,16.3-1.9,18.7-9.8C333.4,693.8,329,685.4,321.1,683z"/>
	<path class="st0" d="M761.9,518.6L735,542.7c128.7,27.8,206.4,77.7,206.4,125.5c0,71.2-172.5,147.4-429.4,147.4
		c-256.9,0-429.4-76.2-429.4-147.4c0-47.7,77.7-97.7,206.3-125.5l-26.8-24.1c-126.8,31.2-209.4,86-209.4,149.6
		c0,99.5,201.8,177.4,459.3,177.4c257.6,0,459.3-77.9,459.3-177.4C971.3,604.6,888.7,549.8,761.9,518.6z"/>
	<path class="st0" d="M200.1,394c-1.6,15,3.4,29.9,13.8,40.9l157.7,131v74.9c0,0,50.7,15.4,140.5,15.4c97.1,0,140.3-15.4,140.3-15.4
		v-74.9l157.9-131c10.4-10.9,15.4-25.9,13.8-40.9c-1.6-15-9.7-28.5-22.2-37L643.5,256.2c3.1,11.5,4.9,23.6,4.9,36.1
		c0,25.2-6.8,48.8-18.4,69.3l56.5,50.1c-25.5,20.8-132,24-178.9,24c-48.9,0-142.7-5.4-169.9-24l51.1-45.7
		c-13.3-21.4-21.1-46.6-21.1-73.6c0-10.3,1.2-20.2,3.3-29.9l-148.8,94.7C209.8,365.6,201.7,379.1,200.1,394z"/>
	
		<ellipse transform="matrix(0.9239 -0.3827 0.3827 0.9239 -73.1882 216.6356)" class="st0" cx="508" cy="292.3" rx="113.8" ry="113.8"/>
</g>
</svg>
