<?xml version="1.0" encoding="utf-8"?>
<!-- Generator: Adobe Illustrator 24.0.1, SVG Export Plug-In . SVG Version: 6.00 Build 0)  -->
<svg version="1.1" id="Layer_1" xmlns="http://www.w3.org/2000/svg" xmlns:xlink="http://www.w3.org/1999/xlink" x="0px" y="0px"
	 viewBox="0 0 1024 1024" style="enable-background:new 0 0 1024 1024;" xml:space="preserve">
<style type="text/css">
	.st0{fill:#FFFFFF;}
</style>
<g>
	<path class="st0" d="M427.3,635.6c0,59.6,109,127.1,109,127.1s109-70.7,109-127.1c0-33.3-27-60.3-60.3-60.3
		c-20,0-37.7,9.8-48.7,24.8c-11-15-28.6-24.8-48.7-24.8C454.3,575.2,427.3,602.3,427.3,635.6z"/>
	<path class="st0" d="M180.4,726h27l-11.8,123h169.3l22.6-178.1c7.3-73.5-59.4-165.7-159.8-165.7c-100.4,0-192.4,65.3-203.8,165.7
		L1.3,849h157.4L180.4,726z"/>
	<path class="st0" d="M343.3,499.7c85.6,0,155-69.4,155-155c0-85.6-69.4-155-155-155c-85.6,0-155,69.4-155,155
		C188.3,430.3,257.7,499.7,343.3,499.7z"/>
	<path class="st0" d="M676.6,682.6L696.9,849h119.6l-11.8-123h27.7L854,849h168.3l-20.2-166.4c-10.2-92.7-92.5-153-182.4-153
		C729.9,529.6,670.1,614.7,676.6,682.6z"/>
	<path class="st0" d="M720.1,232.7c-80.5,0-145.8,65.3-145.8,145.8c0,80.6,65.3,145.8,145.8,145.8c80.6,0,145.9-65.3,145.9-145.8
		C866,298,800.7,232.7,720.1,232.7z"/>
</g>
</svg>
