<svg xmlns="http://www.w3.org/2000/svg" viewBox="0 0 1024.35 919.56"><title>match_idea</title><path d="M832.93,718.59l-61.58,32.83L697.3,681.16A251.18,251.18,0,0,1,570.49,572.92a69.17,69.17,0,0,1-4.61,23.63c-1,2.44-11.52,28.8-35.7,62.28A332.31,332.31,0,0,0,679,762.44V974H880V844.82c48.84,48.4,59.19,106.83,61.35,129.18h82.84C1020.77,900.58,976,775.27,832.93,718.59Z" transform="translate(0.17 -54.44)" style="fill:#fff"/><path d="M779.41,685.67a88.31,88.31,0,1,0-88.31-88.3A88.3,88.3,0,0,0,779.41,685.67Z" transform="translate(0.17 -54.44)" style="fill:#fff"/><path d="M144,844.84V974H345V762.44c142.85-49.57,191.6-170.62,193.84-176.38A41.26,41.26,0,0,0,462,556c-1.63,4.1-36.6,87.69-137,125.9l-72.3,68.61-60.52-32.32C48.22,774.65,3.25,900.41-.17,974H82.68C84.87,951.41,95.28,893.13,144,844.84Z" transform="translate(0.17 -54.44)" style="fill:#fff"/><path d="M244.59,509.05a88.31,88.31,0,1,0,88.31,88.32A88.32,88.32,0,0,0,244.59,509.05Z" transform="translate(0.17 -54.44)" style="fill:#fff"/><path d="M380.82,261.86c0,24.21,8.91,51.23,26.2,79.87,19,34.22,21,39.85,24.1,51.08,2.2,8.08,2.2,11.11,2.2,12.92,0,29.13,18.23,32.27,26.07,32.27h115.3a25.35,25.35,0,0,0,19.15-8.41c5.19-5.79,7.64-13.78,6.94-22.63a139.57,139.57,0,0,1,2.4-15.12c2.75-12.45,9.36-26.35,23.58-49.54,17.5-28.53,26.15-54.6,26.43-79.69.34-36.65-14.51-73.71-39.71-99.15C589,138.78,555.66,125.72,517,125.72,441.92,125.72,380.82,186.78,380.82,261.86ZM517,155c31.14,0,56.63,9.79,75.77,29.11,23.36,23.58,31.47,55.93,31.26,78.32-.22,19.65-7.47,40.83-22.13,64.76-13.4,21.85-23.15,40.16-27.2,58.51-1.31,5.95-3.11,16.83-3.11,21.8l.08,1.47H462.59c-.07-.82-.12-1.85-.12-3.11,0-4.55-.39-10.18-3.22-20.58-4-14.79-7.19-22.37-27-58C417.67,303.14,410,280.56,410,262A107.13,107.13,0,0,1,517,155Z" transform="translate(0.17 -54.44)" style="fill:#fff"/><path d="M448.54,275.89a13,13,0,0,0,13-13,59.24,59.24,0,0,1,59.17-59.18,13,13,0,0,0,0-25.92,85.19,85.19,0,0,0-85.09,85.1A13,13,0,0,0,448.54,275.89Z" transform="translate(0.17 -54.44)" style="fill:#fff"/><path d="M582.63,108.84a12.94,12.94,0,0,0,12-7.94l11.66-27.83a13,13,0,1,0-23.9-10L570.68,90.88a13,13,0,0,0,7,17A12.79,12.79,0,0,0,582.63,108.84Z" transform="translate(0.17 -54.44)" style="fill:#fff"/><path d="M452.7,108.3a12.94,12.94,0,0,0,12-17.87L453.23,62.49a13,13,0,1,0-24,9.82l11.45,27.94A12.94,12.94,0,0,0,452.7,108.3Z" transform="translate(0.17 -54.44)" style="fill:#fff"/><path d="M365.45,174.91,337.6,163.22a13,13,0,0,0-10,23.89l27.85,11.69a12.75,12.75,0,0,0,5,1,13,13,0,0,0,5-24.9Z" transform="translate(0.17 -54.44)" style="fill:#fff"/><path d="M668.56,330.06l27.86,11.67a13,13,0,0,0,10-23.92l-27.86-11.67a13,13,0,0,0-10,23.92Z" transform="translate(0.17 -54.44)" style="fill:#fff"/><path d="M364.8,328.74a12.95,12.95,0,1,0-9.83-24L327,316.24A13,13,0,0,0,332,341.18a12.66,12.66,0,0,0,4.9-1Z" transform="translate(0.17 -54.44)" style="fill:#fff"/><path d="M674.11,201.1a12.89,12.89,0,0,0,4.91-1L707,188.7a13,13,0,0,0-9.82-24L669.2,176.15a13,13,0,0,0,4.91,24.95Z" transform="translate(0.17 -54.44)" style="fill:#fff"/><path d="M476,493.4c3.43,9.33,13.23,21.69,41.08,21.72s37.58-12.33,41-21.64c13.94-6.94,23.37-17.41,28-31.13a7.08,7.08,0,0,0-1-6.38,7.16,7.16,0,0,0-5.75-3H454.58a7.08,7.08,0,0,0-6.71,9.25C452.22,475.74,461.44,486,476,493.4Z" transform="translate(0.17 -54.44)" style="fill:#fff"/></svg>