<?xml version="1.0" encoding="utf-8"?>
<!-- Generator: Adobe Illustrator 24.0.1, SVG Export Plug-In . SVG Version: 6.00 Build 0)  -->
<svg version="1.1" id="Layer_1" xmlns="http://www.w3.org/2000/svg" xmlns:xlink="http://www.w3.org/1999/xlink" x="0px" y="0px"
	 viewBox="0 0 1024 1024" style="enable-background:new 0 0 1024 1024;" xml:space="preserve">
<style type="text/css">
	.st0{fill:#FFFFFF;}
</style>
<g>
	<g>
		<path class="st0" d="M510.6,532.8c19.9,2.8,29,8,33.3,11.9c12.4,11.3,5.7,44.6-32.4,44.6c-15.6,0-29-8-34.9-19.4h-61.3
			c5.8,31.3,32.4,56.8,67.7,65.9l0.1,26.1H540l0-26.6c18-4.7,33.9-13.7,45.8-25.5c20.4-19.2,40.1-66.8,1.6-103.1
			c-15.3-14.4-38.5-23.5-67.4-27.4c-26.8-3.8-36.4-10.9-41.3-15.4c-10.8-9.6-5.1-45.2,32.9-45.2c20.9,0,38,14.4,38,32.1l59.2,0
			c0-37-28.9-68.3-68.8-78.5V343h-57l0,29.4c-53.2,13.7-69,57.5-69,79.4c0,11.4,3.3,31.6,18.8,47.8
			C448.2,515.7,474.1,528,510.6,532.8z"/>
	</g>
	<g>
		<path class="st0" d="M570.2,808c-1.5,17.2-7.5,32.7-16.7,45.9c0.6,0,1.3-0.2,1.9-0.3c74-6.5,140.3-35.2,190.5-79.8l6.9,78.3h268.6
			l-25-290.1c-6.4-73.6-71.5-128.7-145.1-122.4c-59.3,8-109.7,41.6-122.4,132.6c-14.2,101.3-84.5,162-176.3,172.5
			C565.5,762.4,572.3,784.5,570.2,808z"/>
	</g>
	<g>
		<path class="st0" d="M809.3,414.5c67.3-5.9,117.1-65.3,111.2-132.6c-5.9-67.3-65.2-117.1-132.6-111.2
			c-67.3,5.9-117.1,65.2-111.2,132.6C682.6,370.6,742,420.4,809.3,414.5z"/>
	</g>
	<g>
		<path class="st0" d="M276.1,821.6c-47.5-35-84.2-81-105.7-136.8L207,671c42.5,103.9,143.2,172.5,264.3,183
			c32.6,2.1,56.6-21.1,59.1-49.5c2.6-30-19.6-56.4-49.6-59c-95.8-8.4-170.2-70.4-183.4-175.7C289,502.9,244,445.5,175.3,439.5
			c-77.4-6.8-138.8,50.8-144.9,120.4L2.5,852h270.8L276.1,821.6z"/>
	</g>
	<g>
		<path class="st0" d="M238.8,414.5c67.3-5.9,117.1-65.3,111.2-132.6c-5.9-67.3-65.2-117.1-132.6-111.2
			c-67.3,5.9-117.1,65.2-111.2,132.6C112.1,370.6,171.5,420.4,238.8,414.5z"/>
	</g>
</g>
</svg>
