<?xml version="1.0" encoding="utf-8"?>
<!-- Generator: Adobe Illustrator 24.0.1, SVG Export Plug-In . SVG Version: 6.00 Build 0)  -->
<svg version="1.1" id="Layer_1" xmlns="http://www.w3.org/2000/svg" xmlns:xlink="http://www.w3.org/1999/xlink" x="0px" y="0px"
	 viewBox="0 0 1024 1024" style="enable-background:new 0 0 1024 1024;" xml:space="preserve">
<style type="text/css">
	.st0{fill:#FFFFFF;}
</style>
<g>
	<path class="st0" d="M167,584.4l-23,201c27.8-27.8,64-51.7,104.2-72.5l76.2-225.4l-34.2-75.4l24.1-2.4L209.7,234.9l-43.1,141.6
		l17.6-1.5l-47.4,212.8L167,584.4z"/>
	<path class="st0" d="M487.2,621.3c56.1-17.8,104.5-33.1,131.8-47.7c3.5-1.9,6.4-3.6,8.8-5.3l-42.4-101.9l29-2.2l-66.8-175.5h23
		L478.5,53.5l-74.3,167.8h20l-89,253.8l34,0.2l-71.2,213.6C361.2,661.4,429.2,639.8,487.2,621.3z"/>
	<path class="st0" d="M744,687.5c-74.9,63.4-107.7,112.7-106.5,159.9c1.1,40,27.2,78,82.2,119.7c2.4,1.8,5.3,2.7,8.1,2.7
		c4,0,8.1-1.8,10.7-5.3c4.5-5.9,3.3-14.3-2.6-18.8c-48-36.4-70.8-67.9-71.6-99.1c-1-37.7,29.8-81.8,97-138.7
		c47-39.8,67.1-77.7,59.8-112.9c-2.1-10.2-6.4-19.2-12.1-27.3c27.2,15.3,51.5,38.9,55.3,75.2c2.6,24.5-17.9,51.4-39.7,79.9
		c-23.8,31.3-50.9,66.8-52.9,107.8c-3.7,73.6,97.7,99.9,102,100.8c7.7,1.5,14.5-3.1,16.2-9.8c1.8-7.2-2.6-14.5-9.7-16.3
		c-0.9-0.2-84.3-21.8-81.8-73.4c1.6-32.7,24.9-63.3,47.5-92.8c25.1-32.9,48.7-63.9,45-99c-11.7-110.1-158.1-125.3-164.3-126
		c-1-0.1-9.5,1-12.1,5.8c-2.5,4.7-5.2,16.5,7,20.4c17.9,5.7,66.2,26.7,73.2,60.2C801.3,631.5,770.8,664.9,744,687.5z"/>
	<path class="st0" d="M138.9,958.6c2.1,9.4,10.3,11.8,16.1,10.9c7.3-1.1,11.8-8.7,10.2-16c-33.5-153.3,191-226.8,354.8-280.6
		c55-18,102.4-33.6,132.4-49.6c26-13.9,40-30.5,41.4-49.2c0.3-4.2-0.2-8.1-0.9-11.9c-3.8-18.4-18.7-30.4-20.7-31.9
		c-5.9-4.5-14.3-3.3-18.8,2.6c-4.5,5.9-3.3,14.3,2.6,18.8c0.1,0.1,11.9,9.6,11.1,20.3c-0.7,8.8-10.4,18.6-27.4,27.7
		c-27.9,14.9-74.4,30.2-128.1,47.8C338.4,704.4,100.5,782.3,138.9,958.6z"/>
</g>
</svg>
