<svg xmlns="http://www.w3.org/2000/svg" viewBox="0 0 1018.14 717.98"><title>mountain_climbing_man</title><path d="M725.38,188.64a86.73,86.73,0,0,0-156.8,51.19c0,85.76,156.8,182.76,156.8,182.76S882.2,320.87,882.2,239.83a86.74,86.74,0,0,0-156.82-51.19Z" transform="translate(-3.06 -153.02)" style="fill:#fff"/><path d="M771.77,479.77,98.79,870h167L413.53,754.87,363.61,871H793.4L758.87,613.53,902.8,871h118.4L799,493.33C794.29,484,782,477.87,771.77,479.77Z" transform="translate(-3.06 -153.02)" style="fill:#fff"/><path d="M263,290a65.41,65.41,0,1,0-72.3-57.74A65.43,65.43,0,0,0,263,290Z" transform="translate(-3.06 -153.02)" style="fill:#fff"/><path d="M116.25,777.76c8,2.68,24.08,1.65,31.47-15.57,7-16.43,34.32-111.53,34.32-111.53s1.76-35.18,1.47-65.09l-74.6-25.87,6.51,82.64s-14.13,82.34-17.32,99.94C94.69,761.28,103.82,773.55,116.25,777.76Z" transform="translate(-3.06 -153.02)" style="fill:#fff"/><path d="M136.9,375.75C124.4,414.33,108,452.9,99.32,485.27c-3.6,13.56-2.3,38,26.11,49.78,35.16,14.56,132.65,41.14,132.65,41.14l16.19,97.3c1.79,10.56,10.25,26.26,34.79,23.51,19.67-2.18,27.51-19.06,26.05-37.33-2.39-31-10.84-109.31-12.61-121.11-.93-6.16-1-17.14-10.77-22.39-25-13.52-104.1-43.36-104.1-43.36L230.07,401l28.41,21.69c4.75,4.29,8.87,7.43,14.88,10L347,458.7c17,7.16,31.41,3.92,37.67-9.41,6.33-13.58.16-28-16.83-35.14l-61.47-29.21L244.22,313c-24.72-28.9-63-30.33-88.69-17.47,0,0-70.52,46.23-79.82,51.79C70,350.74,65.64,353.85,61.3,359L11.76,429.39C-.49,444,.38,463.9,13.25,472.92c12.34,8.67,28.77,6.33,39.08-6.16l48.56-58.61S128.66,382.54,136.9,375.75Z" transform="translate(-3.06 -153.02)" style="fill:#fff"/></svg>