<?xml version="1.0" encoding="utf-8"?>
<!-- Generator: Adobe Illustrator 24.2.0, SVG Export Plug-In . SVG Version: 6.00 Build 0)  -->
<svg version="1.1" id="Layer_1" xmlns="http://www.w3.org/2000/svg" xmlns:xlink="http://www.w3.org/1999/xlink" x="0px" y="0px"
	 viewBox="0 0 100 100" style="enable-background:new 0 0 100 100;" xml:space="preserve">
<style type="text/css">
	.st0{fill:#FFFFFF;}
</style>
<g>
	<path class="st0" d="M18.3,34.9c0.3-0.1,0.6-0.2,0.8-0.3l9.5-5.9c0.2-0.1,0.3-0.2,0.5-0.4V15.9h10.1v6.5L50,15.7l31.7,19.4
		l-5.2,8.5l-5.4-3.3c-0.1,0-0.1,0-0.2,0c0,0.1,0,0.1,0,0.1c0,8.5,0,17,0,25.3c-1.1,0.2-38,0.4-41.6,0.1c0,0,0,0,0-0.1
		c0-0.1,0-0.2,0-0.4c0-8.3,0-16.6,0-24.8c0-12.5,0,0-0.1-0.2l-5.7,3.3l-2.1-3.4c-0.9-1.5-1.9-2.9-2.7-4.4c-0.1-0.1-0.2-0.2-0.3-0.4
		V34.9z"/>
	<g>
		<path class="st0" d="M65.8,84.2l-0.7-0.1c-1.7-0.3-3.1-1.4-3.6-3c-0.4-1.1-0.5-2.3-0.3-3.5c0.1-0.7,0.4-1.4,0.7-2
			c0.7-1.1,1.8-1.9,3.2-2.2c1-0.2,2.1-0.2,3.1,0.2c1.3,0.4,2.4,1.4,2.9,2.6c0.8,1.7,0.7,3.6-0.1,5.3c-0.6,1.2-1.6,2.1-2.9,2.4
			c-0.4,0.1-0.7,0.1-1.1,0.2c0,0-0.1,0-0.1,0.1L65.8,84.2z M68.9,78.8c0-0.3,0-0.5,0-0.8c0-0.1,0-0.3-0.1-0.4
			c-0.3-1.2-1-1.9-2.1-2.1c-1-0.2-2.1,0.4-2.5,1.3c-0.5,1.1-0.5,2.4-0.1,3.6c0.4,1.4,1.6,1.9,3,1.5c0.8-0.2,1.4-0.8,1.6-1.5
			C68.8,79.9,68.9,79.4,68.9,78.8z"/>
		<path class="st0" d="M46.8,84.2C46.8,84.2,46.8,84.2,46.8,84.2l1.2-0.1c0,0,0,0,0,0.1H46.8z"/>
		<path class="st0" d="M27,84.2C27,84.2,27,84.2,27,84.2l1.1-0.1c0,0,0,0,0,0.1H27z"/>
		<path class="st0" d="M77.1,84.2C77.1,84.2,77.1,84.2,77.1,84.2l1.1-0.1v0.1H77.1z"/>
		<path class="st0" d="M55,84.2C55,84.2,55,84.2,55,84.2l-1,0.1c0,0,0,0,0-0.1H55z"/>
		<path class="st0" d="M13,70.3c1.8,3.2,3.6,6.3,5.5,9.4h0.1v-9.4H21v13.6h-3l-5.4-9.2h-0.1v9.1c-0.8,0.1-1.7,0.1-2.5,0V70.3
			L13,70.3L13,70.3z"/>
		<path class="st0" d="M55,84.2h-1c-1.4-0.1-2.6-0.9-3.3-2.1c-0.4-0.8-0.7-1.7-0.8-2.6c-0.1-0.8,0-1.5,0.2-2.3
			c0.2-0.9,0.6-1.8,1.3-2.5c0.7-0.7,1.6-1.2,2.6-1.3c0.8-0.1,1.7,0.1,2.4,0.4c0.3,0.2,0.6,0.4,0.8,0.6v-4.1c0.9-0.1,1.7-0.1,2.6,0
			v13.6h-2.5v-1C56.9,83.6,56,84.1,55,84.2z M52.7,78.8c0,0.6,0.1,1.3,0.3,1.8c0.5,1.2,1.8,1.7,2.9,1.3c0.3-0.1,0.6-0.3,0.8-0.6
			c0.2-0.3,0.4-0.6,0.5-1c0.3-0.9,0.3-1.8,0.1-2.7c-0.1-0.4-0.2-0.8-0.5-1.2c-0.4-0.6-1-1-1.8-1c-1-0.1-2,0.6-2.3,1.6
			C52.8,77.6,52.7,78.2,52.7,78.8z"/>
		<path class="st0" d="M28.1,84.2H27c-2.1-0.1-4-1.6-4.4-3.7c-0.4-1.4-0.3-2.8,0.2-4.2c0.5-1.5,1.9-2.6,3.5-2.8
			c0.9-0.2,1.8-0.1,2.6,0.1c1.3,0.4,2.3,1.3,2.8,2.5c0.5,1.1,0.6,2.2,0.6,3.4h-7.2c0.1,1,0.3,1.8,1.2,2.3c0.6,0.3,1.3,0.4,1.9,0.3
			c0.8-0.1,1.4-0.6,1.8-1.2c0-0.1,0.1-0.1,0.1-0.1l2.1,1.1C31.4,83.2,29.9,84.1,28.1,84.2z M25.1,77.6h4.5c0.1-1.2-0.8-2.2-1.9-2.3
			c-0.1,0-0.1,0-0.2,0C26.2,75.3,25.3,76,25.1,77.6z"/>
		<path class="st0" d="M78.2,84.2H77c-2.3-0.1-4.1-1.7-4.5-4c-0.3-1.1-0.2-2.3,0.2-3.4c0.5-1.8,2-3.1,3.8-3.3
			c1.2-0.3,2.5-0.1,3.7,0.5c1.2,0.6,2.1,1.7,2.5,3c0.4,1.4,0.4,2.8-0.1,4.1c-0.6,1.6-1.9,2.7-3.6,3C78.7,84.1,78.4,84.2,78.2,84.2z
			 M75.1,78.7c0,0.6,0.1,1.2,0.3,1.8c0.4,1.2,1.8,1.9,3.1,1.4c0.1,0,0.1,0,0.2-0.1c0.7-0.3,1.3-0.9,1.4-1.7c0.2-0.7,0.2-1.4,0.2-2.1
			c0-0.5-0.2-0.9-0.4-1.4c-0.2-0.5-0.7-1-1.3-1.2c-1.2-0.5-2.6,0.1-3.1,1.4c0,0,0,0.1,0,0.1C75.2,77.6,75.1,78.2,75.1,78.7
			L75.1,78.7z"/>
		<path class="st0" d="M32.8,73.6h2.9l1.9,3.1l1.9-3.1h2.7c-0.5,0.8-1,1.6-1.5,2.3l-1.5,2.4l3.6,5.6h-2.8l-2.4-4l-2.4,4h-2.8
			l3.5-5.5L32.8,73.6z"/>
		<path class="st0" d="M47.9,84.2h-1.2c-0.4,0-0.7-0.1-1-0.2c-0.9-0.3-1.5-1.1-1.5-2.1c0-0.4-0.1-0.7-0.1-1.1c0-1.6,0-3.3,0-4.9
			v-0.4h-1.4v-1.9h1.4V71c0.5,0,0.9,0,1.3,0h1.3v2.6c0.9,0,1.7,0,2.6,0v1.9h-2.5v0.3c0,1.6,0,3.3,0,4.9c0,0.2,0,0.4,0.1,0.6
			c0.1,0.3,0.3,0.5,0.6,0.6c0.2,0.1,0.5,0.1,0.7,0.1c0.5,0,0.9-0.1,1.4-0.2v2C49,84.1,48.5,84.2,47.9,84.2z"/>
		<path class="st0" d="M86.6,83.9H84V73.7h2.5V75l0.1,0l0.3-0.3c0.4-0.6,1-1,1.7-1.2c0.5-0.1,1-0.1,1.5,0V76c-0.3,0-0.5,0-0.8,0
			c-0.3,0-0.5,0.1-0.8,0.1c-0.9,0.2-1.5,0.9-1.7,1.8c-0.1,0.5-0.2,0.9-0.2,1.4L86.6,83.9L86.6,83.9z"/>
	</g>
</g>
</svg>
