<?xml version="1.0" encoding="UTF-8"?>
<svg width="1200pt" height="1200pt" version="1.1" viewBox="0 0 1200 1200" xmlns="http://www.w3.org/2000/svg">
 <path d="m1162.5 298.01c0-16.801-11.176-31.539-27.336-36.113l-349.99-98.551c-6.6758-1.8359-13.688-1.8359-20.363 0l-339.86 95.699-339.79-95.695c-11.363-3.1133-23.438-0.90234-32.812 6.2227-9.375 7.0898-14.852 18.152-14.852 29.887v702.49c0 16.801 11.176 31.539 27.336 36.113l349.99 98.551c6.6758 1.8359 13.688 1.8359 20.363 0l339.86-95.699 339.82 95.699c3.375 0.89844 6.7891 1.3867 10.164 1.3867 8.1016 0 16.051-2.5859 22.648-7.6133 9.3359-7.0508 14.812-18.113 14.812-29.848zm-700.01 28.426 275.02-77.438v624.56l-275.02 77.438zm-349.99-77.438 274.99 77.438v624.56l-274.99-77.398zm975 702-274.99-77.438v-624.56l274.99 77.398z" fill="#fff"/>
</svg>
