<?xml version="1.0" encoding="UTF-8"?>
<svg width="1200pt" height="1200pt" version="1.1" viewBox="0 0 1200 1200" xmlns="http://www.w3.org/2000/svg">
 <g fill="#fff">
  <path d="m1162.8 432-212.4-357.6c-25.199-43.199-72-55.199-108-33.602l-566.4 337.2c-31.199 18-44.398 55.199-30 92.398-49.199 31.199-129.6 338.4-129.6 338.4l-69.602 57.602c-15.602 13.199-20.398 34.801-12 54l122.4 228c10.801 19.199 33.602 27.602 54 19.199 38.398-16.801 102-40.801 159.6-49.199 44.398-6 99.602-49.199 108-61.199 28.801-34.801 320.4-393.6 320.4-393.6 28.801-36 21.602-90-16.801-116.4-34.801-24-82.801-15.602-110.4 16.801l-138 169.2c-21.602 26.398-61.199 22.801-78-6l-72-121.2 606-361.2 122.4 205.2c6 10.801 2.3984 25.199-8.3984 32.398l-231.6 138v2.3984c0 18-6 36-18 50.398l-141.6 174 3.6016 6c14.398 26.398 48 34.801 74.398 20.398l8.3984-4.8008c26.398-14.398 37.199-45.602 30-73.199 6 2.3984 12 2.3984 18 2.3984 10.801 0 21.602-2.3984 31.199-8.3984 30-16.801 40.801-56.398 24-86.398 6 2.3984 12 2.3984 19.199 2.3984 10.801 0 21.602-2.3984 31.199-8.3984 28.801-15.602 39.602-51.602 26.398-80.398l152.4-90c36.012-20.395 48.012-67.191 31.211-94.793zm-836.4 76.801-32.398-54c-7.1992-10.801-2.3984-25.199 8.3984-32.398l566.4-337.2c10.801-6 25.199-2.3984 32.398 8.3984l32.398 54z"/>
  <path d="m903.6 517.2 106.8-63.602c10.801-6 14.398-20.398 8.3984-31.199l-36-61.199c-6-10.801-20.398-14.398-31.199-8.3984l-106.8 63.602c-10.801 6-14.398 20.398-8.3984 31.199l36 61.199c5.9961 10.801 20.398 14.398 31.199 8.3984z"/>
 </g>
</svg>
