<?xml version="1.0" encoding="utf-8"?>
<!-- Generator: Adobe Illustrator 24.0.1, SVG Export Plug-In . SVG Version: 6.00 Build 0)  -->
<svg version="1.1" id="Layer_1" xmlns="http://www.w3.org/2000/svg" xmlns:xlink="http://www.w3.org/1999/xlink" x="0px" y="0px"
	 viewBox="0 0 1024 1024" style="enable-background:new 0 0 1024 1024;" xml:space="preserve">
<style type="text/css">
	.st0{fill:#FFFFFF;}
</style>
<g>
	<path class="st0" d="M81,348.2l200.1,0l13.6-148.4c0-3.5-2.7-6.4-5.9-6.4l-194.1,0l10.3,56.2l-37.5-49.8L81,348.2z"/>
	<path class="st0" d="M136.4,487.8c-2.3-34.9-28.4-51.4-28.4-51.4l-14.9,0c-8,0-12.2-3.6-12.2-12.2l0-49l200.7,0v48.8
		c0,0-3.7,12.2-12.4,11.6h-15.3c-9.7,5-27.2,18.3-28.7,56.5C208,482,161.2,479,136.4,487.8z"/>
	<path class="st0" d="M765.1,677.2c7.2-53.5-16.6-147-33.4-189.4c-51.3-2.1-127.4-1-186.3,1.3c-15.4,40.1-40,137.2-32.2,188.2
		c1.9,12.3,7.3,18.4,17.5,18.4h216.8C757.8,695.6,763.5,689.5,765.1,677.2z"/>
	<path class="st0" d="M836.9,751.8l0.4,216.5h119.3l-1.9-230.1c-3.3-147-44-223.4-165.8-245.2C841.7,584.7,836.9,684.1,836.9,751.8z
		"/>
	<path class="st0" d="M305.2,689.7l94.3-9.5l0.8,288.1h41.5V751.6c0-68-6.4-167.1,48.3-260.2c-32.3,1.8-160.5,17.7-222.1,30.4
		C297.7,551.8,331.3,613.1,305.2,689.7z"/>
	<path class="st0" d="M639.2,444.4c107.3,0,194.4-87,194.4-194.4c0-107.4-87-194.4-194.4-194.4c-107.4,0-194.4,87-194.4,194.4
		C444.8,357.4,531.8,444.4,639.2,444.4z"/>
	<path class="st0" d="M179.7,741c53.6-6.3,97.9-43.3,98.7-102.3c0.8-56.5-38-106.7-79.4-116.5c-8-1.9-25.2-4.6-44.3-0.8
		C100,532.4,97.5,571.5,96.5,631c-0.6,38.9,1.6,71.4,16.5,92.9C124.1,740,144.6,745.1,179.7,741z"/>
</g>
</svg>
