<?xml version="1.0" encoding="utf-8"?>
<!-- Generator: Adobe Illustrator 24.0.1, SVG Export Plug-In . SVG Version: 6.00 Build 0)  -->
<svg version="1.1" id="Layer_1" xmlns="http://www.w3.org/2000/svg" xmlns:xlink="http://www.w3.org/1999/xlink" x="0px" y="0px"
	 viewBox="0 0 1024 1024" style="enable-background:new 0 0 1024 1024;" xml:space="preserve">
<style type="text/css">
	.st0{fill:#FFFFFF;}
</style>
<g>
	<path class="st0" d="M872.5,783.7c-9.5,5.6-20.4,11-33.2,16.1c-1.1,14.2-5.8,28.5-14.4,41.7c-33.4,51.1-110.7,74.1-207.1,61.6
		c-37.2-4.8-73.1-10.7-107.8-16.4c-59.2-9.7-114.8-18.8-166-20.8c-0.8-13.4-3.3-27.5-7.4-42.2c-0.9-3.1-1.8-6.1-2.7-9.1L293.7,802
		c4.1,9.7,8.1,20.3,11.1,31.5c3.1,11.3,5,22.1,5.8,32.3c-50.2,1.4-95.7,11.7-135.6,37.7c-43.6,28.4-48.5,56.6-47.5,70.9
		c1.2,17.5,12,32.3,29.5,40.5c9.2,4.3,21,7,34.8,7c26,0,59.3-9.6,95.9-35.8c31-22.3,49.5-51.7,55-86.7c49.4,1.9,103.9,10.8,162,20.3
		c35,5.7,71.1,11.6,108.9,16.5c109.3,14.3,198.7-14.3,239.2-76.4C868.3,835.9,874.8,809.5,872.5,783.7z M268.3,959
		c-41.5,29.8-78.7,34.4-97.1,25.7c-4.5-2.1-10-6-10.4-12.7c-0.6-9,7.6-24.5,32.5-40.7c33-21.5,71.9-30.5,115.5-32.1
		C303.7,923.3,290.1,943.3,268.3,959z"/>
	<path class="st0" d="M895.6,697.6c-6.6-38.2-289.6-485.8-316.8-528.4c2.1-7.2,6.1-18.8,13.7-31.8c14.5-24.9,41.5-54.4,91.4-65.6
		c9-2,14.6-10.9,12.6-19.9c-2-9-10.9-14.6-19.9-12.6c-63.1,14.1-96.8,52.3-114.4,83.9C547.1,81.9,512.2,26.5,431.5,2.9
		c-8.9-2.6-18,2.5-20.6,11.3c-2.6,8.8,2.5,18.1,11.3,20.6c67.6,19.7,96.6,65,109.1,98.7c6.1,16.5,8.3,30,9,36.6
		c0,0-302.9,483.4-310.1,528.4c-3.9,24.5,12,59.4,105.2,85.6c61.4,17.3,142.7,26.9,228.7,26.9c86.1,0,167.1-9.5,228.2-26.9
		C886.6,757.4,899.9,722.4,895.6,697.6z M863,704.1c2.2,9.6-17.8,30.5-79.9,48.1c-58.2,16.5-136,25.6-219.1,25.6
		c-83.1,0-161.1-9.1-219.7-25.6c-58.2-16.4-82.9-36.9-81.3-49l97.6-171.8c10.4,21.7,32.4,36.7,58.1,36.7c35.7,0,64.6-28.9,64.6-64.6
		c0-35.7-28.9-64.6-64.6-64.6c-1.1,0-2.1,0.3-3.1,0.3C475.2,339.9,534,243.9,560,201.6c11.4,17.9,28.9,45.5,49.9,78.8
		c-29.2,1-52.6,24.9-52.6,54.3c0,30.1,24.4,54.6,54.5,54.6c20.9,0,38.8-11.9,48-29.2C681.9,393.9,858,682.7,863,704.1z"/>
	<path class="st0" d="M643.8,705.8c42.9,0,77.6-34.7,77.6-77.6c0-42.9-34.8-77.6-77.6-77.6c-42.8,0-77.6,34.7-77.6,77.6
		C566.2,671.1,601,705.8,643.8,705.8z"/>
</g>
</svg>
