<?xml version="1.0" encoding="utf-8"?>
<!-- Generator: Adobe Illustrator 24.0.1, SVG Export Plug-In . SVG Version: 6.00 Build 0)  -->
<svg version="1.1" id="Layer_1" xmlns="http://www.w3.org/2000/svg" xmlns:xlink="http://www.w3.org/1999/xlink" x="0px" y="0px"
	 viewBox="0 0 1024 1024" style="enable-background:new 0 0 1024 1024;" xml:space="preserve">
<style type="text/css">
	.st0{fill:#FFFFFF;}
</style>
<g>
	<path class="st0" d="M529.3,1009.9l136.2-342.4c13.4,2.6,26.8,4,40.3,4c111.6,0,220.1-88.9,257.6-220.7
		c21-74.1,16.8-150.7-11.8-215.7c-29.2-66.2-80.2-112.6-143.5-130.6c-34.5-9.8-71.2-10.4-107.2-2c-46.8-61.3-114-100-188.9-100
		c-74.9,0-142.1,38.8-188.9,100c-35.9-8.4-72.7-7.9-107.1,2c-63.4,18-114.4,64.4-143.6,130.6c-28.7,65-32.9,141.7-11.8,215.7
		c37.5,131.8,146,220.7,257.6,220.7c14.6,0,29.2-1.6,43.8-4.7l132.7,343c3.6,10.1,14.3,11.8,17.3,11.8
		C517.1,1021.5,525.9,1018.6,529.3,1009.9z M512,39.7c120.4,0,218.4,119.9,218.4,267.3s-98,267.3-218.4,267.3S293.6,454.4,293.6,307
		S391.6,39.7,512,39.7z M468.7,606.9c8,1.6,16.1,2.8,24.3,3.5v292.8l-95.8-247.7C423.7,644.6,448,628.1,468.7,606.9z M531,610.4
		c8.2-0.7,16.3-1.9,24.3-3.5c21.6,22.1,47,39,74.7,50L531,905.9V610.4z"/>
	<path class="st0" d="M332.1,288.1c-1.3,10.2,5.9,19.5,16.1,20.9c0.8,0.1,1.6,0.2,2.4,0.2c9.2,0,17.2-6.8,18.5-16.2
		c11.6-89.6,67.9-163.2,140.1-183.2c9.9-2.7,15.7-13,13-22.9c-2.7-9.9-13-15.7-22.9-13C411.4,98,345.8,182.1,332.1,288.1z"/>
</g>
</svg>
