<?xml version="1.0" encoding="utf-8"?>
<!-- Generator: Adobe Illustrator 24.0.1, SVG Export Plug-In . SVG Version: 6.00 Build 0)  -->
<svg version="1.1" id="Layer_1" xmlns="http://www.w3.org/2000/svg" xmlns:xlink="http://www.w3.org/1999/xlink" x="0px" y="0px"
	 viewBox="0 0 1024 1024" style="enable-background:new 0 0 1024 1024;" xml:space="preserve">
<style type="text/css">
	.st0{fill:#FFFFFF;}
</style>
<g>
	<path class="st0" d="M455.6,812.3L37.5,569.6c-1.7-1-2.7-2.8-2.5-4.7v-67.1l130.5,76c0.4,17,11.1,32.9,30.4,44.1
		c18.9,11,44.9,16.5,71.3,15l169.4,98.5c5.6,3.3,12,5,18.6,5c6.5,0,12.9-1.7,18.5-4.9l87.3-50.4l-19-25.4l-84,48.5
		c-1.4,0.8-2.9,1.4-5.4,0L278.7,603.3c-1.6-0.9-4.8-2.6-9.3-2.1c-21.2,2.5-43.3-2.1-57.7-10.5c-5.2-3-17-11.1-14.2-21
		c1.9-6.9-1-14.3-7.3-17.9L37.3,463c-1.7-1-2.7-2.8-2.7-4.8c0-1.9,1-3.7,2.7-4.7L455,212.4c1.6-1,3.8-1,5.5,0l155.6,90.4
		c15.7-3.8,31.4-6.9,46.9-9.2L476.4,185.1c-11.2-6.5-25.7-6.5-37-0.1L21.6,426.3c-8.7,5-18.5,17.3-18.6,31.9v106.9
		c0.3,13.1,7.4,25.3,18.7,31.8l415.1,241.2c4.6,2.7,11,5.8,18.9,5.8c6.4,0,12.6-2,18.6-6l142.2-82.1l-18.9-25.4L455.6,812.3z"/>
	<path class="st0" d="M723,317c-125.8,0-245.1,66-281.2,96.7c-7.6,5.5-12.8,14.1-14.3,23.5c-1.4,9.4,0.9,18.9,6.7,26.5l260.4,349.1
		c6.7,8.9,17.3,14.3,28.5,14.3h0.2h0.1c11.2-0.1,21.9-5.6,28.5-14.7l261.9-350.5c5.7-7.6,8.1-17.3,6.7-26.6
		c-1.4-9.3-6.6-17.9-14.2-23.5C961,376.3,848.4,317,723,317z M726.4,794.1c-1.8,2.4-4.6,2.4-6.6,0.1L496.6,494.8
		c65.3-46.3,157.8-78.5,226.5-78.5c71.1,0,164.3,31.4,228.2,76.7L726.4,794.1z M987.6,437.6c0.9,0.6,1.5,1.6,1.6,2.8
		c0.2,1.1-0.1,2.1-0.8,3l-18.3,24.5c-68.8-48.9-169.8-83-247.1-83c-74.9,0-175.2,34.7-245.4,84.7l-18.2-24.4c-0.7-0.9-0.9-2-0.8-3
		c0.2-1.1,0.8-2.1,1.6-2.7c21.5-17.5,138-90.7,262.7-90.7S950,409.7,987.6,437.6z"/>
	<path class="st0" d="M662.5,594.9c7.9-1.6,14.5-6,19.2-11.8c6-7.5,9-17.4,6.9-27.6l-4.1-20.5c-0.9-4.2-2.5-8-4.7-11.4
		c5.8,3.7,10.8,8.7,14.4,14.8c5.6-6.7,8.2-14.2,6.8-21.4c-3.6-17.6-29.9-27.1-58.6-21.3c-28.8,5.9-49.3,24.9-45.7,42.4
		c1.4,7.3,6.8,13.1,14.6,17.1c1-7,3.6-13.5,7.5-19.2c-0.7,4-0.7,8.1,0.1,12.4l4.2,20.5c2.1,10.2,8.6,18.2,17.1,22.8
		C646.7,595,654.5,596.5,662.5,594.9z"/>
	<path class="st0" d="M775.5,637.5c0-23.3-19-42.3-42.3-42.3S691,614.2,691,637.5c0,23.3,19,42.2,42.3,42.2S775.5,660.8,775.5,637.5
		z M716.2,637.5c0-9.4,7.7-17.1,17.1-17.1c9.4,0,17.1,7.7,17.1,17.1c0,9.4-7.7,17-17.1,17C723.8,654.6,716.2,646.9,716.2,637.5z"/>
	<path class="st0" d="M853.1,521.2c0-26.3-21.4-47.7-47.7-47.7c-26.4,0-47.7,21.4-47.7,47.7c0,26.3,21.3,47.7,47.7,47.7
		C831.7,568.9,853.1,547.6,853.1,521.2z"/>
</g>
</svg>
