<?xml version="1.0" encoding="utf-8"?>
<!-- Generator: Adobe Illustrator 24.0.1, SVG Export Plug-In . SVG Version: 6.00 Build 0)  -->
<svg version="1.1" id="Layer_1" xmlns="http://www.w3.org/2000/svg" xmlns:xlink="http://www.w3.org/1999/xlink" x="0px" y="0px"
	 viewBox="0 0 1024 1024" style="enable-background:new 0 0 1024 1024;" xml:space="preserve">
<style type="text/css">
	.st0{fill:#FFFFFF;}
</style>
<g>
	<path class="st0" d="M545.9,517.3c3.4-35.7,34.5-63.8,71.2-63.8l20.3-9.8c-0.5-11.6,0.5-23,2.6-34c-39.7-17.7-85.3-27.2-133.9-27.2
		c-81.9,0-155.3,26.7-205.8,75L545.9,517.3z"/>
	<path class="st0" d="M653.1,202.8c0-81.3-65.8-147.1-147.1-147.1C424.9,55.6,359,121.5,359,202.8c0,81.2,65.8,147,147,147
		C587.3,349.7,653.1,283.9,653.1,202.8z"/>
	<path class="st0" d="M876.7,413.1l-29.8-29.8c-21.1-21.1-52.2-33.6-83.3-33.6c-18.5,0-35.5,4.6-49.6,13.4
		c-3.2-2.7-7.1-4.2-11.3-4.2c-4.6,0-8.9,1.8-12.2,5c-3.2,3.2-5,7.6-5,12.2c0,4.2,1.5,8.2,4.3,11.3c-13.8,22.1-16.6,51.6-9.6,79.2
		L624,493.7c-2.6-0.7-5.1-1.1-7.7-1.1c-17.4,0-31.6,14.1-31.6,31.5c0,11.2,5.9,21.5,15.7,27.1l9,18.8l-325.4-79.7
		c-4.2-1-8.6-0.4-12.3,1.9s-6.3,5.9-7.4,10.1l-19.1,78.1h-23.2c-9.3,0-16.7,7.5-16.7,16.7v93.3c9.4-1,24.8,0.6,33.3,3.7v-80.5h540
		V697c12-4,24-5.4,33.3-5.4v-94.4c0.4-9.3-7.1-16.7-16.4-16.7H657.5l-17.2-36c4.5-5.3,7.1-12,7.5-18.9l47.8-23
		c4.1,6.4,8.9,12.5,14.3,17.9l29.8,29.8c9,8.3,21,8.2,23.9,8c24.8-1.6,52.3-17.4,78-43.1c25.7-25.7,42.2-55.7,43.1-78.1
		C885,426.9,882.3,418.7,876.7,413.1z M278.6,580.4l13.3-54.5l223.7,54.5H278.6z M822.3,495.8c-20.7,20.7-41.9,30.2-52.7,30.2
		c-2.7,0-4.1-0.5-4.7-1.1c-2.7-2.7-0.9-17.6,12-36.7c4,2.2,8.5,3.6,13.3,3.6c15.5,0,28-12.5,28-28c0-4.9-1.4-9.3-3.6-13.2
		c13.1-8.9,24.8-13.1,32-13.1c2.7,0,4.1,0.5,4.7,1C855,442.1,850.7,467.4,822.3,495.8z"/>
	<path class="st0" d="M221.8,968.3H795c9.3,0,16.7-7.5,16.7-16.7v-27.1c-12.2-1.5-23.3-4.3-33.3-8.3V935h-540v-16.5
		c-10,3.3-21.1,5.5-33.3,6.6v26.4C205.1,960.8,212.6,968.3,221.8,968.3z"/>
	<path class="st0" d="M274.3,804.9c-1.9-66.6-33.5-77.9-58.5-79.1c-25-1.3-48.7-12.2-38.1-31.1c0,0-49.1,4.9-48.6,83.6
		c0.6,98.5,24.8,112,51.7,113.3C229,893.9,276.4,880.2,274.3,804.9z"/>
	<path class="st0" d="M749.7,804.9c1.9-66.6,33.5-77.9,58.5-79.1c25-1.3,48.7-12.2,38.1-31.1c0,0,49,4.9,48.6,83.6
		c-0.6,98.5-24.8,112-51.7,113.3C795,893.9,747.6,880.2,749.7,804.9z"/>
</g>
</svg>
