<?xml version="1.0" encoding="utf-8"?>
<!-- Generator: Adobe Illustrator 24.0.1, SVG Export Plug-In . SVG Version: 6.00 Build 0)  -->
<svg version="1.1" id="Layer_1" xmlns="http://www.w3.org/2000/svg" xmlns:xlink="http://www.w3.org/1999/xlink" x="0px" y="0px"
	 viewBox="0 0 1024 1024" style="enable-background:new 0 0 1024 1024;" xml:space="preserve">
<style type="text/css">
	.st0{fill:#FFFFFF;}
</style>
<g>
	<path class="st0" d="M926,165h-47.8c-6.7,0-12.2,5.5-12.2,12.2V281H158V177.1c0-6.7-5.4-12.1-12.1-12.1H98v287h47.8
		c6.7,0,12.2-5.5,12.2-12.2V336h62.7c9.3,43.9,33.6,148.5,58.5,179.3c14,17.4,47.5,9.9,66.6-2.3L394,488v123.4l-121.3,51.9
		c-17.8,9.9-29.3,25-24.6,55.4l26.9,231.1c1.6,15.3,15.3,33.4,51.6,32.2c28.2-0.9,38.4-23.8,39.5-37.4
		c3.9-47.8,10.1-191.7,10.1-191.7L511,725.5l135.4,27.4c0,0,6.2,143.9,10.1,191.7c1.1,13.6,11.3,36.5,39.5,37.4
		c36.3,1.1,50-17,51.6-32.2l26.9-231.1c4.7-30.4-6.8-45.5-24.6-55.4l-121.1-51.8l0.1-0.1V488.2l47.9,24.9
		c16.7,10.6,52.7,20.6,66.6,2.3c23.9-31.5,48.7-135.6,58.3-179.3H866v103.9c0,6.7,5.4,12.1,12.1,12.1H926V165z M690,391.7L657.6,375
		H366l-32.4,16.7L315,336h393.5L690,391.7z"/>
	<path class="st0" d="M18.2,452H66V164H18.1C11.4,164,6,169.4,6,176.2v263.7C6,446.5,11.5,452,18.2,452z"/>
	<path class="st0" d="M1005.8,164H958v288h47.9c6.7,0,12.1-5.5,12.1-12.2V176.2C1018,169.4,1012.6,164,1005.8,164z"/>
	
		<ellipse transform="matrix(0.7071 -0.7071 0.7071 0.7071 43.3579 406.1984)" class="st0" cx="512" cy="150.8" rx="108.5" ry="108.5"/>
</g>
</svg>
