<?xml version="1.0" encoding="utf-8"?>
<!-- Generator: Adobe Illustrator 24.0.1, SVG Export Plug-In . SVG Version: 6.00 Build 0)  -->
<svg version="1.1" id="Layer_1" xmlns="http://www.w3.org/2000/svg" xmlns:xlink="http://www.w3.org/1999/xlink" x="0px" y="0px"
	 viewBox="0 0 1024 1024" style="enable-background:new 0 0 1024 1024;" xml:space="preserve">
<style type="text/css">
	.st0{fill:#FFFFFF;}
</style>
<g>
	<path class="st0" d="M789.5,584.5l-24.8,25.2c13.6,20.5,21.6,45.1,21.6,71.5c0,71.4-58.1,129.5-129.5,129.5
		c-26.3,0-55.3-9.4-75.6-24.2V827c22.7,11.8,48.3,18.6,75.6,18.6c90.7,0,164.4-73.8,164.4-164.4C821.3,645,809.4,611.6,789.5,584.5z
		"/>
	<path class="st0" d="M360.6,330.9c74.8,0,135.4-60.6,135.4-135.4c0-74.7-60.6-135.3-135.4-135.3c-74.8,0-135.3,60.6-135.3,135.3
		C225.2,270.2,285.8,330.9,360.6,330.9z"/>
	<path class="st0" d="M372.4,836.2c0-33.6,18-64.2,47.2-80.6l14-10.6c-5.6-19.8-8.4-40-8.4-60.5c0-61.4,23.7-118.9,66.8-161.9
		c27.6-27.6,61-47.1,97.4-57.7c-21.4-64.1-70.8-93-146.1-97.9H278.7c-104,6.7-159.1,58.5-159.1,185.5l0.6,230.5
		c0,39.5,28,71,80.4,71v64.7h198l0.1-17.9C381.9,883.8,372.4,860.9,372.4,836.2z"/>
	<path class="st0" d="M660.4,647.9c-18.9,0-34.3,15.3-34.3,34.3c0,18.9,15.4,34.3,34.3,34.3c18.9,0,34.3-15.3,34.3-34.3
		C694.7,663.2,679.3,647.9,660.4,647.9z"/>
	<path class="st0" d="M543.5,883.7v-106l55-55c-5.1-10.6-7.7-22-7.7-33.3c0-22.6,10-45,29.2-60V629c13.9-10.9,30.5-16.2,46.8-16.2
		c0,0,0.1,0,0.1,0c11.5,0,23,2.6,33.5,7.7L836,482.8c9.6-9.6,9.5-25.2-0.1-34.8c-4.8-4.8-11.1-7.2-17.4-7.2
		c-6.3,0-12.7,2.4-17.5,7.3l-64.5,65c-26.4-13-55.3-19.6-84.2-19.6c-48.5,0-97,18.6-134,55.6c-37.3,37.2-55.6,86.1-55.6,135
		c0,25.3,5.3,50.4,15.4,74l-38.4,29.1c-17.6,9-29.7,27.3-29.7,48.4c0,19.8,10.6,37.1,26.4,46.6l-0.3,73.4h46.2v-15.3h14.8
		c12.1,12.8,84.9,22.6,172.8,22.6c88,0,160.7-9.8,172.8-22.6h14.8v15.3h46.8l-0.1-72H543.5z M464.8,853.5c-9.7,0-17.6-7.8-17.6-17.6
		c0-9.7,7.9-17.6,17.6-17.6c9.7,0,17.5,7.9,17.5,17.6C482.3,845.7,474.5,853.5,464.8,853.5z"/>
</g>
</svg>
