<?xml version="1.0" encoding="utf-8"?>
<!-- Generator: Adobe Illustrator 24.0.1, SVG Export Plug-In . SVG Version: 6.00 Build 0)  -->
<svg version="1.1" id="Layer_1" xmlns="http://www.w3.org/2000/svg" xmlns:xlink="http://www.w3.org/1999/xlink" x="0px" y="0px"
	 viewBox="0 0 1024 1024" style="enable-background:new 0 0 1024 1024;" xml:space="preserve">
<style type="text/css">
	.st0{fill:#FFFFFF;}
</style>
<g>
	<path class="st0" d="M264.5,328.2l115.8,116.5c6.5,6.5,14.7,11.1,23.6,13.3l20.8,2.1l94.2-76.7l-93-15.2l-100.4-92.7
		C319.9,282.1,273.9,322.9,264.5,328.2z"/>
	<path class="st0" d="M296.3,259.6c15.3-15.9-11-45.9-31.2-37.8c0,0-139.7,88.1-264.5,85.2c17.2,15.3,85.7,54.6,112.4,54.9
		C172.6,362.5,280.8,275.7,296.3,259.6z"/>
	<path class="st0" d="M813,705.3c0,0,10-109.3,15.5-145.5c2-13.2-0.9-25.8-7.7-36.6c7.9,2.6,16.1,4,24.5,4c27.5,0,52.7-13.8,67.4-37
		c11.4-18,15.1-39.4,10.5-60.2c-4.6-20.8-17.1-38.5-35.1-50L661.6,236.3c-8.5-5.4-16.9-8.1-25.1-8.1c-24.2,0-37.5,21.3-51.6,43.9
		l-9.1,14.3c-12.7,19.6-24.6,38.2-20.4,57.6c2.4,10.7,9.3,19.8,20.7,27.1l13.8,8.8c-17.9,0.6-33.4,10-41.5,16.8l-103.9,89.8
		l-110.9-6.2c-2.1,22.3-15.7,72.5-21.5,87.1l144.5,8c8,0,15.3-1.6,22-4.7l108-51.7l137.6,97.2l-3.2,92.1c-0.9,8.4,0.5,16.8,4.1,24.4
		l62.8,114.9c7.8,16.5,26.6,30.4,49.9,19c22.6-11.1,26.6-30.9,15.8-53.6L813,705.3z M636.5,261.9c0.7-0.1,3,0.3,7,2.9L870,408.5
		c10.4,6.6,17.6,16.8,20.2,28.8c2.7,12,0.5,24.3-6.1,34.7c-8.5,13.4-23,21.4-38.9,21.4c-8.7,0-17.2-2.5-24.6-7.2L594.2,342.5
		c-3.4-2.1-5.5-4.2-5.8-5.8C586.7,329.5,627.4,263.5,636.5,261.9z"/>
	<path class="st0" d="M247,476.6c0,0-60.4,154.4-167.1,223.4c22.7,2.4,68.9,3.1,111.6-9.2c56.8-16.4,106.4-176.7,109.6-201.7
		C304.1,465.5,253.5,464.4,247,476.6z"/>
	<path class="st0" d="M936.4,538.9c-47.4-4.9-89.7,29.6-94.6,76.9c-4.9,47.4,29.6,89.7,76.9,94.6c47.4,4.8,89.7-29.6,94.6-76.9
		C1018.2,586.1,983.7,543.7,936.4,538.9z"/>
	<path class="st0" d="M973,397.6c19.6,2,37.1-12.2,39.1-31.8c2-19.6-12.2-37.1-31.8-39.1c-19.6-2-37.1,12.2-39.1,31.8
		C939.2,378.1,953.5,395.6,973,397.6z"/>
	<path class="st0" d="M913.9,288.2c15.7,1.6,29.7-9.8,31.3-25.4c1.6-15.7-9.8-29.7-25.4-31.3c-15.7-1.6-29.7,9.8-31.3,25.5
		C886.9,272.5,898.2,286.5,913.9,288.2z"/>
	<path class="st0" d="M999.7,153.1c-14.4-1.5-27.2,9-28.7,23.3c-1.5,14.4,9,27.2,23.3,28.7c14.4,1.4,27.2-9,28.7-23.3
		C1024.6,167.4,1014.1,154.5,999.7,153.1z"/>
	<path class="st0" d="M360.8,739.6c-26,0-48.9,17.9-63,32c-19-6.3-28.8-16.2-44.8-21.8c8.5,26.6,6.1,52.4-0.5,77.2
		c16.3-5.4,26.1-15.3,45.8-21.3c14.1,14.1,36.8,31.6,62.5,31.6c42.8,0,77.6-48.9,77.6-48.9S403.7,739.6,360.8,739.6z"/>
	<path class="st0" d="M526.1,655.1c-22.1,0-41.5,15.2-53.5,27.2c-16.2-5.4-24.4-13.8-38-18.5c7.2,22.6,5.2,44.5-0.4,65.6
		c13.9-4.6,22.2-13.1,38.9-18.1c12,11.9,31.2,26.8,53,26.8c36.4,0,65.9-41.5,65.9-41.5S562.4,655.1,526.1,655.1z"/>
</g>
</svg>
