<?xml version="1.0" encoding="utf-8"?>
<!-- Generator: Adobe Illustrator 24.0.1, SVG Export Plug-In . SVG Version: 6.00 Build 0)  -->
<svg version="1.1" id="Layer_1" xmlns="http://www.w3.org/2000/svg" xmlns:xlink="http://www.w3.org/1999/xlink" x="0px" y="0px"
	 viewBox="0 0 1024 1024" style="enable-background:new 0 0 1024 1024;" xml:space="preserve">
<style type="text/css">
	.st0{fill:#FFFFFF;}
</style>
<g>
	<path class="st0" d="M625.4,402.8c87.1,0,157.7-69.2,157.7-154.5c0-85.3-70.6-154.5-157.7-154.5c-87.1,0-157.7,69.2-157.7,154.5
		C467.7,333.6,538.3,402.8,625.4,402.8z"/>
	<path class="st0" d="M1018.9,704.1c-1.2-22.6-12.8-41.3-29.9-59.9L837.3,481c-40.4-36.4-66.9-38.8-124.3-38.8l-87.1,78.9
		l-80.9-81.5c-17.3,0.1-34.2,0.9-50.2,4.8c-7,20-25.2,36.6-51.7,36.6h-5.8c-26.3,35-88.5,155.3-88.5,155.3l-34.5-102.2
		c0,0,44.5-35.8,55.1-53.1h-59.4c-10.8,7.7-13.8,18.8-44.9,18.8c-27.6,0-52.5-9.1-77.4-18.8h-66.7c30.2,27.4,100.9,61.4,100.9,61.4
		c13.7,83.8,30.1,198.9,39.1,233.5c12.6,48,69.1,67.5,116.4,18l79.4-83.2l0.1,219.2H798V659.2l70.9,58.9L827,759.3l0.1,168.3
		l168.4-165.8C1011.5,746,1020.1,726.6,1018.9,704.1z M592,637.5c0,6.3-5.1,11.5-11.4,11.5h-77.2c-6.3,0-11.4-5.1-11.4-11.4v-38.1
		c0-6.3,5.1-11.5,11.4-11.5h77.2c6.3,0,11.4,5.1,11.4,11.4V637.5z"/>
	<path class="st0" d="M24.4,447h418.4c15,0,21-12.8,21-21c0-11.2-8.9-20.3-20-20.8c-9.5-96.7-84.6-174.2-180-187.9
		c9.2-2.2,16.1-10.4,16.1-20.3c0-11.6-9.4-20.9-21-20.9h-50.6c-11.6,0-20.9,9.4-20.9,20.9c0,9.9,6.9,18.2,16.1,20.3
		C108,231,33,308.5,23.4,405.2c-11.1,0.5-20,9.6-20,20.8C3.4,438.4,13.6,447,24.4,447z M233.6,256.8c86.2,0,157.5,64.8,167.8,148.2
		H65.8C76.1,321.6,147.4,256.8,233.6,256.8z"/>
</g>
</svg>
