<?xml version="1.0" encoding="utf-8"?>
<!-- Generator: Adobe Illustrator 24.0.1, SVG Export Plug-In . SVG Version: 6.00 Build 0)  -->
<svg version="1.1" id="Layer_1" xmlns="http://www.w3.org/2000/svg" xmlns:xlink="http://www.w3.org/1999/xlink" x="0px" y="0px"
	 viewBox="0 0 1024 1024" style="enable-background:new 0 0 1024 1024;" xml:space="preserve">
<style type="text/css">
	.st0{fill:#FFFFFF;}
</style>
<g>
	<path class="st0" d="M622.4,458.4c-35.3-36-139.6-145.6-139.6-145.6l186.1-54.6c36.3-15.2,53.4-57.1,38.1-93.4
		c-15.2-36.2-57.1-53.3-93.3-38.1l-297.3,82c-22,9.2-37.8,28.7-42.4,52c-4.6,23.4,8.3,43.1,19.6,64.2
		c21.8,40.4,77.5,112.6,116.8,171.3l-137.1,66c75.5,4.2,148.4,24,243.6,54.5c26.7,8.5,133.8,50.2,187.4,59.3l-64.6-188.1
		C636.6,477.2,630.9,467,622.4,458.4z"/>
	<path class="st0" d="M709.6,566.9c7.8,77.7,77.1,134.4,154.9,126.6c77.8-7.8,134.4-77.1,126.6-154.9
		c-7.7-77.8-77.1-134.5-154.8-126.7C758.5,419.7,701.8,489.1,709.6,566.9z"/>
	<path class="st0" d="M40.7,765.8c37.9-39.1,121.1-103.6,252.8-96.6c82.5,4.4,167.4,31.3,257.3,59.8
		c100.8,31.9,195.7,59.9,288.2,64.4c48,2.4,119.6-3,166.6-18.6c11.6-3.9,18.4-15.9,15-27.6c-3.5-11.7-15.8-18.4-27.6-15
		c-31.1,9.3-82.8,19.6-151.9,16.8c-87.1-4.3-179-31.5-276.8-62.4c-92.7-29.3-180.2-57.1-268.4-61.8C146.5,617,51.9,690.4,8.8,734.9
		c-8.5,8.8-8.3,22.8,0.5,31.4C18.1,774.8,32.1,774.6,40.7,765.8z"/>
	<path class="st0" d="M679.2,829.2c-32.3-8.4-71.8-21.2-113.6-34.8c-48.3-15.6-98.2-31.8-147.2-44.8
		c-181.3-48-257.7,21.6-260.9,24.6c-8.8,8.3-9.2,22.1-1,31.1c8.2,8.9,22.2,9.5,31.3,1.4c0.6-0.6,64.2-55.3,219.3-14.2
		c47.9,12.7,97.2,28.6,144.9,44.1c42.4,13.7,82.4,26.7,116,35.5c1.9,0.5,3.8,0.7,5.6,0.7c9.9,0,18.9-6.6,21.5-16.6
		C698.2,844.4,691.1,832.3,679.2,829.2z"/>
	<path class="st0" d="M271.2,832.6c-11.8,3-19,15-16.1,26.8c2.9,11.9,14.9,19.1,26.8,16.3c0.6-0.2,62.9-14.5,131.2,24.8
		c3.5,2,7.3,3,11,3c7.7,0,15.2-4,19.3-11.1c6.1-10.6,2.5-24.2-8.2-30.3C350.7,813.3,274.4,831.8,271.2,832.6z"/>
</g>
</svg>
