<?xml version="1.0" encoding="utf-8"?>
<!-- Generator: Adobe Illustrator 24.0.1, SVG Export Plug-In . SVG Version: 6.00 Build 0)  -->
<svg version="1.1" id="Layer_1" xmlns="http://www.w3.org/2000/svg" xmlns:xlink="http://www.w3.org/1999/xlink" x="0px" y="0px"
	 viewBox="0 0 1024 1024" style="enable-background:new 0 0 1024 1024;" xml:space="preserve">
<style type="text/css">
	.st0{fill:#FFFFFF;}
</style>
<g>
	<g>
		<path class="st0" d="M605.2,424H445.3c-58.4,0-107.1,38.7-123.2,91.8c10.7,78.3,46.9,123.8,86.2,146.7l-8.2-107.1l125.1,34.4
			l125.1-34.4l-8.2,107.9c31.8-22.2,66.1-70.3,82.4-159.6C705,456.9,659,424,605.2,424z"/>
	</g>
	<path class="st0" d="M525.3,391.1c69.1,0,125.1-56,125.1-125.1c0-69.1-56-125.1-125.1-125.1c-69.1,0-125.1,56-125.1,125.1
		C400.2,335.1,456.2,391.1,525.3,391.1z"/>
	<path class="st0" d="M884,449.2c-70.6,0-121.7,54.7-136.2,122.3c-19.6,91.5-82.7,146.1-162.7,159.6c10.6,16,16.9,35.2,16.9,55.8
		c0,21.2-6.6,40.9-17.7,57.2c107.8-11.4,199.7-69.6,246.7-161l36.1,17.7c-26.9,55.1-68.4,99.4-120.1,130.9V883h274V586.4
		C1021,510.6,959.6,449.2,884,449.2z"/>
	<path class="st0" d="M501.5,728.5c-103.2,0-188.5-59.2-212.4-170.3c-16-74.2-74.3-133.6-154.3-127.2C60.1,436.9,3,500.2,3,575.1
		L3,883h287v-53c-54.1-32.9-97.6-79.2-125.8-136.7l37.8-18.5c55.1,106.9,169.2,170.5,299.5,170.5c32.3,0,58.5-26.1,58.5-58.4
		C560,754.7,533.8,728.5,501.5,728.5z"/>
	<path class="st0" d="M73.1,282.2c0,72.4,58.7,131.1,131.1,131.1c72.4,0,131.1-58.7,131.1-131.1c0-72.4-58.7-131.1-131.1-131.1
		C131.8,151.1,73.1,209.8,73.1,282.2z"/>
	<path class="st0" d="M856.3,425.2c69.3,0,125.4-56.2,125.4-125.4c0-69.3-56.2-125.4-125.4-125.4c-69.3,0-125.5,56.2-125.5,125.4
		C730.9,369,787,425.2,856.3,425.2z"/>
</g>
</svg>
