<?xml version="1.0" encoding="utf-8"?>
<!-- Generator: Adobe Illustrator 24.0.1, SVG Export Plug-In . SVG Version: 6.00 Build 0)  -->
<svg version="1.1" id="Layer_1" xmlns="http://www.w3.org/2000/svg" xmlns:xlink="http://www.w3.org/1999/xlink" x="0px" y="0px"
	 viewBox="0 0 1024 1024" style="enable-background:new 0 0 1024 1024;" xml:space="preserve">
<style type="text/css">
	.st0{fill:#FFFFFF;}
</style>
<g>
	<g>
		<path class="st0" d="M595.9,432.8H452c-52.5,0-96.4,34.8-110.9,82.6c9.7,70.5,42.2,111.4,77.6,132l-7.3-96.4L523.9,582l112.6-30.9
			l-7.4,97.1c28.7-20,59.4-63.3,74.2-143.7C685.7,462.4,644.3,432.8,595.9,432.8z"/>
	</g>
	<path class="st0" d="M523.9,403.2c62.2,0,112.6-50.4,112.6-112.6c0-62.2-50.4-112.6-112.6-112.6c-62.2,0-112.6,50.4-112.6,112.6
		C411.3,352.8,461.8,403.2,523.9,403.2z"/>
	<path class="st0" d="M846.8,455.5c-63.6,0-109.5,49.2-122.6,110c-17.7,82.3-74.4,131.5-146.4,143.7c9.6,14.4,15.2,31.7,15.2,50.2
		c0,19.1-5.9,36.8-16,51.5c97-10.3,179.7-62.7,222.1-144.9l32.4,15.9c-24.2,49.5-61.6,89.5-108.1,117.8v46.2h246.6v-267
		C970.1,510.8,914.9,455.5,846.8,455.5z"/>
	<path class="st0" d="M502.6,706.9c-92.8,0-169.7-53.3-191.2-153.3c-14.4-66.8-66.9-120.2-138.9-114.5
		c-67.2,5.3-118.6,62.3-118.6,129.8v277.1h258.3v-47.7c-48.7-29.6-87.8-71.3-113.2-123.1l34-16.6C282.6,754.7,385.3,812,502.6,812
		c29.1,0,52.6-23.5,52.6-52.5S531.6,706.9,502.6,706.9z"/>
	<path class="st0" d="M117,305.2c0,65.1,52.8,118,118,118c65.1,0,117.9-52.8,117.9-118c0-65.1-52.8-118-117.9-118
		C169.8,187.2,117,240,117,305.2z"/>
	<path class="st0" d="M821.9,433.8c62.3,0,112.9-50.5,112.9-112.9c0-62.3-50.5-112.9-112.9-112.9C759.5,208,709,258.6,709,320.9
		C709,383.3,759.5,433.8,821.9,433.8z"/>
</g>
</svg>
