<?xml version="1.0" encoding="utf-8"?>
<!-- Generator: Adobe Illustrator 24.0.1, SVG Export Plug-In . SVG Version: 6.00 Build 0)  -->
<svg version="1.1" id="Layer_1" xmlns="http://www.w3.org/2000/svg" xmlns:xlink="http://www.w3.org/1999/xlink" x="0px" y="0px"
	 viewBox="0 0 1024 1024" style="enable-background:new 0 0 1024 1024;" xml:space="preserve">
<style type="text/css">
	.st0{fill:#FFFFFF;}
</style>
<g>
	<path class="st0" d="M281.9,305.9h-92.7c11.6,44.4-6.7,87.6-45,104.3c-11.9,5.2-24.3,7.9-36.9,7.9c-13.7,0-26.9-3.2-38.8-9.2
		c-0.6,5.7-1.1,11.5-1.1,17.6c0,0.1,0.4,178.8,0.4,178.8c0,26.8,20.6,48.1,54.5,48.1c0,0.1,0,242.6,0,242.6
		c0,28.7,23.3,51.9,51.9,51.9c29.2,0,52.6-23.4,52.6-52.2c0,28.8,23.3,52.2,52.1,52.2c28.8,0,52.1-23.4,52.1-52.2l0.4-441.2
		c14.7,4.8,28.9,8.7,42.9,12.1c0-25.1,0-47.3,0-64.6C374.4,355.5,352.4,305.9,281.9,305.9z"/>
	<path class="st0" d="M138.8,189.9c0,50.8,41.2,92.1,92,92.1c50.9,0,92.1-41.2,92.1-92.1c0-50.9-41.2-92.1-92.1-92.1
		C180.1,97.9,138.8,139.1,138.8,189.9z"/>
	<path class="st0" d="M744.1,305.9h91c-11.6,44.4,6.7,87.6,45,104.3c11.9,5.2,24.3,7.9,36.8,7.9c14.4,0,28.1-3.6,40.3-10
		c0.7,5.9,1.1,12,1.1,18.5c0,0.1-0.4,178.8-0.4,178.8c0,26.8-20.6,48.1-54.5,48.2V896c0,28.6-23.3,51.9-52.4,51.9
		c-28.8,0-52.2-23.3-52.2-52.1c0,28.8-23.3,52.1-52.1,52.1s-52.1-23.3-52.1-52.1l-0.4-441.2c-15.3,5-30.1,9.1-44.6,12.5l0-65
		C649.7,351.3,673.7,305.9,744.1,305.9z"/>
	<path class="st0" d="M794.7,97.9c-50.9,0-92.1,41.2-92.1,92.1c0,50.8,41.2,92.1,92.1,92.1c50.8,0,92-41.2,92-92.1
		C886.7,139.1,845.5,97.9,794.7,97.9z"/>
	<path class="st0" d="M565.3,284.3h-107c-39.2,0.2-66.2,4-86.5,21.7c0,0,34.9,36.9,34.9,96.3c0,124.3,0.4,493.7,0.4,493.7
		c0,28.8,23.4,52.2,52.3,52.2c28.9,0,52.3-23.4,52.3-52.2c0,28.8,23.5,52.1,52.3,52.2c28.9,0,52.4-23.4,52.4-52.2l0.3-493.7
		c0-49.6,22-78.6,34.8-96.3C631.3,288.4,604.5,284.5,565.3,284.3z"/>
	<path class="st0" d="M130.2,380.3c26.6-11.7,33.6-43,24.9-70c-5.7-17.8-11-25.8-24.7-25.9c-0.1,0-0.2,0-0.2,0
		c-10.8,0-24.2,6.2-37.9,12.7c-26.3,12.5-44.1,20-34.4,50.2c1.2,3.7,2.6,11.7,7.6,18.1c9.8,12.6,24.8,20.1,41.3,20.1
		C114.4,385.3,122.3,383.7,130.2,380.3z"/>
	<path class="st0" d="M931.7,297c-13.6-6.5-27.1-12.7-37.9-12.7c-0.1,0-0.2,0-0.2,0c-13.8,0.1-19.1,8.1-24.7,25.9
		c-8.7,27.1-1.6,58.4,24.9,70c7.9,3.5,15.8,5.1,23.4,5.1c16.5,0,31.5-7.5,41.3-20.1c5-6.4,6.4-14.4,7.6-18.1
		C975.8,317,958,309.4,931.7,297z"/>
	<path class="st0" d="M604.1,168.2c0,50.9-41.2,92.1-92.1,92.1c-50.8,0-92.1-41.2-92.1-92.1c0-50.8,41.2-92.1,92.1-92.1
		C562.8,76.2,604.1,117.4,604.1,168.2z"/>
</g>
</svg>
