<?xml version="1.0" encoding="utf-8"?>
<!-- Generator: Adobe Illustrator 24.0.1, SVG Export Plug-In . SVG Version: 6.00 Build 0)  -->
<svg version="1.1" id="Layer_1" xmlns="http://www.w3.org/2000/svg" xmlns:xlink="http://www.w3.org/1999/xlink" x="0px" y="0px"
	 viewBox="0 0 1024 1024" style="enable-background:new 0 0 1024 1024;" xml:space="preserve">
<style type="text/css">
	.st0{fill:#FFFFFF;}
</style>
<g>
	<path class="st0" d="M651.8,158.2c-243.4-5.1-512.5,123.7-595.2,263.7l-0.7,179.9l51.2,29.6c136.3-71.6,315.8-86.6,409.9-32.2
		c0,0,2.4,17.7-53.6,57.8l-0.7,179.9l51.2,29.5c88.8-18.8,177.7-51.2,255.6-96.5c128.9-74.9,197.7-167.4,197.9-248l0.5-177.4
		C964.7,222.9,838.5,162.2,651.8,158.2z M651.9,198.8c62.4,0,117.6,8.4,162.7,24.4l-64.8,37.7c-59.4-30.7-134.3-49.1-213.8-52.9
		C575.1,202,614,198.8,651.9,198.8z M384.7,244.9c36.2-7.1,74.4-11,113.5-11c81,0,158.2,16.4,218.3,46.2l-96.8,56.3
		c-63.8-32.6-146.5-50.6-233.1-50.6c-43.6,0-86.1,4.6-126.1,13.1C299.2,277.9,341.1,259.7,384.7,244.9z M369.1,345.9
		c-79.9,0-165.9,18.5-241.8,51.3c9.5-10,20.1-19.9,31.6-29.7c62.2-34.5,142.7-53.7,228-53.7c73.9,0,144.5,14.9,199.6,41.8L537.9,384
		C494.6,359.1,436.2,345.9,369.1,345.9z M605.5,619.7c-16.7,5.6-33.6,10.8-50.7,15.4c40.3-41.9,61.9-87.8,60.8-132.4
		c-0.9-37.5-17.9-71.2-48.2-97.7l52.4-30.4c49.3,32.7,75.8,75,74.6,119.1C693.2,540.5,661.6,585,605.5,619.7z M756.1,551.2
		c-13.7,7.9-34.1,19.2-48.6,26.4c19.7-26.2,30.4-54.5,31.1-83.8c1.2-51.5-29.4-100.4-86.1-138.3l97.4-56.6
		c54.2,35.6,83.8,81.7,82.2,130C830,493.1,776,539.6,756.1,551.2z M872.4,458.3c18-73.9-21.3-131.3-89.8-178.3l69.6-40.4
		c32,17.2,75.5,49,75.5,102C927.5,378.1,907.8,418.6,872.4,458.3z"/>
</g>
</svg>
