<?xml version="1.0" encoding="utf-8"?>
<!-- Generator: Adobe Illustrator 24.0.1, SVG Export Plug-In . SVG Version: 6.00 Build 0)  -->
<svg version="1.1" id="Layer_1" xmlns="http://www.w3.org/2000/svg" xmlns:xlink="http://www.w3.org/1999/xlink" x="0px" y="0px"
	 viewBox="0 0 1024 1024" style="enable-background:new 0 0 1024 1024;" xml:space="preserve">
<style type="text/css">
	.st0{fill:#FFFFFF;}
</style>
<g>
	<path class="st0" d="M506.4,237.5c0-74-60-134-134-134s-134,60-134,134c0,74,60,134,134,134S506.4,311.5,506.4,237.5z"/>
	<path class="st0" d="M372.3,405.2c-127.6,0-231.1,61.9-231.1,170v43.5c-16.1,8-30.4,16.9-42.5,26.4c-27.1,21.5-43,46.8-43,75.7
		c0,94.9,170,150.5,348.4,160.9v-42.4C221,828.7,98.2,772.1,98.2,720.8c0-56.8,150.7-120.2,366.9-120.2c28.2,0,55.4,1.1,81.2,3.1
		c16.2-7.2,33.3-13.4,51.7-18.2c-48-33-80.1-87-83.6-148.6C475.2,416.3,425.9,405.2,372.3,405.2z"/>
	<path class="st0" d="M968.3,806.7c0-122-116.8-191.9-261-191.9s-261,69.9-261,191.9v113.9h522V806.7z"/>
	<ellipse class="st0" cx="707.6" cy="425.8" rx="151.1" ry="151.1"/>
</g>
</svg>
