<?xml version="1.0" encoding="utf-8"?>
<!-- Generator: Adobe Illustrator 24.0.1, SVG Export Plug-In . SVG Version: 6.00 Build 0)  -->
<svg version="1.1" id="Layer_1" xmlns="http://www.w3.org/2000/svg" xmlns:xlink="http://www.w3.org/1999/xlink" x="0px" y="0px"
	 viewBox="0 0 1024 1024" style="enable-background:new 0 0 1024 1024;" xml:space="preserve">
<style type="text/css">
	.st0{fill:#FFFFFF;}
</style>
<g>
	<path class="st0" d="M306.4,466.5c74.9,0,135.5-60.7,135.5-135.5c0-74.8-60.6-135.5-135.5-135.5c-74.8,0-135.5,60.7-135.5,135.5
		C171,405.8,231.6,466.5,306.4,466.5z"/>
	<path class="st0" d="M475.7,523.3c-26.7-20.7-66.5-25.8-113.3-25.8H234c8,51.6-14.8,100-59,121.2c-21.1,10.1-59.4,18.4-97.6-1
		c-3.6,18-5.6,38.2-5.6,61.1l0.6,191.3h122.7v-96.3h29.3l11,96.3h214.4l0.2-159.7c23.5,7.7,46.4,14,68.6,19.1
		c0-36.7-0.1-69-0.1-94.2C518.7,611.5,511,550.7,475.7,523.3z"/>
	<path class="st0" d="M938.3,590c-28.5,13.4-65.4,9-89.3-2.6c-43.8-21.3-66.8-69.4-59-120.4l-137-0.9c-61.2,0-106.5,4.3-137.3,31.1
		c0,0,49.7,52.8,49.7,138c0,61.7,0.1,125.7,0.2,235.1h218.3l10.3-113.4h29.2v113.4h119.7l0.1-222.6
		C943.2,626.2,941.4,607.2,938.3,590z"/>
	<path class="st0" d="M570.6,291.8c0,76.3,61.9,138.2,138.2,138.2c76.3,0,138.2-61.9,138.2-138.2c0-76.3-61.9-138.2-138.2-138.2
		C632.4,153.6,570.6,215.5,570.6,291.8z"/>
	<path class="st0" d="M160.1,587.3c37.9-16.6,47.9-61.3,35.5-99.9c-8.1-25.3-15.6-36.6-35.3-36.9c-15.6-0.3-34.5,8.6-54.3,18
		c-37.4,17.8-62.9,28.6-49,71.6c1.7,5.2,3.8,16.6,10.9,25.7C88.3,592.1,124.7,602.8,160.1,587.3z"/>
	<path class="st0" d="M917.9,437.5c-19.9-9.4-38.8-18.3-54.3-18c-19.7,0.3-27.2,11.6-35.3,36.9c-12.4,38.6-2.4,83.2,35.5,99.9
		c35.4,15.6,71.8,4.8,92.2-21.4c7.1-9.1,9.1-20.5,10.9-25.8C980.8,466.1,955.3,455.3,917.9,437.5z"/>
</g>
</svg>
