<?xml version="1.0" encoding="utf-8"?>
<!-- Generator: Adobe Illustrator 24.0.1, SVG Export Plug-In . SVG Version: 6.00 Build 0)  -->
<svg version="1.1" id="Layer_1" xmlns="http://www.w3.org/2000/svg" xmlns:xlink="http://www.w3.org/1999/xlink" x="0px" y="0px"
	 viewBox="0 0 1024 1024" style="enable-background:new 0 0 1024 1024;" xml:space="preserve">
<style type="text/css">
	.st0{fill:#FFFFFF;}
</style>
<g>
	<path class="st0" d="M64.7,601.9c9.3,5.8,23.6,6.3,33.1-6.4l6.8-10.1c54.3-0.2,106.6-2.2,157.4-6.3l-1.6,7.1
		c-4,16.1,8.1,27.8,21.2,28.9c12.1,1,22.5-5.9,25.3-18.6l4.9-22.1c101.3-11,197.3-30.5,292.1-59.5l12.4,17
		c7.7,10.8,22.4,12.9,33.3,5.2c10.7-7.6,13-22.6,5.2-33.2l-3.2-4.5c50.1-17.1,100.2-37,150.9-59.6l10.2,6.5c9.4,5.7,23,6.1,32.9-7.4
		c7.7-10.6,3.7-25.8-7.4-32.9c0,0-327.1-212.4-436.7-285.3c-20.6-13.7-44.5-11.2-57.9,9.2C267.9,245.5,58.4,568.8,58.4,568.8
		C51,579.7,53.6,594.8,64.7,601.9z M745.3,409.8c-38.6,17.3-76.8,32.4-115,45.4L430.2,193.7L745.3,409.8z"/>
	<path class="st0" d="M547.1,800.4c0,0-35.6,11.9-47.5,15.8c-166.8,54.5-267.9,86.1-402,32.6l-13.3,33.4
		c53,21.1,101.4,29.9,149.7,29.9c84.8,0,169.3-26.5,276.7-61.6c12-3.9,48.1-16,48.1-16c120.6-41,257.3-87.5,391.8-1.1l19.5-30.3
		C820.9,707.4,669.1,759,547.1,800.4z"/>
	
		<rect x="470.7" y="592.9" transform="matrix(0.9765 -0.2156 0.2156 0.9765 -136.6376 121.5199)" class="st0" width="36" height="188.5"/>
</g>
</svg>
