<?xml version="1.0" encoding="utf-8"?>
<!-- Generator: Adobe Illustrator 24.0.1, SVG Export Plug-In . SVG Version: 6.00 Build 0)  -->
<svg version="1.1" id="Layer_1" xmlns="http://www.w3.org/2000/svg" xmlns:xlink="http://www.w3.org/1999/xlink" x="0px" y="0px"
	 viewBox="0 0 1024 1024" style="enable-background:new 0 0 1024 1024;" xml:space="preserve">
<style type="text/css">
	.st0{fill:#FFFFFF;}
</style>
<g>
	<path class="st0" d="M8.9,868.5c0,0-3.5,31.1,35.2,41.3c43.2,11.4,51.7-18.9,51.7-18.9l74.6-159.9c-25.4-23.5-67-62-93.4-86.8
		L8.9,868.5z"/>
	<path class="st0" d="M995.1,615.8l-426.6-89.3c-10.5-2.2-19.7,5.4-20.5,16.8l-4.2,90.9l230.3,115.4c26.2-24,63.1-35.5,100.4-27.7
		c20.3,4.2,38,13.7,52.4,26.6l79.6-93.5C1021.2,637.8,1016.1,620.1,995.1,615.8z"/>
	<path class="st0" d="M868.4,501.7c-23.8-34.1-63.8-54.8-98.4-62.1c-67.2-14.1-132.4,13.5-162.7,63.8l375,78.5
		C976.2,513.5,903,494.1,868.4,501.7z"/>
	<path class="st0" d="M827.3,895.2c-7.3-4.1-13.5-9.7-18.1-16.4l-53.5-27.1c0.4,34.2,19.2,65.7,48.7,82.2
		c25.5,14.3,67.2,18.8,101.6-6l-53.2-27C842.7,901.5,833.7,898.8,827.3,895.2z"/>
	<path class="st0" d="M618.2,877.7l101.7-72l211.8,107c3.1,1.5,6.3,2.3,9.5,2.3c7.7,0,15.2-4.2,18.9-11.6
		c5.3-10.4,1.1-23.1-9.3-28.4l-7-3.5c7.5-32.5-1.1-78.5-47.2-104.6c-40.7-23.1-91.4-9.7-117.7,21.3L428.7,611.1
		c-1.1-10.5-5.7-20.6-14-28c-95.7-85.3-86.1-181.4-87.9-236.9c-1.5-45.8-39.2-74.6-65.7-80.7c-37.7-8.7-66.5-4.7-97.3,22.2
		C116.2,329.4,60.3,462.6,52.4,520.1c-3.8,27.6,6.4,58.2,33.5,84.1c30.3,29,130.2,121.2,130.2,121.2l-29.3,175
		c0,0-7.8,31.6,28.2,47.7c28.8,13,52.8-6.6,55-11.3c23.3-50.2,63.6-220,63.6-220c3.3-12.2,3.3-25.1-3.3-33.8L210.3,528.6l26.4-52.4
		c14.7,60.2,60.9,130.7,120.8,172c16,11,36.7,16.4,54.7,1.9l131.7,66.5l-11.9,127.9c-1.3,18.3,10.6,35.4,27.2,38.9
		C582.5,889,598.4,888.6,618.2,877.7z M598.4,848.5c-10.4,7.4-21,4.6-31.4,0.6l11.6-114.9l105.2,53.2L598.4,848.5z M821.7,809.7
		c11.1-7.9,25.1-11.6,39.5-8.6c23.5,4.9,39.5,25.6,39.9,48.7L821.7,809.7z"/>
	<path class="st0" d="M417.3,164.3c0,51.6-41.8,93.4-93.4,93.4c-51.6,0-93.4-41.8-93.4-93.4c0-51.6,41.8-93.4,93.4-93.4
		C375.4,70.8,417.3,112.7,417.3,164.3z"/>
</g>
</svg>
