<?xml version="1.0" encoding="utf-8"?>
<!-- Generator: Adobe Illustrator 24.0.1, SVG Export Plug-In . SVG Version: 6.00 Build 0)  -->
<svg version="1.1" id="Layer_1" xmlns="http://www.w3.org/2000/svg" xmlns:xlink="http://www.w3.org/1999/xlink" x="0px" y="0px"
	 viewBox="0 0 1024 1024" style="enable-background:new 0 0 1024 1024;" xml:space="preserve">
<style type="text/css">
	.st0{fill:#FFFFFF;}
</style>
<g>
	<path class="st0" d="M708.7,669.7c0.2-9.1,0.3-48.1,9.6-58.6c0,0,8.3,45.2,45.5,96.4c69.8-69.2,113-165.1,113-271.1
		c0-211.1-171.2-382.1-382.2-382.1c-211-0.1-382.1,171-382.1,382c0,124.8,59.9,235.7,152.4,305.5c47.5,87.1,123.4,154.7,229.8,154.7
		c100.2,0,166.9-59.9,204.8-111.9c-18.5-32.1-24.2-70.6-18.7-96.2c3.8,10.8,12.9,20.9,12.9,20.9c-6-19.4-6.2-54.2,2.8-69.5
		C699.5,654.8,708.7,669.7,708.7,669.7z M204,503.4c0,49.8,9.1,107,27.7,162.1c-39.8-54.1-63.3-120.8-63.3-192.8
		c0-179.9,146.3-326.2,326.2-326.2c179.9,0,326.2,146.3,326.2,326.2c0,71-22.9,136.8-61.6,190.4c16.6-51.3,26-106.7,26-159.8
		c0-166.6-127.7-297.1-290.7-297.1C331.6,206.3,204,336.8,204,503.4z M287.7,526.7c0-38.7,39-70,86.9-70s86.9,31.4,86.9,70
		c0,38.7-39,70-86.9,70C326.7,596.7,287.7,565.4,287.7,526.7z M494.6,795.4c-44.8,0-81.1-19.8-81.1-44.2c0-12.1,8.9-23.1,23.5-31.1
		c6.8,14,29.9,24.2,57.6,24.2c27.7,0,50.8-10.3,57.6-24.2c14.5,8,23.4,19,23.4,31C575.7,775.6,539.4,795.4,494.6,795.4z
		 M617.2,596.7c-48,0-86.9-31.3-86.9-70s39-70,86.9-70s86.9,31.4,86.9,70C704.1,565.4,665.2,596.7,617.2,596.7z"/>
	<path class="st0" d="M374.5,519.9c-16.1,0-31.4-5.2-42-14.5l-19.8,22.8c16.2,14.1,38.2,21.9,61.8,21.9c23.6,0,45.5-7.7,61.7-21.9
		l-19.8-22.8C405.8,514.6,390.5,519.9,374.5,519.9z"/>
	<path class="st0" d="M616.8,519.9c-16.1,0-31.4-5.2-41.9-14.5l-19.8,22.8c16.2,14.1,38.2,21.9,61.7,21.9c23.7,0,45.5-7.7,61.8-21.9
		l-19.8-22.8C648.3,514.6,632.9,519.9,616.8,519.9z"/>
	<path class="st0" d="M801.3,758.8l-11.5-14.5l-75,59.8l11.5,14.5l145.3,139.6c10.5,11.5,25,14.7,33.3,8c8.3-6.6,8.5-21.4-0.5-34.3
		L801.3,758.8z"/>
</g>
</svg>
