<?xml version="1.0" encoding="utf-8"?>
<!-- Generator: Adobe Illustrator 24.0.1, SVG Export Plug-In . SVG Version: 6.00 Build 0)  -->
<svg version="1.1" id="Layer_1" xmlns="http://www.w3.org/2000/svg" xmlns:xlink="http://www.w3.org/1999/xlink" x="0px" y="0px"
	 viewBox="0 0 1024 1024" style="enable-background:new 0 0 1024 1024;" xml:space="preserve">
<style type="text/css">
	.st0{fill:#FFFFFF;}
</style>
<g>
	<path class="st0" d="M460.4,585.8h-98.2c29.3-48.2,82.3-82.1,147.7-99.2l105.6,89.1L721,486.6C821.8,513,893.6,578.7,893.6,676
		v172.6H527c0.7-3.2,1.2-6.5,1.2-9.9V712.3c0-2.9-0.3-5.9-1.2-9.9l-19.7-82C502.9,600.6,485.7,585.8,460.4,585.8z"/>
	<path class="st0" d="M612.5,101c-92.4,0-167.3,74.9-167.3,167.3s74.9,167.3,167.3,167.3c92.4,0,167.3-74.8,167.3-167.3
		S704.9,101,612.5,101z"/>
	<rect x="55.7" y="888.2" class="st0" width="912.6" height="34.2"/>
	<path class="st0" d="M483.2,712.1l-20-84.3c-1-4.6-5-7.9-9.7-7.9H246.5v-30.6h65.6c3,0,5.6-1.5,7.2-3.8c1.1-1.5,1.9-3.2,1.9-5.2
		v-82.7c0-5-4.1-9.1-9.1-9.1H114.3c-5,0-9.1,4.1-9.1,9.1v83.6c0,2.2,0.9,4.1,2.2,5.7c1.7,2,4.1,3.3,6.8,3.3H179V620h-66.7
		c-4.7,0-8.7,3.3-9.7,7.9l-20,84.3v39.2h400.5V712.1z M138.5,550.7v-27H287v27H138.5z"/>
	<path class="st0" d="M92.6,848.6h380.8c5.5,0,9.9-4.4,9.9-9.9v-53.1H82.7v53.2C82.7,844.2,87.1,848.6,92.6,848.6z"/>
</g>
</svg>
