<?xml version="1.0" encoding="utf-8"?>
<!-- Generator: Adobe Illustrator 24.0.1, SVG Export Plug-In . SVG Version: 6.00 Build 0)  -->
<svg version="1.1" id="Layer_1" xmlns="http://www.w3.org/2000/svg" xmlns:xlink="http://www.w3.org/1999/xlink" x="0px" y="0px"
	 viewBox="0 0 1024 1024" style="enable-background:new 0 0 1024 1024;" xml:space="preserve">
<style type="text/css">
	.st0{fill:#FFFFFF;}
</style>
<g>
	<path class="st0" d="M89.8,601.7c72.5-28.7,169-59.2,266-87.4c-38.9-24.7-113.3-71.6-152.9-93.6c-82.2-45.8-152.8-46.9-185.8,5.7
		C-25.6,494.4,51.7,569.2,89.8,601.7z"/>
	<path class="st0" d="M895.5,135.2L639.3,293.9c0,0-26.5,16.8-43.4,36.8L492.5,454.1c-5.9,6.2-10.3,13.6-8.9,24.1l243.7-57l57-20.9
		L677.9,539.2c-13.5,17.8-11.6,47.7,12,65.1c23.6,17.4,54.9,11.9,68.4-5.8l72-90.8l102.9-94.9c26.8-24.7,30-59.1,25.1-82.5
		l63.4-82.3L895.5,135.2z"/>
	<path class="st0" d="M918.1,465.3L851.3,527l-38.4,48.4c21.2-8.7,47.2-16.1,70.8-8.2c22.1,7.5,55.2-17.7,48.7-59.8
		C929.6,488.9,924.5,475.4,918.1,465.3z"/>
	<path class="st0" d="M700.7,462.8C559.9,490.6,195.2,586.8,66,644.8c-13,5.8-13.2,18-4.9,24.4c24.7,19.1,78.9,53.5,173.3,65.9
		c0.2-12.2,1.6-24.2,4.3-35.9c-55.1-7.1-94.8-22-121.3-36C231.1,617.5,449.1,561.5,532.3,540l27.1,121.8c-6.3,1.9-12.5,3.6-18.7,5.4
		c6.5,10.7,11.8,21.7,15.8,33.1c14.6-4.2,29.5-8.8,44.9-13.8l-18.1-83.8c16.1-6.3,41.1-7.1,65.8-3.8c-10-21-13.4-48.9,6.1-76.8
		L700.7,462.8z"/>
	<path class="st0" d="M390,607.7c-31.3,0-60,10.4-83.2,30.1c-56.4,47.8-60.3,136.3-8.6,197.3c29,34.1,70.1,53.7,112.9,53.7
		c31.2,0,60-10.4,83.2-30c56.4-47.9,60.3-136.4,8.6-197.3C473.9,627.2,432.8,607.7,390,607.7z M474.4,835.3
		c-17.6,14.9-39.5,22.8-63.3,22.8c-33.8,0-66.4-15.6-89.5-42.9c-40.7-48-38.5-117.1,5.1-154l0,0c17.5-14.9,39.4-22.8,63.3-22.8
		c33.7,0,66.4,15.6,89.5,42.9C520.2,729.3,517.9,798.4,474.4,835.3z"/>
	<path class="st0" d="M354.3,778.6c-7.6,7.7-8.2,19.5-1.3,26.4c6.9,6.9,18.7,6.4,26.4-1.3c13-13,11.8-36.9,11.8-36.9
		S366.5,766.4,354.3,778.6z"/>
	<path class="st0" d="M353.1,698.8c-6.9,6.9-6.3,18.8,1.3,26.4c12.2,12.2,36.9,11.8,36.9,11.8s1.2-23.9-11.8-36.9
		C371.8,692.4,360,691.9,353.1,698.8z"/>
	<path class="st0" d="M457.9,725.2c5.6-5.6,7.4-13.5,5.2-20c-0.8-2.4-2.1-4.6-3.9-6.4c-0.1-0.1-0.1-0.1-0.2-0.2
		c-7-6.7-18.7-6.1-26.3,1.5C420.6,712.3,421,737,421,737S444.9,738.2,457.9,725.2z"/>
	<path class="st0" d="M421,766.8c0,0-0.4,24.7,11.8,36.9c7.6,7.7,19.5,8.2,26.4,1.3c6.9-6.9,6.3-18.7-1.3-26.4
		C444.9,765.5,421,766.8,421,766.8z"/>
</g>
</svg>
