<?xml version="1.0" encoding="utf-8"?>
<!-- Generator: Adobe Illustrator 24.0.1, SVG Export Plug-In . SVG Version: 6.00 Build 0)  -->
<svg version="1.1" id="Layer_1" xmlns="http://www.w3.org/2000/svg" xmlns:xlink="http://www.w3.org/1999/xlink" x="0px" y="0px"
	 viewBox="0 0 1024 1024" style="enable-background:new 0 0 1024 1024;" xml:space="preserve">
<style type="text/css">
	.st0{fill:#FFFFFF;}
</style>
<g>
	<path class="st0" d="M829.9,324.6c3.7,0,7.4-0.6,11-1.7c24.9-7.6,24.1-25.5,24.1-25.6l0.3-84.5l84.7-8.4v49.2
		c-6-1.4-12.4-1.1-18.5,0.8c-16.9,5.2-27.3,20.8-23,34.8c3.3,10.7,14.1,17.7,27.5,17.7c3.7,0,7.3-0.5,11-1.6c24.3-6.9,24-24.9,24-25
		l0.1-112.2c0-7.5-6.5-9.6-10.1-9.3l-108.1,10.7c-4.7,0-8.8,4.8-8.8,10.3v91.7c-6-1.4-12.4-1.1-18.5,0.7
		c-16.9,5.1-27.1,20.7-22.9,34.6C805.9,317.5,816.8,324.6,829.9,324.6z"/>
	<path class="st0" d="M228.6,647.7l-102.3,70c-15.9,10.8-20.8,22.8-20.6,32.5c0.9,30.3,13.2,102.6,17.7,143.5c0,0,3.7,40.9,43,37.3
		c42.6-3.9,33.8-42.4,33.8-42.4l-12.8-96.3l57.4-34.2l19.2-49.7l29.9,11.6l-24.6,73.2c-5.4,13.1-7.3,17.3-1.9,34.8l21.9,80.4
		c0,0,9.9,43.3,50.6,34c41.3-9.5,28.3-48.6,28.3-48.6l-21.5-84.5c0,0,31.4-67.3,39.2-80.4c3.1-5.3,6.1-11.7,7.3-15.9
		c-22.3-6.8-34.8-26.9-33.4-44.3l8.6-91.5l-14.6-28.7l44.4,9.7L387.5,657c0,0-2.1,24.7,27.5,31.7c27.9,6.7,35.4-16.1,35.4-16.1
		L477.5,544c3.1-17.3-4.4-33.8-18.4-38.6l-151.2-51.2c-18.6,14.2-41.8,22.8-67,22.8c-34.5,0-65.4-15.9-85.7-40.8
		c-27.1-10.8-65.5-26.2-65.5-26.2l28.1-101.6c0,0,3.4-24.5-25.7-33.2c-27.5-8.2-36.2,14.1-36.2,14.1L5,434.3
		c-3.5,8.1-0.3,18.9,7.1,23.9L189.9,547L228.6,647.7z"/>
	<path class="st0" d="M240.9,448.6c45.5,0,82.3-36.8,82.3-82.3c0-45.5-36.9-82.3-82.3-82.3c-45.5,0-82.3,36.9-82.3,82.3
		C158.6,411.8,195.4,448.6,240.9,448.6z"/>
	<path class="st0" d="M647.2,289.5c55.1,0,99.8-44.7,99.8-99.8c0-55.1-44.6-99.8-99.8-99.8c-55.1,0-99.7,44.7-99.7,99.8
		C547.5,244.8,592.1,289.5,647.2,289.5z"/>
	<path class="st0" d="M516,412.2l32.2,164.2l-93.7,323.9c-6.7,25.3,3.2,52.8,30.9,61.8c30.5,9.8,56.5-3.2,63.5-28.5l105-288.7
		l13.1,274.5c4,27.2,23.1,45.9,51.7,45.9c29.1,0,48-19.9,51.2-47.2l0-289.8c0-33.2-7.5-51.4-16.8-75.8
		c-8.2-21.7-23.4-53.5-23.4-53.5l60.8,54.8c11.8,12.4,29.8,16.9,46.1,11.6l152.9-50c23.4-7.6,36.2-32.8,28.5-56.3
		c-7.7-23.4-32.8-36.2-56.3-28.5l-126.6,27l-96-101.2c-16.2-17.6-33.5-24-55.8-30.6c-25.5-7.6-219.6-70.8-219.6-70.8l46.2-128.6
		c11.3-23.4,1.6-51.6-21.9-62.9c-23.4-11.3-51.6-1.6-62.9,21.8l-74.1,177.7c-7.9,16.3-9.7,36.1,5.5,49.9L516,412.2z"/>
</g>
</svg>
