<?xml version="1.0" encoding="utf-8"?>
<!-- Generator: Adobe Illustrator 24.0.1, SVG Export Plug-In . SVG Version: 6.00 Build 0)  -->
<svg version="1.1" id="Layer_1" xmlns="http://www.w3.org/2000/svg" xmlns:xlink="http://www.w3.org/1999/xlink" x="0px" y="0px"
	 viewBox="0 0 1024 1024" style="enable-background:new 0 0 1024 1024;" xml:space="preserve">
<style type="text/css">
	.st0{fill:#FFFFFF;}
</style>
<g>
	<path class="st0" d="M244.8,366.5c39.7,0,71.9-32.2,71.9-71.9c0-39.7-32.2-72-71.9-72c-39.7,0-71.9,32.2-71.9,72
		C172.9,334.3,205.1,366.5,244.8,366.5z"/>
	<path class="st0" d="M452.3,623.8c12.1,0,20.5-6.2,25.5-12.9v-40.1c-1.6-2.2-3.4-4.3-5.7-6.3c0,0-78.9-62.1-105-123.8
		c-16-38-37-52.1-77.3-55.1l-45.2,35.9l-45.2-35.9c-54,4-82.6,31.6-82.6,98.4l0.3,143c0,21.2,14.9,38,42.9,38v212.9
		c0,23.4,18.9,42.3,42.3,42.3c23.3,0,42.3-18.9,42.3-42.3c0,23.4,19,42.3,42.3,42.3c23.3,0,42.3-18.9,42.3-42.3l0.3-342.7
		c22.2,30.6,64.4,66.3,101.3,83.3C439.1,622.3,446.2,623.8,452.3,623.8z M230.3,479.1c0,3.2-2.6,5.8-5.8,5.8h-37.8
		c-3.2,0-5.9-2.6-5.9-5.8v-20.8c0-3.2,2.6-5.8,5.9-5.8h37.7c3.3,0,5.9,2.6,5.9,5.8V479.1z"/>
	<path class="st0" d="M562.5,55.2c-6.6-3.6-14.6-3.3-21,0.8l-138,88.9c-5.9,3.8-9.4,10.3-9.4,17.3v255.8
		c14.9,35.3,58.4,84.3,83.7,106.8v-24.9c0-8.9,6.7-16.6,15.5-17.4c10.1-0.9,18.7,7.1,18.7,17v169.2c0,8.9-6.7,16.6-15.5,17.4
		c-10.1,0.9-18.7-7.1-18.7-17v-16.2c-8,3.4-16.6,5.2-25.6,5.2c-11.6,0-23.7-2.9-35.9-8.5c-7.3-3.3-14.7-7.4-22.2-11.9v224.1
		c0,7,3.5,13.5,9.4,17.3l138,88.8c14.3,8.4,31.7-1.8,31.7-17.3V103.6V73.3C573.2,65.7,569.1,58.8,562.5,55.2z"/>
	<path class="st0" d="M890,148.4H611.9v34.2h261v658.8h-261v34.2H890c9.4,0,17.1-7.7,17.1-17.1v-693
		C907.1,156,899.4,148.4,890,148.4z"/>
</g>
</svg>
