<?xml version="1.0" encoding="utf-8"?>
<!-- Generator: Adobe Illustrator 24.0.1, SVG Export Plug-In . SVG Version: 6.00 Build 0)  -->
<svg version="1.1" id="Layer_1" xmlns="http://www.w3.org/2000/svg" xmlns:xlink="http://www.w3.org/1999/xlink" x="0px" y="0px"
	 viewBox="0 0 1024 1024" style="enable-background:new 0 0 1024 1024;" xml:space="preserve">
<style type="text/css">
	.st0{fill:#FFFFFF;}
</style>
<g>
	<path class="st0" d="M327.5,458c0,29.6-10.8,56.6-28.7,77.6c57.4,22,71,76.7,71,123.3l-0.3,132.8c0,30.7-16.9,54.5-43.8,65.1
		l-0.1,57.5h206.2l0.2-129.7l36.5-25.2c0,26.4-0.1,93.4-0.1,155h185.7v-15c-22.5-10.4-36.9-31.7-36.9-58.1L717,729.1
		c0-61.3,25.3-91.6,55.9-105.9c-13.4-18-21.4-40.1-21.4-64.2c0-23.3,7.5-44.9,20.1-62.5c-9.4-3.3-18.3-8.3-26-14.8
		c-28.7-24.1-35.9-64.7-19.5-100.7c-22.5-1.5-99.8-1.7-126,3.3c-55.8,10.5-85.3,46.2-85.3,122.8l0,18.1
		c-10.5-5.1-23.2-10.4-33.9-10.2l2.4-33.4c5.4-57,29.4-96.1,71.9-116.7c-22.7-15.1-53.1-21.9-91-21.9h-87.9
		c-38.7,0-69.7,6.8-92.7,22.4C310.4,387.3,327.5,420.7,327.5,458z M470.1,546.7c21.9,0,41.2,10.7,53.2,27.1
		c12-16.4,31.3-27.1,53.2-27.1c36.4,0,65.9,29.5,65.9,66c0,61.6-119.1,138.9-119.1,138.9s-119.1-73.7-119.1-138.9
		C404.2,576.3,433.7,546.7,470.1,546.7z"/>
	<path class="st0" d="M420,316.1c57.1,0,103.3-46.3,103.3-103.3c0-57-46.2-103.3-103.3-103.3c-57,0-103.2,46.2-103.2,103.3
		C316.8,269.9,363,316.1,420,316.1z"/>
	<path class="st0" d="M159.8,654.7c-15.2,12.2-34.3,19.2-53.8,19c-9.2-0.1-20.2-2-28.7-5.1l0.3,123c0,21.3,14.9,38.3,42.9,38.3v84.5
		h172.8l0.1-84.5c28.7,0,43.1-17,43.1-38.3l0.3-132.9c0-67.8-28.8-95.8-83.1-99.9h-69.1C196.7,594.2,187.8,632.1,159.8,654.7z"/>
	<path class="st0" d="M898.3,644.3h-77.5c-46.5,3.5-71.2,27.1-71.2,84.4l0.3,112.4c0,18,12.8,32.3,36.6,32.3v40.8h145.8l0.1-40.8
		c24.5,0,36.8-14.4,36.8-32.3l0.3-112.4C969.5,671.4,944.9,647.8,898.3,644.3z"/>
	<path class="st0" d="M791,558.8c0,37.9,30.7,68.6,68.6,68.6c37.9,0,68.6-30.7,68.6-68.6c0-37.9-30.7-68.6-68.6-68.6
		C821.7,490.2,791,520.9,791,558.8z"/>
	<path class="st0" d="M207.2,539c44.9,0,81.2-36.3,81.2-81.2c0-44.9-36.3-81.2-81.2-81.2c-44.9,0-81.2,36.3-81.2,81.2
		C126,502.6,162.3,539,207.2,539z"/>
	<path class="st0" d="M669.1,358.2c52.9,0,95.8-42.9,95.8-95.8c0-52.9-42.9-95.8-95.8-95.8c-52.9,0-95.8,42.9-95.8,95.8
		C573.3,315.3,616.2,358.2,669.1,358.2z"/>
	<path class="st0" d="M765.2,458.1c10,8.3,22.4,12.6,34.6,12.6c11.3,0,22.4-3.7,31.4-10.8c7.6-5.9,10.8-12.1,13.1-16.4
		c15-27.8,0.4-37.5-21.8-56.1c-14.1-11.8-27.4-23.1-39.7-22.6c-8.6,0.4-12.3,1.3-24.2,19.6C743.3,408.1,743,439.5,765.2,458.1z"/>
	<path class="st0" d="M74.7,630.2c9,7.1,20.1,10.8,31.4,10.8c12.2,0,24.7-4.2,34.7-12.6c22.2-18.6,21.9-50.1,6.5-73.8
		c-11.9-18.3-15.7-19.2-24.2-19.6c-12.2-0.5-25.6,10.8-39.7,22.6c-22.1,18.6-36.7,28.3-21.7,56.1C63.9,618.1,67.1,624.3,74.7,630.2z
		"/>
</g>
</svg>
