<?xml version="1.0" encoding="utf-8"?>
<!-- Generator: Adobe Illustrator 24.0.1, SVG Export Plug-In . SVG Version: 6.00 Build 0)  -->
<svg version="1.1" id="Layer_1" xmlns="http://www.w3.org/2000/svg" xmlns:xlink="http://www.w3.org/1999/xlink" x="0px" y="0px"
	 viewBox="0 0 1024 1024" style="enable-background:new 0 0 1024 1024;" xml:space="preserve">
<style type="text/css">
	.st0{fill:#FFFFFF;}
</style>
<g>
	<path class="st0" d="M300.5,255.9c-135.7,0-192.5,48-192.5,138.1l0.4,228.5c0,31.9,22.4,57.2,64.6,57.2v277.4
		c0,35.1,28.5,63.5,63.6,63.5c35,0,63.4-28.4,63.4-63.5c0,35.1,28.5,63.5,63.5,63.5s63.4-28.4,63.4-63.5l0.6-494.3
		c28.3,38.9,94.3,96.2,140.7,114.1c-20,3-23.3,17.7-23.3,32.9l-0.1,29.2H574l0.3-17.5c0-7.5,6.5-9.1,11.5-9.1
		c2.9,0,7.7,0.5,13.3,1.1c7.7,0.8,16.5,1.7,24.1,1.7c9.6,0,18.7-1,26-1.8c4.5-0.5,9.1-1,11.7-0.9c4.8,0.1,11.2,1,11.2,8.9l0.3,17.8
		H702l-0.1-30.8c0-21-9.3-31.6-27.6-32.4c-1.3-0.1-10.7-0.5-13.6-0.3c11.3-19.2,5.3-50.1-23.9-70c-41.8-28.5-107-67.6-143.6-147.9
		C468.5,303.4,442,255.9,300.5,255.9z"/>
	<path class="st0" d="M763,975.8V689.2c0-13.4-10.8-24.2-24.2-24.2H509.2c-13.3,0-24.2,10.8-24.2,24.2v286.6
		c0,13.4,10.8,24.2,24.2,24.2H530l0,5.8c0,6.2,5.8,14.4,14.1,14.2l26,0c9.5-0.7,14-8.1,13.9-14.4l0-5.6h79v5.1
		c0.1,7.3,5.6,13.2,12.7,13.9h28.1c7.4-0.5,13.3-6.6,13.2-14.1l0-4.9h21.8C752.2,1000,763,989.2,763,975.8z M711,944H537v-28h174
		V944z M706.7,761.2c-21.5-15-51.8-23.6-83.2-23.6c-31.4,0-61.7,8.6-83.2,23.6l-16.3-23.3c26.5-18.5,61.8-28.7,99.4-28.7
		c37.6,0,72.9,10.2,99.4,28.7L706.7,761.2z"/>
	<path class="st0" d="M413.6,116.6C413.6,54,362.9,3.3,300.5,3.3c-62.6,0-113.3,50.7-113.3,113.3c0,62.5,50.7,113.3,113.3,113.3
		C362.9,229.9,413.6,179.1,413.6,116.6z"/>
	<path class="st0" d="M647.5,394.6c-0.2,0.9,0.1,1.7,0.7,2.5c0.8,1,2,0.7,2.6,0.5l47.6-19.2c0.6-0.2,1-0.6,1.3-1.1l47.6-94.8
		c-6.2,2.3-57.5,16.1-73.4,19.7L647.5,394.6z"/>
	<path class="st0" d="M593.4,95.8c-0.6-0.3-1.2-0.3-1.8,0l-47.1,18.5c-0.9,0.3-1.4,1.1-1.6,2c-0.1,0.9,0.3,1.9,1,2.3l120.9,85.2
		c-33.4,16.3-62.6,32.1-93.9,50.7l-31.2-28.7c-0.7-0.7-1.7-0.8-2.6-0.5l-21,8.3c-1.2,0.5-1.9,1.9-1.4,3.2l17.1,44.5
		c-6.7,6.2-9.2,10.9-7.7,14.7c1.5,3.9,7.7,6.1,17.2,5.7l10.7,34.6c0.2,0.6,0.6,1.1,1.3,1.4c0.9,0.4,1.4,0.3,1.9,0.1l21.1-8
		c0.8-0.3,1.4-1,1.5-1.8l6.8-32c43.6-9.8,170.9-45.4,216.9-64c105-42.6,119.5-71.3,112.4-87.2c-13.1-29.3-117.2-1.6-154.1,17.7
		L593.4,95.8z"/>
</g>
</svg>
