<?xml version="1.0" encoding="utf-8"?>
<!-- Generator: Adobe Illustrator 24.0.1, SVG Export Plug-In . SVG Version: 6.00 Build 0)  -->
<svg version="1.1" id="Layer_1" xmlns="http://www.w3.org/2000/svg" xmlns:xlink="http://www.w3.org/1999/xlink" x="0px" y="0px"
	 viewBox="0 0 1024 1024" style="enable-background:new 0 0 1024 1024;" xml:space="preserve">
<style type="text/css">
	.st0{fill:#FFFFFF;}
</style>
<g>
	<path class="st0" d="M1016.1,720l-84.2-343.7c-4.7-14.6-19.6-18.3-33.1-18.3H823v-20.6c0-48.3-32.5-87-124.5-87
		c-92.2,0-124.5,38.8-124.5,87V358H451v-20.6c0-48.3-32.5-87-124.5-87c-92.2,0-124.5,38.8-124.5,87V358h-75.8
		c-13.5,0-29.7,2.6-33.1,18.3l-84,343.3c-4.4,14.7-6.1,25.7,0.3,37.2c6.9,12.5,20,20.3,34.3,20.3h83c13.6-18.7,32.6-33.6,56.5-44H53
		c-0.6,0-1.1-0.3-1.5-0.8c-0.3-0.5-0.4-1.1-0.2-1.8l77.2-327.2c0.3-0.7,1-1.3,1.7-1.3h764c0.8,0,1.5,0.5,1.7,1.1l77.2,327.5
		c0.2,0.6,0.1,1.1-0.3,1.6c-0.3,0.5-0.8,0.7-1.5,0.7H841.5c23.9,10.4,42.8,25.3,56.5,44h83.4c14.3,0,27.3-7.7,34.1-20
		C1022.1,745.3,1019.2,734.6,1016.1,720z"/>
	<path class="st0" d="M639.5,733H385.2c23.9,10.4,42.8,25.3,56.5,44H583C596.6,758.3,615.6,743.4,639.5,733z"/>
	<circle class="st0" cx="698.2" cy="153.1" r="75.5"/>
	<path class="st0" d="M326.1,228.7c41.7,0,75.5-33.8,75.5-75.5c0-41.7-33.9-75.5-75.5-75.5c-41.7,0-75.5,33.9-75.5,75.5
		C250.6,194.8,284.4,228.7,326.1,228.7z"/>
	<path class="st0" d="M371.5,635.5c0-48.5-39.3-87.8-87.8-87.8c-48.5,0-87.8,39.3-87.8,87.8c0,48.5,39.3,87.8,87.8,87.8
		C332.2,723.3,371.5,684,371.5,635.5z"/>
	<path class="st0" d="M284.2,746.9c-75.8,0-138.4,25.3-148.5,93.1c-12.8,6.8-21.7,20.1-21.7,35.6V947h38v-68.2
		c0-3.2,2.6-5.8,5.8-5.8h252.4c3.2,0,5.8,2.6,5.8,5.8V947h38v-71.4c0-11.2-4-25.6-21.4-35.6C422.6,772.2,360,746.9,284.2,746.9z"/>
	<path class="st0" d="M828.8,635.5c0-48.5-39.3-87.8-87.8-87.8c-48.5,0-87.8,39.3-87.8,87.8c0,48.5,39.3,87.8,87.8,87.8
		C789.5,723.3,828.8,684,828.8,635.5z"/>
	<path class="st0" d="M741.2,746.9c-75.8,0-138.4,25.3-148.5,93.1c-12.8,6.8-21.7,20.1-21.7,35.6V947h38v-68.2
		c0-3.2,2.6-5.8,5.8-5.8h252.4c3.2,0,5.8,2.6,5.8,5.8V947h38v-71.4c0-11.9-4.1-25.4-21.4-35.6C879.6,772.2,817,746.9,741.2,746.9z"
		/>
	<path class="st0" d="M326.8,511.2c44.4,0,80.3-18,80.3-40.2c0-22.2-35.9-40.2-80.3-40.2c-44.4,0-80.3,18-80.3,40.2
		C246.5,493.2,282.5,511.2,326.8,511.2z"/>
	<path class="st0" d="M708.6,511.2c44.4,0,80.3-18,80.3-40.2c0-22.2-36-40.2-80.3-40.2c-44.4,0-80.3,18-80.3,40.2
		C628.3,493.2,664.3,511.2,708.6,511.2z"/>
</g>
</svg>
