<?xml version="1.0" encoding="utf-8"?>
<!-- Generator: Adobe Illustrator 24.0.1, SVG Export Plug-In . SVG Version: 6.00 Build 0)  -->
<svg version="1.1" id="Layer_1" xmlns="http://www.w3.org/2000/svg" xmlns:xlink="http://www.w3.org/1999/xlink" x="0px" y="0px"
	 viewBox="0 0 996.3 212.2" style="enable-background:new 0 0 996.3 212.2;" xml:space="preserve">
<style type="text/css">
	.st0{fill:#FFFFFF;}
</style>
<g>
	<path class="st0" d="M127.8,148.9c0,17.7-6.2,32.6-18.6,44.9c-12.4,12.2-27.5,18.4-45.3,18.4H43.3c-6,0-11.1-2-15.2-6.1
		c-4.1-4.1-6.2-9.1-6.2-15.1c0-5.8,2.1-10.8,6.3-15c4.2-4.2,9.3-6.2,15.2-6.2h20.7c5.7,0,10.6-2,14.8-6.1s6.2-9,6.2-14.6v-42.8
		c0-5.8-2-10.8-6.1-14.9c-4.1-4.1-9-6.1-14.9-6.1s-10.9,2-15.1,6.1c-4.1,4.1-6.2,9-6.2,14.9c0,3.5,1.8,8.2,5.4,14
		c3.6,5.8,5.4,10.5,5.4,14c0,5.8-2.1,10.8-6.3,15c-4.2,4.2-9.2,6.2-15.1,6.2c-9.7,0-17.8-6-24.2-18c-5.4-10-8.1-20.4-8.1-31.2
		c0-17.6,6.2-32.6,18.6-44.9C31,48.8,46.1,42.7,63.9,42.7c17.8,0,32.9,6.2,45.3,18.5c12.4,12.3,18.6,27.3,18.6,45V148.9z"/>
	<path class="st0" d="M179.9,148.3c0,5.8-2.1,10.8-6.3,15c-4.2,4.2-9.2,6.2-15.1,6.2c-5.9,0-10.9-2.1-15.1-6.2
		c-4.2-4.2-6.3-9.2-6.3-15V21.2c0-5.8,2.1-10.8,6.3-15c4.2-4.2,9.2-6.2,15.1-6.2c5.9,0,10.9,2.1,15.1,6.2c4.2,4.2,6.3,9.2,6.3,15
		V148.3z"/>
	<path class="st0" d="M317.6,106c0,17.7-6.2,32.7-18.5,45c-12.3,12.3-27.4,18.5-45.2,18.5c-17.8,0-32.9-6.2-45.3-18.5
		c-12.4-12.3-18.6-27.3-18.6-45c0-17.7,6.2-32.6,18.6-44.9c12.4-12.3,27.5-18.4,45.3-18.4c17.8,0,32.8,6.1,45.2,18.4
		S317.6,88.3,317.6,106z M274.8,106c0-5.7-2.1-10.6-6.2-14.7c-4.1-4.1-9-6.2-14.7-6.2c-5.9,0-10.9,2-15,6c-4.1,4-6.2,9-6.2,14.8
		s2.1,10.8,6.2,14.9c4.1,4.1,9.1,6.2,15,6.2c5.9,0,10.8-2,14.8-6.2C272.8,116.8,274.8,111.8,274.8,106z"/>
	<path class="st0" d="M537.8,106.1c0,17.6-6.2,32.6-18.6,44.9c-12.4,12.3-27.5,18.5-45.3,18.5c-16.1,0-30.3-5.4-42.5-16.2
		c-12.1,10.8-26.2,16.2-42.3,16.2c-17.8,0-32.9-6.2-45.3-18.5c-12.4-12.3-18.6-27.3-18.6-44.9V63.9c0-6,2.1-11,6.2-15.1
		c4.1-4.1,9.2-6.1,15.2-6.1c6,0,11.1,2,15.2,6.1c4.1,4.1,6.2,9.1,6.2,15.1v42.2c0,5.8,2.1,10.8,6.2,14.9c4.1,4.1,9.2,6.1,15.1,6.1
		s10.9-2,14.9-6.1c4-4.1,6.1-9,6.1-14.9V64.2c0-6,2.1-11.1,6.3-15.2c4.2-4.2,9.3-6.2,15.3-6.2c5.8,0,10.8,2.1,15,6.2
		c4.2,4.2,6.3,9.2,6.3,15v42.2c0,5.8,2,10.8,6,14.9c4,4.1,9,6.1,14.8,6.1c5.9,0,10.9-2,15-6.1c4.1-4.1,6.2-9,6.2-14.9V63.9
		c0-5.8,2.1-10.8,6.3-15c4.2-4.2,9.2-6.2,15.1-6.2c5.9,0,10.9,2.1,15.1,6.2c4.2,4.2,6.3,9.2,6.3,15V106.1z"/>
	<path class="st0" d="M676.5,63.9c0,5.8-2.1,10.8-6.3,15c-4.2,4.2-9.2,6.2-15.1,6.2h-45.8c-6.5,0-11.7,2.4-15.6,7.2
		c-2.9,4.5-5.7,8.9-8.6,13.2c-3.9,4.8-9.1,7.2-15.9,7.2c-5.9,0-10.9-2.1-15.1-6.2c-4.2-4.2-6.3-9.2-6.3-15c0-2.3,0.4-4.7,1.3-7.2
		c4.2-12.3,12-22.3,23.3-30.1c11.3-7.7,23.6-11.6,36.9-11.6h45.8c5.9,0,10.9,2.1,15.1,6.2C674.4,53.1,676.5,58.1,676.5,63.9z
		 M676.2,120.6c0,2.3-0.4,4.7-1.3,7.2c-4.2,12.3-11.9,22.3-23.2,30.1c-11.2,7.7-23.5,11.6-36.7,11.6h-45.8c-5.9,0-10.9-2.1-15.1-6.2
		c-4.2-4.2-6.3-9.2-6.3-15c0-5.8,2.1-10.8,6.3-15c4.2-4.2,9.2-6.2,15.1-6.2h45.8c6.7,0,11.8-2.4,15.4-7.2c0.7-1,3.6-5.4,8.8-13.2
		c3.9-4.8,9.1-7.2,15.6-7.2c6,0,11.1,2,15.2,6.1C674.2,109.5,676.2,114.6,676.2,120.6z"/>
	<path class="st0" d="M811.6,148.3c0,5.8-2.1,10.8-6.3,15c-4.2,4.2-9.2,6.2-15.1,6.2h-42.3c-17.8,0-32.9-6.2-45.3-18.5
		c-12.4-12.3-18.6-27.3-18.6-45V21.2c0-6,2.1-11,6.3-15.1C694.4,2,699.5,0,705.5,0c5.8,0,10.8,2.1,15,6.3s6.3,9.2,6.3,15.1v21.3
		h63.4c5.9,0,10.9,2.1,15.1,6.2c4.2,4.2,6.3,9.2,6.3,15c0,5.8-2.1,10.8-6.3,15c-4.2,4.2-9.2,6.2-15.1,6.2h-63.4v21
		c0,5.8,2.1,10.8,6.2,14.9c4.1,4.1,9.1,6.1,15,6.1h42.3c5.9,0,10.9,2.1,15.1,6.2C809.5,137.5,811.6,142.5,811.6,148.3z"/>
	<path class="st0" d="M860.4,21.2c0,5.8-2.1,10.8-6.3,15c-4.2,4.2-9.2,6.2-15.1,6.2c-5.9,0-10.9-2.1-15.1-6.2
		c-4.2-4.2-6.3-9.2-6.3-15c0-5.8,2.1-10.8,6.3-15C828.1,2.1,833.2,0,839,0c5.9,0,10.9,2.1,15.1,6.2
		C858.3,10.4,860.4,15.4,860.4,21.2z M860.4,148.3c0,5.8-2.1,10.8-6.3,15c-4.2,4.2-9.2,6.2-15.1,6.2c-5.9,0-10.9-2.1-15.1-6.2
		c-4.2-4.2-6.3-9.2-6.3-15V79.4c0-5.8,2.1-10.8,6.3-15c4.2-4.2,9.2-6.2,15.1-6.2c5.9,0,10.9,2.1,15.1,6.2c4.2,4.2,6.3,9.2,6.3,15
		V148.3z"/>
	<path class="st0" d="M996.3,64.4c0,18.7-7.1,34.4-21.3,47l17.5,24.4c2.6,3.5,3.8,7.6,3.8,12.3c0,5.9-2.1,10.9-6.3,15.1
		c-4.2,4.2-9.2,6.3-15.1,6.3c-7.4,0-13.3-3.1-17.6-9.3l-22.9-32.6h-21.9v20.7c0,5.8-2.1,10.8-6.3,15c-4.2,4.2-9.2,6.2-15.1,6.2
		c-5.9,0-10.9-2.1-15.1-6.2c-4.2-4.2-6.3-9.2-6.3-15v-127c0-5.8,2.1-10.8,6.3-15c4.2-4.2,9.2-6.3,15.1-6.3c5.9,0,10.9,2.1,15.1,6.3
		c4.2,4.2,6.3,9.2,6.3,15v63.8h19.9c8.9,0,14.9-3.7,18.1-11c2-6.7,4.1-13.4,6.3-20.2c3.2-7.2,9.2-10.7,18.1-10.7
		c5.9,0,10.9,2.1,15.1,6.3C994.2,53.6,996.3,58.6,996.3,64.4z"/>
</g>
</svg>
