<?xml version="1.0" encoding="utf-8"?>
<!-- Generator: Adobe Illustrator 24.0.1, SVG Export Plug-In . SVG Version: 6.00 Build 0)  -->
<svg version="1.1" id="Layer_1" xmlns="http://www.w3.org/2000/svg" xmlns:xlink="http://www.w3.org/1999/xlink" x="0px" y="0px"
	 viewBox="0 0 1024 1024" style="enable-background:new 0 0 1024 1024;" xml:space="preserve">
<style type="text/css">
	.st0{fill:#FFFFFF;}
</style>
<g>
	<path class="st0" d="M452.3,286c-52.3,3.4-209.1,12.8-209.1,12.8s-21.4-101.7-30.7-135c-3-10.9-16.9-26-39.4-22.2
		c-24,4-33.1,25-31.3,37.3c7,48.6,27.9,194.3,27.9,194.3c1,10.5,10.4,20,20.9,21H336l-41.7,166.6c-8,24.2-4.8,49.8-4.8,49.8
		s6.9,236.8,9.3,319.6c0.4,13.6,4.4,37.8,44.3,37.7c38.9,0,45.3-22.4,45.5-36c1.1-83.7,8.3-309.2,8.3-309.2s33.6,230.4,45.2,309.2
		c2,13.8,6.8,37.1,46.7,36c38.4-0.6,43.8-27.4,42.8-40.7c-6.4-88.1-24.9-343-24.9-343c3.2-10.8,36.7-131.7,50.4-196
		C569.1,330.6,530,280.9,452.3,286z"/>
	<path class="st0" d="M564,156.8C564,101.1,518.9,56,463.2,56c-55.7,0-100.8,45.1-100.8,100.8c0,0.3,0.1,0.6,0.1,1l199.2,20.5
		C563.2,171.4,564,164.2,564,156.8z"/>
	<path class="st0" d="M881.4,290c-9.1-59.2-54.1-59.8-54.1-59.8l-576.2-59.4l19.3,91.8l59.1-3.6l-13.2-57.2l60.1,6.2
		c17.6,29.7,49.8,49.6,86.8,49.6c29.5,0,56-12.8,74.5-33l261.4,27c0.3,5.7,5.8,101.5,58,90.3C877.4,337.6,885.1,314.1,881.4,290z"/>
</g>
</svg>
