<?xml version="1.0" encoding="utf-8"?>
<!-- Generator: Adobe Illustrator 24.0.1, SVG Export Plug-In . SVG Version: 6.00 Build 0)  -->
<svg version="1.1" id="Layer_1" xmlns="http://www.w3.org/2000/svg" xmlns:xlink="http://www.w3.org/1999/xlink" x="0px" y="0px"
	 viewBox="0 0 1024 1024" style="enable-background:new 0 0 1024 1024;" xml:space="preserve">
<style type="text/css">
	.st0{fill:#FFFFFF;}
</style>
<g>
	<path class="st0" d="M968.2,362.3c3.2-80.9-51.1-165.7-138.2-216.1c-85.7-49.4-198.9-76.7-318.9-76.7c-120,0-233,27.2-318.1,76.7
		c-83,48.2-136.5,129.9-136.4,208l-0.2,38.2c-0.1,21.4,4,42.4,11.7,62.7c-4,14.7-6.1,29.8-6.1,45v48.3c0,0,1.1,21.2,3,31.6
		c-5.4,17.1-8.3,34.6-8.4,52.4v50.1c-0.2,75.1,48.9,144.9,138.4,196.6c85.6,49.4,198.9,76.7,318.9,76.7c0,0-1.9,0-1.9,0
		c120.5,0,233.9-27.2,319.3-76.7c88-51,136.7-119.9,136.9-194.1l-0.1-43.9c0.9-20-2.1-39.9-8.3-59.2c1.9-10.2,3-20.5,3.1-30.9
		l-0.2-43.6c0.7-17.3-1.4-34.3-5.9-50.9c7.5-19.7,11.5-40,11.5-60.8L968.2,362.3z M813,557.1c-79.4,46.2-185.6,71.6-299.1,71.6
		c-113.4,0-220-25.4-299.9-71.6C136.7,512.4,94.3,454.2,94.4,393.2l0.2-38.9c-0.1-49.3,30.7-124.9,117.6-175.4
		c79.4-46.2,185.6-71.6,299.1-71.6c113.4,0,220,25.4,300,71.6c75.1,43.4,122,114.8,119.3,182.7l0.1,34
		C930.5,455.8,888.7,513.1,813,557.1z M930.6,684.7c-0.2,60.2-41.9,117.6-117.6,161.6C733.6,892.5,627.5,918,514,918c0,0,0,0,0,0
		c-113.5,0-220-25.5-300-71.6c-77.3-44.7-119.8-102.9-119.6-164l0.1-32.5c23.2,34.6,58.4,66.2,104.5,92.9
		c84.6,48.9,196.4,75.8,314.9,75.8c118.5,0,230.1-26.9,314.2-75.8c45.1-26.2,79.6-57.3,102.4-91.3L930.6,684.7z M809.7,654.6
		c-43.8,28.4-66.8,28.6-94.7,28.9c-46.6,0.6-82,8.5-103.1,21.1c-19.8,11.8-47.4,30.7-99,30.7c-0.2,0-0.4,0-0.6,0
		c-52-0.1-76.3-15.4-99.4-30.9c-37.9-25.5-77.3-22.7-103.4-21.4c-27.7,1.5-52,1.1-94.4-29c-41.8-29.6-83.6-78.2-108.9-136
		c22.5,26.4,52.3,50.7,89,71.9c85.6,49.4,198.9,76.7,318.9,76.7c120,0,233-27.2,318.1-76.7c37.4-21.7,67.5-46.7,89.9-73.9
		C898.4,578.7,854.1,625.8,809.7,654.6z"/>
	<path class="st0" d="M619.6,317.3c-8.1,8.1-3.7,25.6,9.7,39.1c13.5,13.5,31,17.8,39,9.8c8.1-8.1,3.7-25.6-9.7-39.1
		C645.2,313.6,627.7,309.2,619.6,317.3z"/>
	<path class="st0" d="M449.8,363.1c14-13,19-30.3,11.2-38.7c-7.8-8.4-25.4-4.7-39.4,8.3c-14,13-19,30.3-11.2,38.7
		C418.2,379.8,435.8,376.1,449.8,363.1z"/>
	<path class="st0" d="M562.4,219.6c10.1,5.4,25.6-3.7,34.7-20.5c9.1-16.7,8.3-34.8-1.7-40.2c-10.1-5.5-25.6,3.7-34.7,20.4
		C551.6,196.1,552.4,214.1,562.4,219.6z"/>
	<path class="st0" d="M236.6,298.6c-13.5,13.5-17.9,31-9.8,39.1c8.1,8.1,25.6,3.7,39-9.7c13.5-13.5,17.9-31,9.8-39.1
		C267.6,280.8,250.1,285.2,236.6,298.6z"/>
	<path class="st0" d="M756.7,277c19.1-0.9,34.1-10.8,33.5-22.3c-0.5-11.4-16.4-20-35.4-19.1c-19.1,0.9-34.1,10.9-33.5,22.3
		C721.8,269.3,737.7,277.9,756.7,277z"/>
	<path class="st0" d="M408.9,234.9c9.1-6.9,7.3-24.8-4.2-40c-11.5-15.2-28.2-22-37.3-15.1c-9.1,6.9-7.2,24.8,4.2,40
		C383.1,235,399.8,241.8,408.9,234.9z"/>
</g>
</svg>
