<?xml version="1.0" encoding="utf-8"?>
<!-- Generator: Adobe Illustrator 24.0.1, SVG Export Plug-In . SVG Version: 6.00 Build 0)  -->
<svg version="1.1" id="Layer_1" xmlns="http://www.w3.org/2000/svg" xmlns:xlink="http://www.w3.org/1999/xlink" x="0px" y="0px"
	 viewBox="0 0 1024 1024" style="enable-background:new 0 0 1024 1024;" xml:space="preserve">
<style type="text/css">
	.st0{fill:#FFFFFF;}
</style>
<g>
	<path class="st0" d="M514.8,722.5c14.3,2,20.8,5.7,24,8.5c8.9,8.1,4.1,31.9-23.3,31.9c-11.2,0-20.8-5.7-25.1-13.8h-43.6
		c4.1,22.3,23.1,40.5,48.2,46.9l0,19.1h41l0-19c13-3.4,24.4-9.8,32.9-18.3c14.7-13.7,28.9-47.8,1.2-73.8
		c-11-10.3-27.7-16.8-48.5-19.6c-19.2-2.7-26.1-7.8-29.7-11c-7.7-6.8-3.7-32.3,23.6-32.3c15.1,0,27.3,10.3,27.3,23l42.6,0
		c0-26.5-20.8-48.8-49.5-56.2V587h-41l0,21c-38.3,9.8-49.6,41-49.6,56.6c0,8.2,2.3,22.6,13.5,34.1C470,710.3,488.6,719,514.8,722.5z
		"/>
	<path class="st0" d="M1017,694.5c-8.3-96-39.7-126.2-144-139.2l-71.1,56.7L734,531.6c-73.6-31.7-124.7-97-153.4-143.2
		c-15.3,47.5-34.4,87.9-54.8,122C590.2,608.4,667,648,667,648l0.4,167h231.1l4.4-91.5l20.7-1.9l4,93.4h92L1017,694.5z"/>
	<path class="st0" d="M817.7,525c59.7,0,108.1-48.4,108.1-108.1c0-59.7-48.4-108.1-108.1-108.1s-108.1,48.4-108.1,108.1
		C709.6,476.6,758,525,817.7,525z"/>
	<path class="st0" d="M541.5,316.6c23.6,14.3,26,38.8,18.5,60c-64.4,205.4-203,273.8-203,273.8L356.6,815H125.5l-4.4-89.2l-20.7-0.8
		l-4,90h-92L7,696.9c9.8-113.3,51.7-136.2,207.5-146c170.8-10.8,256.3-213,256.3-213C480.6,311.5,515,300.6,541.5,316.6z"/>
	<path class="st0" d="M206.3,525c59.7,0,108.1-48.4,108.1-108.1c0-59.7-48.4-108.1-108.1-108.1S98.2,357.3,98.2,416.9
		C98.2,476.6,146.6,525,206.3,525z"/>
	<path class="st0" d="M490.8,277.7c0.7,3.9,5.6,6.4,11,5.7c5.3-0.7,9.5-4.2,9.3-8.2l-4.2-54.4c-0.4-7.1-7.1-12.6-14.8-11.6
		c-7.8,0.9-12.9,7.8-11.6,14.8L490.8,277.7z"/>
	<path class="st0" d="M439.5,304c3,2.6,8.4,1.4,12.1-2.4c3.7-3.9,4.8-9.3,2.1-12.2l-37.4-39.8c-4.8-5.3-13.4-5.4-18.8,0.2
		c-5.5,5.6-5.2,14.2,0.2,18.8L439.5,304z"/>
	<path class="st0" d="M559.7,299.2c4.8,2.4,10.3,1.8,12.3-1.6l26.7-47.6c3.6-6.2,1.1-14.4-5.9-17.9c-7-3.5-15.1-0.7-17.9,5.9
		l-21.2,50.4C552.2,292,554.9,296.7,559.7,299.2z"/>
	<path class="st0" d="M618.2,341.2l47.1-27.6c6.3-3.5,8.2-11.9,3.9-18.4c-4.3-6.6-12.7-8.2-18.4-4L607.1,324
		c-3.2,2.3-3.2,7.8-0.3,12.4C609.7,340.9,614.8,343.1,618.2,341.2z"/>
</g>
</svg>
