<?xml version="1.0" encoding="utf-8"?>
<!-- Generator: Adobe Illustrator 24.0.1, SVG Export Plug-In . SVG Version: 6.00 Build 0)  -->
<svg version="1.1" id="Layer_1" xmlns="http://www.w3.org/2000/svg" xmlns:xlink="http://www.w3.org/1999/xlink" x="0px" y="0px"
	 viewBox="0 0 1024 1024" style="enable-background:new 0 0 1024 1024;" xml:space="preserve">
<style type="text/css">
	.st0{fill:#FDFEFF;}
</style>
<g>
	<path class="st0" d="M450.2,295c0-109.5-88.7-198.2-198.2-198.2C142.6,96.8,53.8,185.6,53.8,295c0,109.4,88.8,198.2,198.2,198.2
		C361.5,493.2,450.2,404.5,450.2,295z"/>
	<path class="st0" d="M804,291.2c-50.9,0-99.3-29.8-117.8-72.6c-7.6-17.5-9.6-35.2-10.7-51.8c-0.2-2.7-0.1-5.2-0.1-7.7l-23,4.3
		c-10.3,1.9-16.6,10.3-14,21.4l22.2,93.9c3,11.2,13.4,15.3,22.2,12.8l48.9-14.2l3.3,155.5c0,0-341.7,69.6-454.5,97.7
		C145.1,564.2,66.9,643.9,82.7,784.7l32.2,157.5h184.6l-21.8-139.5h33.9l43.6,139.5h358.1l-81.7-263.3L900.7,574
		c19.1-9.1,28.2-32.9,25.2-53.8c-8.5-59-22-177.9-31.8-266.6c-15.4,15.9-34.8,27.6-57.2,33.4C826.2,289.8,815.1,291.2,804,291.2z"/>
	<path class="st0" d="M967.7,157.7c-6.1-23.3-22-39.8-40.3-42c1.6,8.5,2.6,17.2,3.4,25.8c2.7,30.9-3.2,59.9-16,84l26.7-7.7
		C959.8,211.6,975.7,188.5,967.7,157.7z"/>
	<path class="st0" d="M575.8,339.4c23.3-5.5,41.9-20.1,53.3-39.1l-28-115.9c-18.6-11.5-41.5-16-64.5-10.5
		c-45.7,10.8-74,56.7-63.1,102.4C484.2,322,530.1,350.2,575.8,339.4z"/>
	<path class="st0" d="M848.5,81.7c-17.7-0.3-38.7,5.2-60.6,10.9c-50.2,13.1-83.7,19.5-80.2,73.7c0.7,11,2,26.7,8.1,40.8
		c12.9,29.9,48.5,52.7,87.5,52.7c8.1,0,16.4-1,24.6-3.1c49.8-12.9,74.8-61.5,70.1-112.3C893.7,97.6,882.7,82.3,848.5,81.7z"/>
</g>
</svg>
