<?xml version="1.0" encoding="utf-8"?>
<!-- Generator: Adobe Illustrator 24.0.1, SVG Export Plug-In . SVG Version: 6.00 Build 0)  -->
<svg version="1.1" id="Layer_1" xmlns="http://www.w3.org/2000/svg" xmlns:xlink="http://www.w3.org/1999/xlink" x="0px" y="0px"
	 viewBox="0 0 1024 1024" style="enable-background:new 0 0 1024 1024;" xml:space="preserve">
<style type="text/css">
	.st0{fill:#FFFFFF;}
</style>
<g>
	<path class="st0" d="M651.8,434.6c32.6-17.2,128-65.7,128-65.7c12.4-6.2,16.8-20.7,13.1-35.1H659.8l-46.4,13.8l-52.3-9.6
		c5.1,18.5,6.1,38.9,0.9,59.3c-2.1,8.3-9.2,32.9-9.2,32.9l45.8,10.4C616.6,445,633.4,444.3,651.8,434.6z"/>
	<path class="st0" d="M905.8,109.6c-28.9,0-49.2,50.4-54.6,74.1c-1.3,5.7-6.4,9.7-12.3,9.7H650.3c-0.4,44.1-22.8,83-56.8,106.2
		h316.1c32,0,57.9-42.4,57.9-94.7C967.4,148.4,942.3,109.6,905.8,109.6z M886.1,250.9c-5.5-11.8-9.4-27.4-9.4-46.3
		c0-18.9,4-34.6,9.4-46.4c6.4,2.2,16.2,19.3,16.2,46.4C902.3,231.7,892.5,248.7,886.1,250.9z M909.3,273.9c-2.4,0-4.9-1.1-7.5-2.8
		c15.5-10.6,25.8-35.7,25.8-66.5c0-30.8-10.3-55.9-25.8-66.5c2.6-1.6,5.2-2.8,7.5-2.8c13.3,0,32.5,27,32.5,69.3
		S922.5,273.9,909.3,273.9z"/>
	<path class="st0" d="M132,299.6H277c31.8-7.5,94.4-21.5,140.9-29.3c-16.2-21.5-25.8-48.1-26.1-76.9H74.6
		C70.8,238.9,90.6,299.6,132,299.6z"/>
	<path class="st0" d="M421.5,109.7H90.4c-7.9,5.2-32.2,23.7-33.6,58.5H394C398.1,146.2,407.8,126.2,421.5,109.7z"/>
	<path class="st0" d="M829.2,168.2c4.2-14.1,13.3-39.4,28.6-58.5H620.7c13.7,16.6,23.3,36.6,27.5,58.5H829.2z"/>
	<path class="st0" d="M299.2,859.2L393.6,706l-79.9-97.9l-91.3,213.3c0,0-14,31.9,25.7,49.6C267.7,879.7,287.7,878,299.2,859.2z"/>
	<path class="st0" d="M464.2,302.3c-34.3,1.3-173.6,31.9-197.3,38.1c-16.2,4.3-23.1,14-27.8,32.5l-30.8,141.3c0,0-9.9,29.5,25,39.6
		c3.1,0.9,7.5,1.7,12.6,1.7c11.2,0,25.2-4.2,32.1-21.2l46-108l29.5-5.9l-26.9,82.8c-6.3,25.9-0.8,55.9,21.9,83.7
		c25.3,31,99.9,118.5,99.9,118.5s-23,121.1-31,163.4c-2.5,13-8,34.8,21.1,48.5c28.2,13.3,52.5,1.9,63-21.6
		c28.8-64.6,65.3-187.6,65.3-187.6c4.5-11.1,6.1-23.4,0.9-32.4l-81.7-147.1l39.2-140.1C538.9,332,498.9,301,464.2,302.3z"/>
	<path class="st0" d="M521,283.9c50.7,0,91.8-41.1,91.8-91.8c0-50.7-41.1-91.8-91.8-91.8c-50.7,0-91.8,41.1-91.8,91.8
		C429.2,242.8,470.3,283.9,521,283.9z"/>
</g>
</svg>
