<?xml version="1.0" encoding="utf-8"?>
<!-- Generator: Adobe Illustrator 24.0.1, SVG Export Plug-In . SVG Version: 6.00 Build 0)  -->
<svg version="1.1" id="Layer_1" xmlns="http://www.w3.org/2000/svg" xmlns:xlink="http://www.w3.org/1999/xlink" x="0px" y="0px"
	 viewBox="0 0 1024 1024" style="enable-background:new 0 0 1024 1024;" xml:space="preserve">
<style type="text/css">
	.st0{fill:#FFFFFF;}
</style>
<g>
	<g>
		<path class="st0" d="M507,1018l0.4-496.2c45.9-38.7,212.2-143.1,304.6-378c14.5-37,27.3-82.1-28.6-103
			C743.8,26,721.5,32,679.6,99.5c-48.6,78.3-132.2,185.1-242.7,238.5l-103.9,104l-70.3-70.3C145.4,374.9,83,417.3,83,556.5
			l0.7,283.9c0,39.3,32.8,79,85.3,75.2V1018H507z"/>
	</g>
	<g>
		<path class="st0" d="M176.5,161.8c0,86.3,69.9,156.2,156.2,156.2c86.3,0,156.2-69.9,156.2-156.2C488.9,75.5,419,5.7,332.7,5.7
			C246.4,5.7,176.5,75.5,176.5,161.8z"/>
	</g>
	<g>
		<path class="st0" d="M781.5,901.7c-24.9,0-46.2-12.6-55.6-30.7h-97.3c9.2,49.7,51.5,90.1,107.4,104.5l0,42.5h91l0.1-42.2
			c126.4-24.6,179.1-220.3-32-247.7c-42.7-5.5-58-17.4-65.9-24.4c-17.2-15.2-8.2-71.8,52.5-71.8c33.5,0,60.6,22.9,60.7,51h94.6
			c-0.1-58.8-46.2-108.4-109.8-124.7V511h-91l0,46.7c-140.9,35-167.7,229.9,44,254.3c29.5,3.4,46.3,12.6,53.2,18.9
			C853,848.9,842.4,901.7,781.5,901.7z"/>
	</g>
</g>
</svg>
