<?xml version="1.0" encoding="utf-8"?>
<!-- Generator: Adobe Illustrator 24.0.1, SVG Export Plug-In . SVG Version: 6.00 Build 0)  -->
<svg version="1.1" id="Layer_1" xmlns="http://www.w3.org/2000/svg" xmlns:xlink="http://www.w3.org/1999/xlink" x="0px" y="0px"
	 viewBox="0 0 1024 1024" style="enable-background:new 0 0 1024 1024;" xml:space="preserve">
<style type="text/css">
	.st0{fill:#FFFFFF;}
</style>
<g>
	<g>
		<path class="st0" d="M507.3,967.4l0.4-446.5c41.3-34.8,191-128.8,274.1-340.2c13.1-33.3,24.6-73.9-25.7-92.7
			c-35.7-13.4-55.7-8-93.5,52.8c-43.7,70.5-118.9,166.6-218.4,214.7L350.7,449l-63.3-63.3c-105.5,2.8-161.6,41-161.6,166.3
			l0.6,255.5c0,35.4,29.5,71.1,76.8,67.7v92.2H507.3z"/>
	</g>
	<g>
		<path class="st0" d="M209.9,196.8c0,77.7,62.9,140.6,140.6,140.6c77.6,0,140.6-62.9,140.6-140.6c0-77.6-62.9-140.5-140.6-140.5
			C272.8,56.3,209.9,119.2,209.9,196.8z"/>
	</g>
	<g>
		<path class="st0" d="M754.4,862.7c-22.4,0-41.6-11.4-50.1-27.6h-87.6c8.3,44.7,46.3,81.1,96.6,94v38.3h81.9l0.1-38
			c113.7-22.1,161.2-198.3-28.8-222.9c-38.5-5-52.2-15.6-59.3-21.9c-15.5-13.7-7.4-64.6,47.2-64.6c30.1,0,54.5,20.6,54.6,45.9h85.1
			c-0.1-52.9-41.6-97.6-98.9-112.2v-42.6h-81.9v42C586.6,584.6,562.5,760.1,753,782c26.6,3,41.7,11.4,47.9,17
			C818.8,815.2,809.2,862.7,754.4,862.7z"/>
	</g>
</g>
</svg>
