<?xml version="1.0" encoding="utf-8"?>
<!-- Generator: Adobe Illustrator 24.0.1, SVG Export Plug-In . SVG Version: 6.00 Build 0)  -->
<svg version="1.1" id="Layer_1" xmlns="http://www.w3.org/2000/svg" xmlns:xlink="http://www.w3.org/1999/xlink" x="0px" y="0px"
	 viewBox="0 0 1024 1024" style="enable-background:new 0 0 1024 1024;" xml:space="preserve">
<style type="text/css">
	.st0{fill:#FFFFFF;}
</style>
<g>
	<path class="st0" d="M815.3,56.6H207.7c-11.4,0-20.7,9.3-20.7,20.7v653.4c0,11.4,9.3,20.7,20.7,20.7h11.7v73.1
		c0,13.8,11.1,25,24.9,25h79.8c13.7,0,24.9-11.2,24.9-25V782h-23.7c-16.7,0-30.3-13.2-31.2-29.7h89.9l-44,190.7
		c-1.4,5.9,0,12.1,3.8,16.9c3.8,4.8,9.5,7.5,15.6,7.5h304.7c6.1,0,11.8-2.8,15.6-7.5c3.8-4.8,5.2-11,3.8-16.9l-44-190.7h89
		c-0.9,16.5-14.4,29.7-31.2,29.7H674v42.5c0,13.8,11.2,25,24.9,25h79.9c13.7,0,24.9-11.2,24.9-25v-73.1h11.7
		c11.4,0,20.7-9.2,20.7-20.7V77.3C836,65.9,826.7,56.6,815.3,56.6z M643.7,930.5H380.2L441,666.8h141.8L643.7,930.5z M796.3,641.6
		H227.6V93.5h568.8V641.6z"/>
	<path class="st0" d="M502.2,377H284.1c-3.9,0-7,3.1-7,7v208.3c0,3.9,3.1,7,7,7h218.2c3.9,0,7-3.1,7-7V384
		C509.2,380.1,506.1,377,502.2,377z"/>
	<path class="st0" d="M285,351.8H432c3.9,0,7-3.1,7-7V204c0-3.9-3.1-7-7-7H285c-3.9,0-7,3.1-7,7v140.8
		C278,348.7,281.1,351.8,285,351.8z"/>
	<path class="st0" d="M739.8,404H549.6c-3.9,0-7,3.1-7,7v181.3c0,3.9,3.1,7,7,7h190.3c3.9,0,7-3.1,7-7V411
		C746.8,407.1,743.7,404,739.8,404z"/>
	<polygon class="st0" points="434.2,880.1 589.6,880.1 585.3,857.6 438.5,857.6 	"/>
	<polygon class="st0" points="571,781.1 452.8,781.1 448.5,803.6 575.3,803.6 	"/>
	<polygon class="st0" points="556.7,705.5 467.1,705.5 462.8,728 561,728 	"/>
</g>
</svg>
