<?xml version="1.0" encoding="utf-8"?>
<!-- Generator: Adobe Illustrator 24.0.1, SVG Export Plug-In . SVG Version: 6.00 Build 0)  -->
<svg version="1.1" id="Layer_1" xmlns="http://www.w3.org/2000/svg" xmlns:xlink="http://www.w3.org/1999/xlink" x="0px" y="0px"
	 viewBox="0 0 1024 1024" style="enable-background:new 0 0 1024 1024;" xml:space="preserve">
<style type="text/css">
	.st0{fill:#FFFFFF;}
</style>
<g>
	<polygon class="st0" points="549,511.1 495.2,515.5 462.9,590.2 531.3,616.1 550.9,659.8 564.8,738.9 609.1,720.6 668,592.7 
		610.4,533.2 	"/>
	<path class="st0" d="M885.2,329.8l-82.6-9.5l-132.4,43.1l-57.5-12.1l-7.1,1.2c-36.9-66-111-115-199.8-125.8
		c-12.1-1.5-24.1-2.2-35.9-2.2c-71.5-0.1-137.2,26.4-181.8,70.3L100,283.4L4.1,324.9l7.8,46.7l90.5,19.1c0,15.7-1.6,38.5-10.8,44.6
		c-6.5,4.4-13.3,52.7-13.3,52.7L100,534l60.4,40.5l25.2,23.7l-17,16.8l55.9,172.6l30,10.6c11.8,3.9-7.1-8.3-4.7-28.8l82-144.3
		l-132.7-57l-23.2-0.1c0,0-2.5-30.2-17-29.5c-14.6,0.5-26.6-8.8-18.2-24.7l39.7-12.2l11,13.4l9.1-3.3l16.4-33.9l64.9-33.2l-6.8-39.8
		c0,0-56.6-0.9-59.9-12.5c-4.4-15.4,16.7-19.9,16.7-19.9l34.7-7l21.8-12.9l26.6,18.2l13.3,33.5l58.1-31.1c0,0,8.7-3.1,9.4-8.1
		l4.8-42.6l-137.1-17.7c-7.3,3.8-14.4,7.9-20.9,12.4c-28,19.8-47.1,45.5-54.6,75c6.5,4.6,10.8,12.1,10.8,20.6
		c0,14.5-12.2,26.1-26.8,25.2c-12.1-0.7-22.2-10.3-23.5-22.4c-1.3-11.9,5.8-22.3,16-26.2c23.1-84.7,105-139.2,205.2-139.3
		c10.6,0,21.4,0.9,32.3,2c99.9,9.7,183.9,79.5,196.4,166.1c0.3,0,0.6-0.1,0.9-0.1c14,0,25.4,11.4,25.4,25.4
		c0,14-11.4,25.4-25.4,25.4c-14,0-25.4-11.4-25.4-25.4c0-4.3,1.2-8.3,3.1-11.9c-0.2-2.8-0.5-5.7-0.9-8.5l-35.4,6.9l-51.5,39.7
		l12.4,22.8l18.1-4.8l21-23.2l23.5,19.4l36.5,3.5l36.1,30.8l36.8,41.7l26.7-11.2l67.3,58.9l35.1-38.3l87-25.5l15.4-55.4l47.9-45.4
		l-0.8-30.8l43-23.9l24.5-36.9L885.2,329.8z"/>
	<path class="st0" d="M554.7,369.6l-29.2,39.8l48.9,3.5C570.8,397.9,564,383.3,554.7,369.6z"/>
	<polygon class="st0" points="927.3,645.1 908.2,636.8 848.4,675.9 859.2,724 908.7,710.2 948.3,736.2 977.5,744.8 995.4,682.4 
		954.7,634.8 	"/>
</g>
</svg>
