<?xml version="1.0" encoding="utf-8"?>
<!-- Generator: Adobe Illustrator 24.2.0, SVG Export Plug-In . SVG Version: 6.00 Build 0)  -->
<svg version="1.1" id="Layer_1" xmlns="http://www.w3.org/2000/svg" xmlns:xlink="http://www.w3.org/1999/xlink" x="0px" y="0px"
	 viewBox="0 0 39.6 63.3" style="enable-background:new 0 0 39.6 63.3;" xml:space="preserve">
<style type="text/css">
	.st0{fill:#ED2290;}
</style>
<g>
	<path class="st0" d="M35.3,28.9c-0.7,0-1.5,0.1-2.1,0.4c-0.6-1.8-2.2-3-4.1-3.1c-0.6,0-1.3,0.1-1.9,0.3V17c0-2.5-2-4.6-4.6-4.6
		c-2.1,0-3.9,1.4-4.4,3.4c-0.5-0.2-1-0.3-1.5-0.4c-1.3-0.1-2.5,0.4-3.4,1.2c-0.9,0.9-1.4,2.1-1.4,3.3v17l-1.3-1.2
		c-2.1-1.8-4.1-2.1-5.8-1.1c-1.1,0.6-1.8,1.6-2.1,2.9c-0.3,1.3,0,2.6,0.7,3.7l10.8,16.3v4.3c0,0.8,0.7,1.5,1.5,1.5h18.5
		c0.8,0,1.5-0.7,1.5-1.5v-5.7l3.1-5.7c0.5-1,0.8-2,0.8-3.1V33.7C39.7,31.1,37.8,29.1,35.3,28.9z M36.7,47.4L36.7,47.4
		c0,0.6-0.2,1.2-0.4,1.7l-3.4,6c-0.1,0.2-0.2,0.5-0.2,0.7v4.6H17.3v-3.2c0-0.3-0.1-0.6-0.2-0.8L5.9,39.8c-0.3-0.4-0.4-0.9-0.3-1.4
		c0.1-0.2,0.2-0.7,0.7-1c0.2-0.1,0.8-0.5,2.4,0.8l2.5,2.2c0.5,0.4,0.7,1,0.7,1.5v1c0,0.8,0.7,1.5,1.5,1.5s1.5-0.7,1.5-1.5v-2.6v-1.8
		V20c0-0.4,0.2-0.8,0.5-1.1s0.7-0.5,1.2-0.4c0.8,0,1.5,0.8,1.5,1.8v5.4v3.4v7c0,0.8,0.7,1.5,1.5,1.5s1.5-0.7,1.5-1.5v-5.3l0,0v-7.6
		v-1v-2v-3.1c0-0.9,0.7-1.6,1.6-1.6c0.9,0,1.6,0.7,1.6,1.6v16.2l0,0v2.8c0,0.8,0.7,1.5,1.5,1.5s1.5-0.7,1.5-1.5v-5.3
		c0-0.4,0.2-0.9,0.5-1.2s0.7-0.5,1.2-0.4c0.8,0,1.5,0.8,1.5,1.8v0.7v1.9v4.5c0,0.8,0.7,1.5,1.5,1.5c0.8,0,1.5-0.7,1.5-1.5v-4.5
		c0-0.4,0.2-0.8,0.5-1.1c0.3-0.3,0.7-0.5,1.2-0.4c0.8,0,1.5,0.8,1.5,1.8C36.7,33.9,36.7,47.4,36.7,47.4z"/>
	<path class="st0" d="M30.5,24.6c0.8,0.3,1.6-0.2,1.9-1c0.4-1.3,0.6-2.7,0.6-4.1C33,12,26.9,5.9,19.4,5.9S5.8,12,5.8,19.5
		c0,2.7,0.8,5.3,2.3,7.6c0.3,0.4,0.8,0.7,1.2,0.7c0.3,0,0.6-0.1,0.8-0.3c0.7-0.5,0.9-1.4,0.4-2.1c-1.2-1.7-1.8-3.8-1.8-5.9
		c0-5.8,4.7-10.6,10.6-10.6s10.6,4.7,10.6,10.6c0,1.1-0.2,2.2-0.5,3.2C29.3,23.5,29.7,24.4,30.5,24.6z"/>
	<path class="st0" d="M4.6,31c0.3,0,0.6-0.1,0.8-0.3c0.7-0.5,0.9-1.4,0.4-2.1C4,25.9,3,22.7,3,19.4C3,10.3,10.4,3,19.4,3
		s16.4,7.4,16.4,16.4c0,1.7-0.3,3.4-0.8,5c-0.3,0.8,0.2,1.6,1,1.9c0.8,0.3,1.6-0.2,1.9-1c0.6-1.9,0.9-3.9,0.9-5.9
		C38.8,8.7,30.1,0,19.4,0S0,8.7,0,19.4c0,3.9,1.1,7.6,3.3,10.9C3.6,30.8,4.1,31,4.6,31z"/>
</g>
</svg>
