<?xml version="1.0" encoding="utf-8"?>
<!-- Generator: Adobe Illustrator 24.2.0, SVG Export Plug-In . SVG Version: 6.00 Build 0)  -->
<svg version="1.1" id="Layer_1" xmlns="http://www.w3.org/2000/svg" xmlns:xlink="http://www.w3.org/1999/xlink" x="0px" y="0px"
	 viewBox="0 0 1200 1200" style="enable-background:new 0 0 1200 1200;" xml:space="preserve">
<style type="text/css">
	.st0{fill:#FFFFFF;}
</style>
<path class="st0" d="M1109.4,303.5c-7.4-23.6-28.9-39.5-53.7-39.5c-5.7,0-11.3,0.9-16.8,2.6l-77.4,24.2l0-182
	c0-44.8-27.9-71-70.2-71H555.3c-43.2,0-73.5,25.3-73.5,71V457c-39.2,17-66.5,29.1-72.4,32.1c-47.3,24.1-83,79.4-91.1,101.8
	C308.5,613.2,88,1162.2,88,1162.2H545c0,0,110.7-46.4,169.6-110.7c24.8-27.1,44.6-63.8,58.4-94H895c38,0,66.6-24.5,66.6-73.3v-41.5
	h49c31,0,56.2-25.2,56.2-56.2c0-31-25.2-56.2-56.2-56.2h-49v-18.8h50.3c31,0,56.2-25.2,56.2-56.2c0-31-25.2-56.3-56.2-56.3h-50.3
	v-18.7h50.3c31,0,56.2-25.2,56.2-56.2c0-31-25.2-56.2-56.2-56.2h-50.3v-59l111-34.7c14.3-4.5,26.1-14.3,33-27.6
	C1112.6,333.1,1113.9,317.9,1109.4,303.5L1109.4,303.5z M721.3,909.6c-13.3,0-24.1-10.8-24.1-24.1c0-13.3,10.8-24.1,24.1-24.1
	c13.3,0,24.1,10.8,24.1,24.1C745.4,898.8,734.6,909.6,721.3,909.6z M911,827.2h-286c0.1,27.5-2.3,65.2-12.7,105.2
	c-20.9,80.2-89.6,125.4-92.5,127.3c-2.7,1.8-5.7,2.6-8.7,2.6c-5.3,0-10.4-2.6-13.5-7.3c-4.8-7.5-2.7-17.4,4.8-22.2
	c0.6-0.4,61.1-40.6,78.9-108.4c18.9-72.1,9.5-135.9,9.4-136.6c-0.2-1.4-0.2-2.7,0-4h182.9c37.5,0,75-22.6,75-66.9
	c0-44.4-33-72.3-75-72.3H462.9v-32.1h69.2V159.7h379L911,827.2L911,827.2z"/>
</svg>
