<?xml version="1.0" encoding="utf-8"?>
<!-- Generator: Adobe Illustrator 24.0.1, SVG Export Plug-In . SVG Version: 6.00 Build 0)  -->
<svg version="1.1" id="Layer_1" xmlns="http://www.w3.org/2000/svg" xmlns:xlink="http://www.w3.org/1999/xlink" x="0px" y="0px"
	 viewBox="0 0 1024 1024" style="enable-background:new 0 0 1024 1024;" xml:space="preserve">
<style type="text/css">
	.st0{fill:#FFFFFF;}
</style>
<g>
	<path class="st0" d="M33.1,330l222.3,0l15.1-164.9c0-3.9-3-7.1-6.6-7.1l-215.7,0l11.5,62.4l-41.7-55.3L33.1,330z"/>
	<path class="st0" d="M94.7,485.1C92.2,446.3,63.2,428,63.2,428l-16.6,0c-8.9,0-13.6-4-13.6-13.6l0-54.4l223,0v54.2
		c0,0-4.1,13.6-13.8,12.8h-17c-10.8,5.6-30.2,20.3-31.9,62.8C174.2,478.7,122.2,475.4,94.7,485.1z"/>
	<path class="st0" d="M793.3,695.6c7.9-59.5-18.5-163.3-37.1-210.5c-57-2.3-141.6-1.1-207,1.4C532,531,504.7,638.9,513.4,695.6
		c2.1,13.7,8.1,20.4,19.5,20.4h240.9C785.1,716,791.4,709.3,793.3,695.6z"/>
	<path class="st0" d="M873,778.4l0.5,240.6H1006l-2.2-255.7C1000.1,600,955,515.1,819.6,490.9C878.4,592.8,873,703.2,873,778.4z"/>
	<path class="st0" d="M282.2,709.4L387,698.9l0.9,320.1H434V778.3c0-75.5-7.1-185.7,53.7-289.1c-35.9,2-178.3,19.6-246.7,33.8
		C273.9,556.2,311.2,624.3,282.2,709.4z"/>
	<path class="st0" d="M653.3,436.9c119.3,0,216-96.7,216-216c0-119.3-96.7-216-216-216c-119.3,0-216,96.7-216,216
		C437.3,340.2,534,436.9,653.3,436.9z"/>
	<path class="st0" d="M142.8,766.5c59.6-7,108.8-48.1,109.7-113.6c0.9-62.7-42.2-118.6-88.3-129.5c-8.9-2.1-28-5.1-49.2-0.9
		c-60.7,12.1-63.5,55.7-64.6,121.8c-0.6,43.3,1.8,79.3,18.3,103.2C81,765.3,103.8,771,142.8,766.5z"/>
</g>
</svg>
