<?xml version="1.0" encoding="utf-8"?>
<!-- Generator: Adobe Illustrator 24.0.1, SVG Export Plug-In . SVG Version: 6.00 Build 0)  -->
<svg version="1.1" id="Layer_1" xmlns="http://www.w3.org/2000/svg" xmlns:xlink="http://www.w3.org/1999/xlink" x="0px" y="0px"
	 viewBox="0 0 1024 1024" style="enable-background:new 0 0 1024 1024;" xml:space="preserve">
<style type="text/css">
	.st0{fill:#FFFFFF;}
</style>
<g>
	<path class="st0" d="M843.5,295.5c77.8-34,104-84.9,102.8-120.8c-0.8-25.7-15.4-46.8-38-55.1c-16-5.9-59-13-113.2,46.8
		c-43.8,48.3-58.4,89.3-55.9,125.1c-109.6,23.9-210.6,3.9-302-14.2c-126.2-25-235.2-46.6-321.1,54.1c-53.6,62.8-59,144.6-37.6,208
		c-11.7-3.9-17.9-9.8-18-9.9c-9.8-10.4-25.8-13.6-38.8-7.4C9,528.2,1.2,541.8,2.3,556c0.2,2.8,5.4,68.9,33.5,144.1
		C74.3,802.9,137.3,871.3,218,898.1c27.5,9.1,57.8,12.4,90.1,9.7c56.1-4.7,100.6-29.2,136.4-48.8c26.3-14.4,49-26.9,67.4-26.9
		c16.5,0,38.7,12.1,64.5,26.1c36.8,20,82.5,44.9,139.4,49.6c7.3,0.6,14.6,0.9,21.7,0.9c24.2,0,47.2-3.6,68.5-10.6
		c80.7-26.8,143.7-95.2,182.1-197.9c28.2-75.2,33.4-141.3,33.6-144c1.1-14.3-6.7-27.9-19.5-34c-12.9-6.1-29.1-2.8-38.4,7.1
		c-0.4,0.4-8,7.2-21.7,11c5.3-54.8-41.6-97.6-84.2-136.3c-20.2-18.4-39.5-36-54.3-54.3c-13.8,4.5-26.3,7.9-37.4,10.7
		c18.5,26.2,43.8,49.4,67.2,70.6C880,473.2,911,504,905.2,540.6c-6.1-1.3-12.3-3.1-18.7-5.6c-98.6-39.6-171.4-43-237.8-11.5
		c-42.8,20.2-70.1,41-90,56.2C537,596.3,526,604.3,512,604.3c-14.4,0-25.5-8-47.1-24.6c-19.8-15.2-46.9-36-89.5-56.1
		c-66.5-31.5-139.3-28.1-237.8,11.5c-6.7,2.7-13.2,4.4-19.6,5.7c-23.4-53.8-22.3-129,26-185.7c72-84.4,166.6-65.7,286.2-42
		c84.3,16.7,176.4,35.6,276.8,21.3C760.3,326.8,801.2,314,843.5,295.5z M909.9,176c0.4,22.9-20.1,59.1-81.1,86.2
		c-17.7,7.8-35.1,14.3-52.4,19.6c0.6-26.1,13.8-55.5,45.9-90.9c25.9-28.6,48.5-38.6,63.8-38.6C898.8,152.3,909.6,157.5,909.9,176z
		 M718.9,871.4c-49.2-4.1-89.5-26-125-45.3c-30.1-16.4-56.1-30.5-81.9-30.5c-27.8,0-54.3,14.6-85,31.4
		c-34.5,18.9-73.5,40.4-121.9,44.4c-27.3,2.3-52.9-0.4-75.6-7.9c-69.9-23.2-125-84.1-159.5-176.1c-21.6-57.8-28.8-110.6-30.7-128
		c10.1,7.9,33.9,22.8,70.9,19.7c13.3-1.1,27-4.5,40.9-10.1c88.4-35.5,151.5-39.4,208.6-12.3c39.1,18.5,63.4,37.1,82.9,52.1
		c23.4,18,41.9,32.1,69.3,32.1c26.9,0,45.4-14.1,68.8-32c19.7-15,44.2-33.7,83.5-52.3c57.1-27.1,120.2-23.2,208.6,12.3
		c13.9,5.6,27.6,8.9,40.9,10.1c37,3,60.7-11.6,70.9-19.7c-1.9,17.3-9.1,70.2-30.8,128c-34.4,92-89.6,152.9-159.4,176.1
		C771.7,871,746.1,873.6,718.9,871.4z"/>
	<path class="st0" d="M328.4,618.4C255.3,587.9,166,641.7,166,641.7s29.2,103.2,102.3,133.8c73.1,30.5,162.5-23.2,162.5-23.2
		S401.6,649,328.4,618.4z"/>
	<path class="st0" d="M858.1,641.7c0,0-89.4-53.8-162.5-23.2C622.4,649,593.3,752.2,593.3,752.2s89.3,53.8,162.5,23.2
		C828.8,744.9,858.1,641.7,858.1,641.7z"/>
</g>
</svg>
