<?xml version="1.0" encoding="utf-8"?>
<!-- Generator: Adobe Illustrator 24.0.1, SVG Export Plug-In . SVG Version: 6.00 Build 0)  -->
<svg version="1.1" id="Layer_1" xmlns="http://www.w3.org/2000/svg" xmlns:xlink="http://www.w3.org/1999/xlink" x="0px" y="0px"
	 viewBox="0 0 1024 1024" style="enable-background:new 0 0 1024 1024;" xml:space="preserve">
<style type="text/css">
	.st0{fill:#FFFFFF;}
</style>
<g>
	<path class="st0" d="M369.3,580.2c-0.5,35.4-13.3,66.8-34.7,90.7l120.9,17.4l0.4,263.8H760l3.7-154.8h30.6l9.2,154.8h155.4
		l4.8-178.2c-3.3-142.9-67.8-212.2-197.1-229.5c-105.3-14.1-303.7-25.8-415.3-40.1C362.9,527.5,369.6,553.6,369.3,580.2z"/>
	<path class="st0" d="M882.5,317.4c0-99-81.9-179.3-183-179.3c-101.1,0-183,80.3-183,179.3c0,99,81.9,179.3,183,179.3
		C800.6,496.7,882.5,416.4,882.5,317.4z"/>
	<path class="st0" d="M216.9,426.4v-88.1h64.8v97.8C269,428.1,235.4,424,216.9,426.4z"/>
	<path class="st0" d="M281.7,708v21.7c0,16.1-11.6,30.2-27.6,32.5c-20,2.9-37.2-12.6-37.2-32.1v-10.2
		C235.9,720.4,262.6,716.1,281.7,708z"/>
	<path class="st0" d="M152.3,238.7c10.1,6.6,20.9,12.1,32.2,16.6v29c0,11.9,9.6,21.6,21.4,21.6h87.6c11.9,0,21.5-9.7,21.5-21.6v-29
		c11.3-4.5,22.1-10,32.2-16.6c28.3-18.6,58.4-59.9,69.6-97.5H82.3C93.2,180,123.7,219.9,152.3,238.7z"/>
	<path class="st0" d="M253.4,465.1c43.3,12.5,79.5,59.5,78.7,115.4c-0.8,58.5-44.5,96.4-97.8,101.3c-30.6,2.8-51.7,2.1-66.1-17
		c-15.5-20.7-16.9-53.4-16.3-92c1-58.9,3.1-99.8,57.6-108.6C230.8,460.9,249.1,463.8,253.4,465.1z"/>
	<g>
		<path class="st0" d="M417,112.4H82.5c-11,0-20.4-8.6-20.8-19.6c-0.4-11.5,8.9-20.9,20.4-20.9h334.5c11,0,20.4,8.6,20.8,19.6
			C437.8,103,428.5,112.4,417,112.4z"/>
	</g>
</g>
</svg>
