<?xml version="1.0" encoding="utf-8"?>
<!-- Generator: Adobe Illustrator 24.2.0, SVG Export Plug-In . SVG Version: 6.00 Build 0)  -->
<svg version="1.1" id="Layer_1" xmlns="http://www.w3.org/2000/svg" xmlns:xlink="http://www.w3.org/1999/xlink" x="0px" y="0px"
	 viewBox="0 0 96 96" style="enable-background:new 0 0 96 96;" xml:space="preserve">
<style type="text/css">
	.st0{fill:#ED2290;}
</style>
<path class="st0" d="M83.5,77.8l-16-16c-0.5-0.5-1.1-1-1.7-1.4l-4-2.8l0,0c9.7-12,7.8-29.7-4.2-39.4s-29.7-7.8-39.4,4.2
	s-7.8,29.7,4.2,39.4c5,4,11.3,6.2,17.7,6.2s12.5-2.2,17.5-6.1l0,0l3,4c0.4,0.5,0.8,1,1.2,1.4l16,16c0.8,0.8,2,0.8,2.8,0l0,0l2.8-2.8
	C84.2,79.8,84.2,78.6,83.5,77.8z M40.1,60c-11,0-20-9-20-20s9-20,20-20s20,9,20,20S51.1,60,40.1,60z"/>
</svg>
