<?xml version="1.0" encoding="utf-8"?>
<!-- Generator: Adobe Illustrator 24.0.1, SVG Export Plug-In . SVG Version: 6.00 Build 0)  -->
<svg version="1.1" id="Layer_1" xmlns="http://www.w3.org/2000/svg" xmlns:xlink="http://www.w3.org/1999/xlink" x="0px" y="0px"
	 viewBox="0 0 1024 1024" style="enable-background:new 0 0 1024 1024;" xml:space="preserve">
<style type="text/css">
	.st0{fill:#FFFFFF;}
</style>
<g>
	<path class="st0" d="M405.1,403.6c7.8,24.8,29.5,85.2,49.6,140c-18.7-16-60.9-53.1-77.1-65.9c-40.3-32.1-69.4-42.1-126.7-20.2
		L50.2,544c-8.5-7.7-15.8-18.6-19.9-33.7c-11.6-42.8,12.7-67.4,28.1-72.3c71.8-22.6,156.8-48.5,234-72.6
		C348.2,347.9,386.8,345,405.1,403.6z"/>
	<path class="st0" d="M916.9,354.3c0,62.1-50.4,112.5-112.5,112.5c-62.1,0-112.5-50.4-112.5-112.5c0-62.1,50.4-112.5,112.5-112.5
		C866.6,241.9,916.9,292.2,916.9,354.3z"/>
	<path class="st0" d="M29.9,597.5c68.9-30.4,150.5-65.5,224.6-97.9c50.7-22.1,69.3-13.6,102.3,13.8c31.5,26.1,103.4,88.5,103.4,88.5
		s40-9,143.5-67.1l-90.5-82.9c-31.9-34.7-22.9-68.4,3.2-84.4L671.6,278c-13,22.5-20.5,48.5-20.5,76.3c0,21.4,4.4,41.7,12.3,60.2
		l-21.2,14.8l240.3,151.7l34.4-135.5c8.1-28.2,27.8-46.3,60.3-40.4c32.3,5.9,47.1,26.4,42.2,61.8L980.6,690
		c-6.2,30-34.8,49.9-78.3,31.6L781.9,662C632.3,765,503.9,782.1,453.1,782.1c-32.9,0-70.4-15.8-97.3-43.9l-90.2-92.3
		c0,0-118.4,45.7-188.3,66.5c-20.6,6.1-53.3-3.3-67.4-40C-6,631.1,15.1,604,29.9,597.5z"/>
</g>
</svg>
