<?xml version="1.0" encoding="utf-8"?>
<!-- Generator: Adobe Illustrator 24.2.0, SVG Export Plug-In . SVG Version: 6.00 Build 0)  -->
<svg version="1.1" id="Layer_1" xmlns="http://www.w3.org/2000/svg" xmlns:xlink="http://www.w3.org/1999/xlink" x="0px" y="0px"
	 viewBox="0 0 100 100" style="enable-background:new 0 0 100 100;" xml:space="preserve">
<style type="text/css">
	.st0{fill:#FFFFFF;}
</style>
<g>
	<path class="st0" d="M67.7,7H32.7c-8,0-14.5,6.5-14.5,14.5v34.7c0,8,6.5,14.5,14.5,14.5h34.9c8,0,14.5-6.5,14.5-14.5h0V21.5
		C82.1,13.5,75.7,7,67.7,7z M73.1,51.4c-0.5,0.8-1.6,1.8-4.2,1.9c0,0-2,0-2.1,1.3l-0.1,1.3c0,0,0,1.2-1.6,0.8c0,0-4.2-1.2-6.8,0.5
		c0,0-0.3,0.2-0.6,0.5c0,0-3.3,3.2-7.6,3.2c0,0,0,0,0,0H50c0,0,0,0,0,0c-4.3,0-7.6-3.2-7.6-3.2c-0.3-0.2-0.6-0.5-0.6-0.5
		c-2.6-1.7-6.8-0.5-6.8-0.5c-1.5,0.4-1.6-0.8-1.6-0.8l-0.1-1.3c-0.1-1.3-2.1-1.3-2.1-1.3c-2.6-0.1-3.7-1.2-4.2-1.9
		c-0.5-0.7,0.4-0.9,0.4-0.9c6.3-1.8,9.4-7.7,9.4-7.7c1.4-2.5-0.5-3.5-0.5-3.5c-0.5-0.4-3.1-1.2-3.1-1.2c-2.1-0.9-1.4-2.3-1.4-2.3
		c0.8-1.6,2.6-0.5,2.6-0.5c0.9,0.5,1.5,0.4,1.5,0.4c1.5,0,1.6-0.3,1.6-0.3l-0.1-6.9c0-6.3,5.6-11.5,12.5-11.5h0.1
		c6.9,0,12.5,5.1,12.5,11.5l-0.1,6.9c0,0,0.2,0.3,1.6,0.3c0,0,0.7,0,1.5-0.4c0,0,1.8-1.1,2.6,0.5c0,0,0.7,1.5-1.4,2.3
		c0,0-2.6,0.9-3.1,1.2c0,0-2,1-0.5,3.5c0,0,3.1,6,9.4,7.7C72.7,50.5,73.6,50.7,73.1,51.4z"/>
	<path class="st0" d="M6,84.8c0.9,0.5,2.9,1.1,4.4,1.1c1.5,0,2.3-0.6,2.3-1.6c0-0.9-0.7-1.4-2.5-2c-2.5-0.8-4.1-2.2-4.1-4.3
		c0-2.5,2.1-4.4,5.6-4.4c1.7,0,2.9,0.3,3.8,0.7l0,2.9c-0.6-0.3-2.4-0.9-3.9-0.9c-1.4,0-2.1,0.6-2.1,1.4c0,0.9,0.8,1.3,2.7,2
		c2.6,0.9,3.8,2.3,3.8,4.3c0,2.4-1.9,4.5-6,4.5c-1.7,0-3.4-0.5-4.2-0.9L6,84.8z"/>
	<path class="st0" d="M48.3,77.9c-1.9,0-2.8,0.7-3.4,1.8v-1.6l-3.1,0V93h3.1v-5.9l0.2,0.3c0.5,0.7,1.5,1.2,2.7,1.2
		c2.3,0,4.6-1.8,4.6-5.6C52.4,79.6,50.6,77.9,48.3,77.9z M46.8,86.3c-1,0-1.8-0.7-2-1.6c0-0.2-0.1-0.4-0.1-0.7v-1.5
		c0-0.2,0-0.4,0.1-0.6c0.2-1,1.1-1.7,2-1.7c1.5,0,2.3,1.3,2.3,3.1C49.2,85,48.3,86.3,46.8,86.3z"/>
	<path class="st0" d="M62.3,88.1c-0.6,0.3-1.7,0.5-2.9,0.5c-3.4,0-5.6-2-5.6-5.3c0-3.1,2.1-5.4,6-5.4c0.9,0,1.8,0.1,2.5,0.4l0,2.5
		c-0.6-0.4-1.5-0.5-2.3-0.5c-1.9,0-3,1.2-3,2.9c0,1.9,1.1,2.9,3,2.9c0.8,0,1.7-0.4,2.2-0.6L62.3,88.1z"/>
	<path class="st0" d="M70.6,77.9c2.6,0,3.7,1.2,3.7,4.4v6.1h-3.2v-5.8c0-1.4-0.5-2.3-1.8-2.3c-0.9,0-1.5,0.6-1.7,1.1
		c-0.1,0.2-0.1,0.5-0.1,0.7v6.2h-3.1V73.1h3.1v6.5C68.5,77.8,70.6,77.9,70.6,77.9L70.6,77.9z"/>
	<path class="st0" d="M91.7,75v3.1H94v2.4h-2.3v3.9c0,1.4,0.2,1.8,1.3,1.8c0.5,0,0.6,0,1-0.1l0,2.2c-0.4,0.2-1.2,0.3-2.1,0.3
		c-1.1,0-1.8-0.4-2.3-0.9c-0.6-0.6-0.9-1.6-0.9-3.1v-4.1H87v-2.4h1.6v-2.2L91.7,75z"/>
	<path class="st0" d="M24.4,77.7c-1.5,0-2.6,0.8-3.1,1.4v-1.2H18v2.7c0,0.2,0,0.5,0,0.7v7.1h0v0l0,0h3.3v-6c0-0.3,0-0.6,0.1-0.8
		c0.2-0.6,0.8-1.2,1.7-1.2c1.2,0,1.7,0.9,1.7,2.3v5.8h3.3v-6.2C28.2,79.1,26.9,77.7,24.4,77.7z"/>
	<path class="st0" d="M34.5,77.7c-1.7,0-3,0.4-3.8,0.8v2.5c0.7-0.4,2.2-0.9,3.2-0.9c1.6,0,2,1.1,2,1.7v0.1c-3.7,0-6.2,0.9-6.2,3.6
		c0,1.7,1.3,3.2,3.4,3.2c1.2,0,2.3-0.5,3-1.3h0.1l0,1.1h2.4l0.6,0v-6.2C39.1,79.7,38,77.7,34.5,77.7z M35.9,84.7
		c0,0.2,0,0.4-0.1,0.6c-0.2,0.7-0.9,1.2-1.7,1.2c-0.8,0-1.3-0.4-1.3-1.2c0-1.3,1.4-1.7,3.1-1.6V84.7z"/>
	<path class="st0" d="M80.8,77.7c-1.7,0-3,0.4-3.8,0.8v2.5c0.7-0.4,2.2-0.9,3.2-0.9c1.6,0,2,1.1,2,1.7v0.1c-3.7,0-6.2,0.9-6.2,3.6
		c0,1.7,1.3,3.2,3.4,3.2c1.2,0,2.3-0.5,3-1.3h0.1l0,1.1h2.4l0.6,0v-6.2C85.4,79.7,84.3,77.7,80.8,77.7z M82.1,84.7
		c0,0.2,0,0.4-0.1,0.6c-0.2,0.7-0.9,1.2-1.7,1.2c-0.8,0-1.3-0.4-1.3-1.2c0-1.3,1.4-1.7,3.1-1.6V84.7z"/>
</g>
</svg>
