<?xml version="1.0" encoding="utf-8"?>
<!-- Generator: Adobe Illustrator 24.0.1, SVG Export Plug-In . SVG Version: 6.00 Build 0)  -->
<svg version="1.1" id="Layer_1" xmlns="http://www.w3.org/2000/svg" xmlns:xlink="http://www.w3.org/1999/xlink" x="0px" y="0px"
	 viewBox="0 0 1024 1024" style="enable-background:new 0 0 1024 1024;" xml:space="preserve">
<style type="text/css">
	.st0{fill:#FFFFFF;}
</style>
<g>
	<path class="st0" d="M190.7,968.3h35.5c0.1-102.1,79.6-147,79.6-147c-47.5,71.5-42.9,132.1-40.8,147h77.8V305h555.9l44.3-70.1
		l-44.3-69.4H342.8v-62.3l-76.5-47.3l-75.6,47.3v62.3H84.5V305h106.2V968.3z"/>
	<path class="st0" d="M374.4,967.4h39.4c0,0-6.2-69.3,40.2-150.5C454,816.9,372.6,862.7,374.4,967.4z"/>
	<path class="st0" d="M121.2,967.4h39.4C162.4,862.7,81,816.9,81,816.9C127.5,898.1,121.2,967.4,121.2,967.4z"/>
	<path class="st0" d="M460.7,502.1v13.4c0,27.4,14.6,43.2,40.1,43.2s40.1-15.7,40.1-43.2c0-25.9-14.9-39.6-28-51.7
		c-10.6-9.8-19.7-18.2-19.7-31.3c0-10.8,4.4-11.7,8.5-11.7c4.1,0,8.5,0.9,8.5,11.7v10.2h30.6V434c0-27.4-14.5-43.2-39.7-43.2
		c-25.2,0-39.7,15.7-39.7,43.2c0,25.9,14.9,39.6,28,51.7c10.6,9.8,19.7,18.2,19.7,31.3c0,9.5-3.6,11.5-8.9,11.5
		c-5.4,0-8.9-1.9-8.9-11.5v-15H460.7z"/>
	<path class="st0" d="M635.3,515.5v-81.1c0-27.3-14.9-43-41-43c-26,0-40.9,15.7-40.9,43v81.1c0,27.3,14.9,43,40.9,43
		C620.4,558.4,635.3,542.8,635.3,515.5z M584.9,517.2v-84.6c0-10.3,4.3-11.7,9-11.7c4.7,0,9,1.4,9,11.7v84.6c0,10.3-4.3,11.7-9,11.7
		C589.2,528.9,584.9,527.5,584.9,517.2z"/>
	<polygon class="st0" points="648.8,393.2 648.8,557 715.4,557 715.4,527.3 681.2,527.3 681.2,393.2 	"/>
	<path class="st0" d="M809,514.6v-79.1c0-27.7-13.9-42.4-40.3-42.4h-42.5V557h42.5C795.1,557,809,542.4,809,514.6z M777.5,515.8
		c0,10.6-4.3,11.5-8.8,11.5h-10.1V422.9h10.1c4.4,0,8.8,0.9,8.8,11.5V515.8z"/>
	<path class="st0" d="M876.5,636.4V349.1h-33.3V620H431V349.1h-34.2v287.3c0,9.3,7.6,16.9,16.9,16.9h445.9
		C868.9,653.3,876.5,645.7,876.5,636.4z"/>
</g>
</svg>
