<?xml version="1.0" encoding="utf-8"?>
<!-- Generator: Adobe Illustrator 24.0.1, SVG Export Plug-In . SVG Version: 6.00 Build 0)  -->
<svg version="1.1" id="Layer_1" xmlns="http://www.w3.org/2000/svg" xmlns:xlink="http://www.w3.org/1999/xlink" x="0px" y="0px"
	 viewBox="0 0 1024 1024" style="enable-background:new 0 0 1024 1024;" xml:space="preserve">
<style type="text/css">
	.st0{fill:#FFFFFF;}
</style>
<g>
	<path class="st0" d="M174.7,471.1c-26.5,51.7-41.5,110.2-41.5,172.3c0,209.2,169.6,378.8,378.8,378.8
		c209.2,0,378.8-169.6,378.8-378.8c0-132.5-68.1-249.1-171.2-316.8c31-101.5,9.4-170.3-72.6-252.4C599.6,26.9,544.7,1.8,488.4,1.8
		c-49.2,0-97.5,20-132.5,55L151.7,261.9c-24.1,24.1-23.9,63.7,0.5,88.2c7.8,7.8,17.3,13.3,27.6,16l-9,9
		c-12.4,12.4-19.4,28.8-19.2,46.3C151.9,440.7,161.1,460.6,174.7,471.1z M563.6,423.4c-6-3.7-13.9-2.6-18.9,2.5L398.9,571.7
		c-6.3,6.3-15.5,10-24.8,10c-6.2,0-15.4-1.7-23.7-10c-6.5-6.5-10-15.1-10-24.2c0-9.1,3.6-17.7,10.1-24.2l112.7-112.7
		c6.1-6.1,6.1-16,0-22.1c-3-3-7-4.6-11-4.6c-4,0-8,1.5-11,4.6L293.2,536c-6.1,6.2-15.3,9.8-24.6,9.8c-6.4,0-15.7-1.8-24.1-10.1
		c-13.3-13.4-13.3-35.1,0-48.4l157.9-157.9c6.1-6.1,6.1-16,0-22.1c-6.1-6.1-16-6.1-22.1,0L241.7,446.1c-6.3,6.3-15.5,10-24.8,10
		c-6.2,0-15.4-1.7-23.7-10c-6.6-6.7-10.5-15.7-10.5-24.7c0-9.1,3.6-17.7,10.1-24.2l150.6-150.6c6.1-6.1,6.1-16,0-22.1
		c-6.1-6.1-16-6.1-22.1,0L217.3,328.6c-5.6,5.3-13.7,8.4-21.7,8.4c-5.6,0-13.9-1.6-21.3-9c-12-12.1-12.3-32.3-0.5-44.1L378,78.8
		C407.1,49.7,447.3,33,488.4,33c47.9,0,95.1,21.9,136.6,63.3c87.6,87.6,98,151.9,44.7,275.5c-29.2,67.8-30.8,118-31.8,148.1
		c-0.5,16.8-1.1,27.2-5.3,29.2c-2.5,1.2-5.7,1.9-9.4,1.9c-12.6,0-27.7-6.9-38.4-17.6c-11.7-11.7-29.2-38.8-14.7-89.6
		C573.1,436,571.1,428,563.6,423.4z M512,739.3c-53,0-95.9-42.9-95.9-95.9c0-52.9,42.9-95.9,95.9-95.9c53,0,95.9,42.9,95.9,95.9
		C607.9,696.4,564.9,739.3,512,739.3z M777.7,634.5c10.7,1.3,18.3,11,17.1,21.7c-8.1,68.2-35.8,132.2-80,185.1c-3.9,4.6-9.4,7-15,7
		c-4.4,0-8.8-1.5-12.5-4.5c-8.3-6.9-9.4-19.2-2.5-27.5c39.4-47,64-104,71.2-164.7C757.3,640.9,767.1,633.3,777.7,634.5z"/>
	<path class="st0" d="M122,874.3c3.1,0,6.3-0.8,9.3-2.4c9.5-5.1,13-17,7.8-26.4C105.7,783.9,88,714,88,643.4
		c0-40.2,5.6-80,16.7-118.2c3-10.3-3-21.2-13.3-24.1c-10.4-3-21.2,3-24.1,13.3C55.1,556.2,49,599.6,49,643.4
		c0,77.1,19.3,153.4,55.9,220.7C108.4,870.7,115.1,874.3,122,874.3z"/>
	<path class="st0" d="M814.3,968.5c3.8,3.7,8.7,5.6,13.7,5.6c5,0,10.1-1.9,13.9-5.8C927.7,881.2,975,765.8,975,643.4
		c0-10.8-8.7-19.5-19.5-19.5c-10.8,0-19.5,8.7-19.5,19.5c0,112.1-43.3,217.7-121.9,297.5C806.5,948.6,806.6,961,814.3,968.5z"/>
	<path class="st0" d="M512,611.7c-17.5,0-31.7,14.2-31.7,31.7s14.2,31.7,31.7,31.7c17.5,0,31.7-14.2,31.7-31.7
		S529.5,611.7,512,611.7z"/>
</g>
</svg>
