<?xml version="1.0" encoding="utf-8"?>
<!-- Generator: Adobe Illustrator 24.2.0, SVG Export Plug-In . SVG Version: 6.00 Build 0)  -->
<svg version="1.1" id="Layer_1" xmlns="http://www.w3.org/2000/svg" xmlns:xlink="http://www.w3.org/1999/xlink" x="0px" y="0px"
	 viewBox="0 0 100 100" style="enable-background:new 0 0 100 100;" xml:space="preserve">
<style type="text/css">
	.st0{fill:#FFFFFF;}
</style>
<path id="path14_1_" class="st0" d="M92,84.9l-0.4-1.2h-0.6v1.7h0.5v-1.2h-0.1l0.5,1.2h0.3l0.5-1.2h0.1v1.2H93v-1.7h-0.6L92,84.9
	L92,84.9z M89.4,84.1h0.5v1.4h0.3v-1.4h0.5v-0.3h-1.4L89.4,84.1L89.4,84.1z M88.7,65.7c-1.3,0.4-2.3,0.9-3.2,1.7
	c-0.9,0.8-1.6,1.8-2,2.9c-0.5,1.1-0.7,2.4-0.7,3.8v11.3h5V74.2c0-1.4,0.5-2.5,1.5-3.2c1-0.7,2.3-1,3.9-0.7v-4.7
	C91.4,65.3,89.9,65.4,88.7,65.7z M67.2,75.5c0-0.8,0.2-1.6,0.5-2.3c0.3-0.7,0.7-1.3,1.1-1.8c0.5-0.5,1-0.9,1.6-1.2
	c0.6-0.3,1.3-0.4,2-0.4c0.8,0,1.5,0.2,2.2,0.5c0.7,0.3,1.2,0.7,1.7,1.3L67.2,75.5L67.2,75.5z M80.8,70.1c-0.6-1-1.3-1.9-2.2-2.6
	c-0.8-0.7-1.8-1.2-2.9-1.6c-1.1-0.4-2.2-0.6-3.3-0.6c-1.4,0-2.7,0.3-3.9,0.8c-1.2,0.5-2.3,1.3-3.2,2.2c-0.9,0.9-1.6,2-2.1,3.3
	c-0.5,1.3-0.8,2.6-0.8,4c0,1.4,0.3,2.8,0.8,4c0.5,1.2,1.2,2.3,2.1,3.3c0.9,0.9,2,1.7,3.2,2.2c1.2,0.5,2.5,0.8,3.9,0.8
	c2.4,0,4.5-0.6,6.1-1.8c1.6-1.2,2.7-2.8,3.3-4.9h-5.3c-0.4,0.9-1,1.4-1.8,1.7c-0.8,0.4-1.5,0.6-2.3,0.6c-0.9,0-1.6-0.2-2.3-0.6
	c-0.7-0.4-1.3-0.9-1.8-1.5l13.8-5.8C81.8,72.3,81.4,71.1,80.8,70.1z M56.6,77.9c-0.3,0.7-0.6,1.3-1.1,1.8c-0.5,0.5-1,0.9-1.6,1.2
	c-0.6,0.3-1.3,0.4-1.9,0.4c-0.7,0-1.3-0.1-1.9-0.4c-0.6-0.3-1.1-0.7-1.6-1.2c-0.5-0.5-0.8-1.1-1.1-1.8c-0.3-0.7-0.4-1.4-0.4-2.2
	c0-0.8,0.1-1.6,0.4-2.2c0.3-0.7,0.6-1.3,1.1-1.8c0.5-0.5,1-0.9,1.6-1.2c0.6-0.3,1.3-0.4,1.9-0.4c0.7,0,1.3,0.1,1.9,0.4
	c0.6,0.3,1.1,0.7,1.6,1.2c0.5,0.5,0.8,1.1,1.1,1.8c0.3,0.7,0.4,1.4,0.4,2.2C57,76.5,56.9,77.2,56.6,77.9z M57.1,67.7
	c-1.5-1.5-3.4-2.3-5.7-2.3c-1.3,0-2.5,0.3-3.6,0.8c-1.1,0.5-2.1,1.3-3,2.2c-0.8,0.9-1.5,2-2,3.3c-0.5,1.2-0.7,2.6-0.7,4
	c0,1.4,0.2,2.8,0.7,4c0.5,1.2,1.2,2.3,2.1,3.3c0.9,0.9,1.9,1.7,3.2,2.2c1.2,0.5,2.6,0.8,4.1,0.8c1.5,0,2.8-0.3,4-0.8
	c1.2-0.5,2.3-1.3,3.2-2.2c0.9-0.9,1.6-2,2.1-3.3c0.5-1.2,0.8-2.6,0.8-4V57.1h-5L57.1,67.7L57.1,67.7z M39,67.9
	c-0.7-0.8-1.6-1.4-2.7-1.8c-1.1-0.4-2.3-0.6-3.6-0.6c-1.3,0-2.5,0.2-3.6,0.7c-1.1,0.4-2,1.1-2.8,1.8c-0.8,0.8-1.4,1.7-1.8,2.8
	c-0.4,1.1-0.6,2.2-0.6,3.5v11.3h5V74c0-1.1,0.3-2,1.1-2.7c0.7-0.7,1.6-1,2.7-1c0.8,0,1.5,0.1,2,0.4c0.5,0.3,0.8,0.6,1.1,1
	c0.3,0.4,0.4,0.8,0.5,1.2c0.1,0.4,0.1,0.8,0.1,1v11.4h5V74.2c0-1.3-0.2-2.5-0.6-3.5C40.3,69.5,39.7,68.6,39,67.9L39,67.9z
	 M22.1,65.9h-5v19.6h5V65.9z M12.9,80.2c-0.6-0.6-0.9-1.5-0.9-2.9v-7h3.4v-4.5H12v-5H7v16.4c0,1.3,0.2,2.6,0.6,3.6
	c0.4,1.1,0.9,2,1.7,2.7c0.7,0.7,1.7,1.3,2.7,1.6c1.1,0.3,2.3,0.4,3.8,0.3v-4.6C14.4,81,13.6,80.7,12.9,80.2z M44.2,31.1
	c0.1,0.1,0.2,0.2,0.4,0.2c0.1,0,0.2,0,0.3-0.1l0,0c0.7-0.6,1.4-1.2,2-1.8c5.8-6.3,2.4-14,2.4-14.1c-0.2-0.4-0.1-0.8,0.3-1.1
	c0.3-0.2,0.8-0.2,1.1,0.1c19.8,18.3,14.5,32.2,14.2,33.2c-1.6,5.7-7.9,9.8-15.4,10c-0.2,0-0.2,0-0.4,0c-8.8,0-16.1-5.4-16.1-12.3V45
	c-0.7-9.6,8.5-19,8.9-19.4c0.2-0.3,0.5-0.3,0.9-0.2c0.3,0.1,0.5,0.5,0.5,0.8C43,28.1,43.4,29.7,44.2,31.1L44.2,31.1"/>
</svg>
