<?xml version="1.0" encoding="utf-8"?>
<!-- Generator: Adobe Illustrator 24.0.1, SVG Export Plug-In . SVG Version: 6.00 Build 0)  -->
<svg version="1.1" id="Layer_1" xmlns="http://www.w3.org/2000/svg" xmlns:xlink="http://www.w3.org/1999/xlink" x="0px" y="0px"
	 viewBox="0 0 1024 1024" style="enable-background:new 0 0 1024 1024;" xml:space="preserve">
<style type="text/css">
	.st0{fill:#FFFFFF;}
</style>
<g>
	<path class="st0" d="M952.3,311c11.1-11.1,11.1-29,0-40.1c-11.1-11.1-29-11.1-40.1,0l-115.4,116H644.1c-12.8,0-23.1,10.5-22.1,23.2
		c0.8,11.2,10.2,20,21.5,20h159.2v321.4l-190.2,53.9H175.2c-35.7,0-64.6,28.8-64.6,64.4c0,24,13.4,44.8,33,55.8
		c3.6,24.6,24.6,43.5,50.3,43.5c22.6,0,41.6-14.7,48.3-35H729c0,0,25.7,35.7,48.3,35.7c23.6,0,43.2-16.1,49.1-37.8
		c26.4-7.4,45.9-31.1,46.9-59.6l-0.4,0V756.9c0.6-0.1,0.6-0.3,0.9-0.4V389.9L952.3,311z"/>
	<path class="st0" d="M63.3,602.9c1.3,28.1,19.9,33.7,26.1,34.8l193.4-4c8.5,0.1,18.6-5.9,22.6-13.5l13.9-21.4l-66.8-91.7
		l-19.3,44.3L87.3,567.5C87.3,567.5,61.9,572.5,63.3,602.9z"/>
	<path class="st0" d="M460.1,420.1c0.7,5.9,3.5,13.7,9.2,17.2c38.1,23.3,143,77.5,143,77.5c11.4,4.6,26.2-0.3,35.5-14.4
		c12.3-18.7,0.2-36.5,0.2-36.5l-106.9-83.3c0,0-0.3-81-1.4-112.9c-1.3-39.1-48-76.7-79.4-77.1c-45.3-0.6-181.1-4.6-181.1-4.6
		c-13.7,0-22,9.1-30.1,18.8l-79.8,100.1c0,0-13.3,21.4,10.4,40.7c14.5,11.8,29.8,9.2,37.4,1.3l83.1-85.5l72.4,18.3l-80.8,106.8
		c-11.2,18.9-33,56-15.1,86.9l93.8,128.8l-39.7,146.6c0,0-3.4,24,25.7,33.6c16.1,5.3,35.6,3.1,42.4-11.7l68.8-188.2
		c3.2-7.9,1.3-19.7-4-26.2l-68-98.7l61.7-72.3L460.1,420.1z"/>
	<path class="st0" d="M664.1,138c0-46.3-37.5-83.8-83.9-83.8c-46.2,0-83.8,37.5-83.8,83.8c0,46.3,37.6,83.8,83.8,83.8
		C626.5,221.9,664.1,184.3,664.1,138z"/>
</g>
</svg>
