<?xml version="1.0" encoding="utf-8"?>
<!-- Generator: Adobe Illustrator 24.0.1, SVG Export Plug-In . SVG Version: 6.00 Build 0)  -->
<svg version="1.1" id="Layer_1" xmlns="http://www.w3.org/2000/svg" xmlns:xlink="http://www.w3.org/1999/xlink" x="0px" y="0px"
	 viewBox="0 0 1024 1024" style="enable-background:new 0 0 1024 1024;" xml:space="preserve">
<style type="text/css">
	.st0{fill:#FFFFFF;}
</style>
<g>
	<path class="st0" d="M543,344.7c94,0,170.2-76.2,170.2-170.2C713.2,80.5,637,4.2,543,4.2c-94,0-170.2,76.3-170.2,170.3
		C372.8,268.5,449,344.7,543,344.7z"/>
	<path class="st0" d="M147.2,126.2C119.9,81.6,80.7,75.4,41.9,95.6c-30.5,15.8-36.6,69.3-18.2,111.1
		C119.3,438,265.8,500.5,353,555.1l0.6,92.3c-17.2,3.9-28.6,22.6-28.6,39.8v93.6c0,18.2,7.6,34.3,18.8,47.2l-12.7,5.2
		c-14.6,6-24.2,20.2-24.2,36v110.4c0,13.3,6.7,25.7,17.7,33.1c9.4,6.3,23.2,9.6,37.4,3.7l204.8-84.3l76.5,31.7
		c10.9,4.5,22.1,6.9,32.4,6.9c32.6,0,56.3-23.3,56.3-55.5v-197c0-16.5-9.9-31.8-25.5-37.3c-2.5-0.9-5-1.5-7.5-1.8l-0.4-49.8
		c119.5,71.1,171.9,232.6,171.9,232.6c12.5,30.7,54.1,57.8,103.6,31.4c30.3-16.1,48.1-68.4,27.3-109
		C894.2,575,833.3,472.4,694.5,425.2c-103.9-35.4-151.5-3.3-295-64.5C296.6,316.7,201.7,215,147.2,126.2z M693,915.2
		c0,11.1-7,15.6-16.4,15.6c-5.2,0-11.2-1.4-17.1-3.9L620,910.6l54.7-22.5c6.2-2.6,12.4-6,18.3-10V915.2z M536,792.9l29-11.9v69.1
		l32-13.5v-68.8l30-12.3v44.7l32-13.5v-44.5c22.6-10.8,34-23.6,34-23.6v92.8c0,17.3-17.1,32.8-33.6,39.6L347,979.8V870.4l34-13.9
		v47.3l32-13.4v-46.9l29-11.9v70.4l32-13.5v-70l30-12.3v46l32-13.4V792.9z M366,686.7c0,0,13.6,15.5,40.9,26.8l80.2,33.2l28.2,11.7
		l-129.4,53c-11.1-8-19.9-19.4-19.9-31.8V686.7z"/>
</g>
</svg>
