<?xml version="1.0" encoding="utf-8"?>
<!-- Generator: Adobe Illustrator 24.0.1, SVG Export Plug-In . SVG Version: 6.00 Build 0)  -->
<svg version="1.1" id="Layer_1" xmlns="http://www.w3.org/2000/svg" xmlns:xlink="http://www.w3.org/1999/xlink" x="0px" y="0px"
	 viewBox="0 0 1024 1024" style="enable-background:new 0 0 1024 1024;" xml:space="preserve">
<style type="text/css">
	.st0{fill:#FFFFFF;}
</style>
<g>
	<path class="st0" d="M444.2,184.1c-3.2-7.5-11.8-11-19.3-7.8l-7.5,3.2c-0.7-2-1.4-4-2.2-6c-18.7-44-61.7-72.5-109.5-72.5
		c-16,0-31.6,3.2-46.5,9.5c-60.4,25.6-88.6,95.6-63,156c3.1,7.4,7,14.5,11.7,21.2c2.8,4.1,7.4,6.4,12.1,6.4c1.9,0,3.8-0.4,5.7-1.2
		c12.9,41.3,51.4,71.3,97,71.3c56.1,0,101.6-45.5,101.6-101.6c0-17.7-4.5-34.3-12.5-48.8l24.7-10.5
		C443.9,200.3,447.4,191.6,444.2,184.1z M270.7,137.7c11.2-4.7,22.9-7.1,34.9-7.1c36,0,68.3,21.4,82.4,54.5c0.8,1.9,1.6,3.9,2.3,5.9
		L226,260.8c-1-1.9-1.9-3.8-2.7-5.8C204,209.6,225.3,157,270.7,137.7z"/>
	<path class="st0" d="M606,6h-33v117.9c8.9-4.8,19.9-8.4,33-8.6V6z"/>
	<path class="st0" d="M586.4,399.2L573,410.4v194.5l33,1.8V378.2C601.1,384.9,594.9,391.9,586.4,399.2z"/>
	<path class="st0" d="M574.1,989.8c3.7,14.9,25.1,31,49.4,26.9c15.3-2.5,35.3-13.8,37.3-34.5c1.7-18.1-13-111.1-23.9-172.5
		l-108.2,11.6L574.1,989.8z"/>
	<path class="st0" d="M817.3,927.8c21.3-9.1,31.1-31.7,24.5-50.3c-13.2-37.1-68.8-136.9-93.9-175.3c-12.4-18.9-26.1-54.1-65.6-59.5
		l-178-9.6l-14.9-195.3l75.6-63.1c12.2-10.6,18-20,23.1-30.8c8.3-17.7,61-131,61-131s15.3-40.8-20.9-58.9c-8-4-15.2-5.6-21.6-5.6
		c-22,0-34,18.5-34,18.5L495,301L200.1,506.9c-14.9,10.4-22.6,28.6-18.3,49.5c9.4,62.5,27.3,159.6,37.7,203.1
		c0,0,3.7,25.7,34.9,25.7c2.5,0,5.2-0.2,7.7-0.6V1001h33V790.5l61.4-56.2c5.3,37.7,34.1,68.9,73.1,64.7L656,774.7
		c0,0,91.9,129.4,100.9,140.8C770.6,933.4,792.7,938.3,817.3,927.8z M297.6,743.8c-0.1-1.3-0.1-2.5-0.3-3.8l-17.4-154.7
		c0,0,18.6-13.7,44.3-31.5l25.4,142.4L297.6,743.8z"/>
</g>
</svg>
