<?xml version="1.0" encoding="utf-8"?>
<!-- Generator: Adobe Illustrator 24.0.1, SVG Export Plug-In . SVG Version: 6.00 Build 0)  -->
<svg version="1.1" id="Layer_1" xmlns="http://www.w3.org/2000/svg" xmlns:xlink="http://www.w3.org/1999/xlink" x="0px" y="0px"
	 viewBox="0 0 1024 1024" style="enable-background:new 0 0 1024 1024;" xml:space="preserve">
<style type="text/css">
	.st0{fill:#FFFFFF;}
</style>
<g>
	<path class="st0" d="M752.6,269.4c7.3-4.4,15.7-9,25.1-13.1l-2-3.1c-3.8-41.1,49.6-132.3-31-174.7
		c-85.3-44.8-134.8,14.6-134.8,14.6l71.7,37.7l-66.6,126.7c0,0,46.9,19,90.2,41.6l7.1,13.8C721.8,295.1,735.4,279.8,752.6,269.4z
		 M714.5,262.3L670.2,239c-1.8-0.9-2.4-3.1-1.5-4.9l7.2-14c0.4-0.9,1.2-1.5,2.1-1.8c0.9-0.3,1.9-0.2,2.8,0.3l24.2,12.8l11.8-22.7
		l-24.3-12.9c-1.8-0.9-2.4-3.1-1.5-4.9l7.6-14.7c0.4-0.9,1.2-1.5,2.1-1.8c0.9-0.3,1.9-0.2,2.8,0.2l44.3,23.3
		c1.8,0.9,2.4,3.1,1.5,4.9l-29.9,57.9C718.7,262.1,717.8,264,714.5,262.3z"/>
	<path class="st0" d="M630.5,180.4L572,148.7c-1.2,49.7,36.2,73.9,36.2,73.9L630.5,180.4z"/>
	<path class="st0" d="M859,511.7c-4,9.9,0,21.5,9.7,26.6c10.4,5.5,23.2,1.5,28.6-8.9c4.6-8.8,2.4-19.2-4.6-25.6
		c11.6-3.4,22.5-7.8,32.1-14.4l6,9.4c8.2,15.7,6.8,33.6-0.6,47.5c-5.1,9.8-13.2,18.1-23.5,23.7c-16.8,9.1-36.5,9.6-53,1.1
		c0,0-0.1-0.1-0.1-0.1c-8.2-4.3-15.6-11.2-20.5-20L817,519.1c-53.5,124.5-170.6,191.9-270,224.6l36.7,220.2H305.1l-35.4-127.8h-27.5
		l17.7,127.8H116.1L90,814.6c-16-142.2,85.8-209.4,249-218.7c143.1-8.2,262.2-30.1,362-173c-0.4-1.3-0.8-2.5,0,0
		c18.8,58,64.3,85.4,113.2,90.9C826.3,514.7,845.9,514.7,859,511.7z"/>
	<path class="st0" d="M827.2,281.9c-20.8,0.5-38.8,8.2-55.8,18.5c-34.4,20.8-51.2,75.6-30.5,121.5c16.8,37.5,52.9,55.6,91.9,55.6
		c11,0,22.3-1.5,33.4-4.3c33.1-8.4,46-12.6,54.2-36c7.7-21.9-6.9-52.2-21-83.9C879.9,309.4,864.8,281,827.2,281.9z"/>
	<path class="st0" d="M104.2,394.7c5.6,18.3,23.4,29.8,41.9,25.1l20.4-5.1c1.9,24.8,9.4,49.5,23.3,72.2
		c46.9,76.4,146.8,100.3,223.2,53.4c69.9-42.9,95.7-130.3,63.5-203.4l64.2-16.1c2.1-0.5,3.9-1.3,5.4-2.2c4.3-2.6,6.1-6.6,5.3-10.1
		l-5.4-20.9c-0.7-2.8-2.9-5.2-5.8-6.1l-35.7-1.5c-1.5-0.5-7.4,0.5-9,0.9l-9.9,1.5c-26.1-118.2-130.3-180.2-231.2-155.5
		c-18.1,4.4-34.6,11.5-49.4,20.6c-72.2,44.3-103.5,136.9-83.1,208.9C112.3,360.5,99,377.6,104.2,394.7z M227.1,184.1
		c11.3-6.9,23.6-12,36.6-15.2c37-9.1,75.1-3.1,107.2,16.9c35.5,22.1,60.6,59.4,70.7,105.2c0.9,4.1,2.4,7.8,4.4,11.2l-287.2,72.1
		c5.3-8.8,6.9-19.7,4-30.2C148.6,293.7,169.1,219.9,227.1,184.1z"/>
</g>
</svg>
