<?xml version="1.0" encoding="utf-8"?>
<!-- Generator: Adobe Illustrator 24.0.1, SVG Export Plug-In . SVG Version: 6.00 Build 0)  -->
<svg version="1.1" id="Layer_1" xmlns="http://www.w3.org/2000/svg" xmlns:xlink="http://www.w3.org/1999/xlink" x="0px" y="0px"
	 viewBox="0 0 1024 1024" style="enable-background:new 0 0 1024 1024;" xml:space="preserve">
<style type="text/css">
	.st0{fill:#FFFFFF;}
</style>
<g>
	<path class="st0" d="M512.2,320c73.5,0,133-59.6,133-133c0-73.4-59.5-133-133-133c-73.5,0-133,59.5-133,133
		C379.2,260.4,438.8,320,512.2,320z"/>
	<path class="st0" d="M187.2,754.9c-11.5,8.6-20.5,19.7-25,33c-13.7,40.1,17,81,66.3,91l17.7,3.8c7.2-32.2,32.4-59.6,68.6-69.6
		l117.3-31.2l-154.5-41.4L187.2,754.9z"/>
	<path class="st0" d="M845.8,757.3l-113.4-18.1L326.1,847.4c-32.8,9.1-48.7,45.8-37.7,76.9c16.5,46.9,52.2,45.5,72.8,41.2
		l137.6-28.9l159.4,33.9c38.1,7.5,83.8-18.8,82.1-66.4L651.2,915l-9.4-11.7l153.9-29.4c49.3-9.9,80.1-50.8,66.5-90.9
		C858.9,773.1,853.1,764.6,845.8,757.3z"/>
	<path class="st0" d="M102.9,719.4L301.4,692c23.4-5.3,30-19.8,38.1-33.9c18.7-35.2,38.9-86.1,38.9-86.1c9.6,36.6,9,82-4.6,149.3
		l128.1,38.2L648.7,716c-11-44.6-11-109.1-2.6-144c0,0,20.1,50.9,38.9,86.1c8.1,14.2,14.6,28.7,38.1,33.9l196.3,27.4
		c30.7,5.6,45.5-18.3,49.9-38.8c5.9-27.6-2.5-50.9-35-58l-157.5-42.5c0,0-64-136-90.2-174.9c-37.3-55.4-110.2-59.5-175.1-59.5
		c-65.2,0-139.7,7.8-173.7,59.5c-33.8,51.4-90.4,174.9-90.4,174.9L90.5,623.4c-32.5,7.1-41.7,30.4-35.8,58
		C59,701.9,72.2,725,102.9,719.4z"/>
</g>
</svg>
