<?xml version="1.0" encoding="utf-8"?>
<!-- Generator: Adobe Illustrator 24.0.1, SVG Export Plug-In . SVG Version: 6.00 Build 0)  -->
<svg version="1.1" id="Layer_1" xmlns="http://www.w3.org/2000/svg" xmlns:xlink="http://www.w3.org/1999/xlink" x="0px" y="0px"
	 viewBox="0 0 1024 1024" style="enable-background:new 0 0 1024 1024;" xml:space="preserve">
<style type="text/css">
	.st0{fill:#FFFFFF;}
</style>
<g>
	<path class="st0" d="M70.9,623.3C132.7,648.8,237,643,263.3,638c-3.2-29.7-8.7-80.1,7.5-124.6c-45.2,7-87.1,7.2-111.4,5.6
		c20.4-53.7,31.5-76.4,56-137.6c11.8-29.4,7.4-62.3-21.5-75.3c-28.8-13-61.7,0.4-75.9,28.7c-53.8,107.4-85,206.8-86.5,212
		C18.5,592.6,52.6,615.7,70.9,623.3z"/>
	<path class="st0" d="M940.7,240.4c-32.1,2.4-244,7.8-335.3-1.9c-127.7-13.5-261.4-52.4-341.6-74.3c-28.5-7.8-60.1,2.6-70.4,34.4
		c-9.5,29.1,7.6,58.5,36.8,67.6c51.3,16,234.9,67,234.9,67c-10,77.6-96.3,122.4-129.3,153.5C285.1,534.6,303.3,613,305.5,649
		c4.7,76,20.9,316.8,20.9,316.8c0,34.5,22.9,55.4,57.3,55.4c34.4,0,54.7-19,54.7-53.4l23.4-355.1c52.2-34,171.1-124.1,209.4-243.5
		l263.7-21.7c38.5-3.6,61.3-21,61.3-51.6C996.1,265.2,971.3,240.4,940.7,240.4z"/>
	<path class="st0" d="M601.6,208c56.7,0,102.6-46,102.6-102.6c0-56.7-46-102.6-102.6-102.6c-56.7,0-102.6,46-102.6,102.6
		C498.9,162.1,544.9,208,601.6,208z"/>
</g>
</svg>
